<?xml version="1.0" encoding="UTF-8"?>
<svg width="251px" height="197px" viewBox="0 0 251 197" version="1.1" xmlns="http://www.w3.org/2000/svg" xmlns:xlink="http://www.w3.org/1999/xlink">
    <!-- Generator: Sketch 51.1 (57501) - http://www.bohemiancoding.com/sketch -->
    <title>anytime_access</title>
    <desc>Created with Sketch.</desc>
    <defs></defs>
    <g id="Page-1" stroke="none" stroke-width="1" fill="none" fill-rule="evenodd">
        <g id="healthcare_industry" transform="translate(-1175.000000, -4532.000000)" fill-rule="nonzero">
            <g id="Group-80" transform="translate(240.000000, 861.000000)">
                <g id="Group-31" transform="translate(1.000000, 3516.000000)">
                    <g id="Group-79" transform="translate(798.000000, 155.000000)">
                        <g id="anytime_access" transform="translate(136.000000, 0.000000)">
                            <g id="computer-(7)">
                                <path d="M93.3829787,190.729088 L135.813134,190.729088 L135.813134,174.131958 C135.813134,172.799839 135.813134,169.1817 135.813134,163.277539 L93.3829787,163.277539 L93.3829787,190.729088 Z" id="Shape" fill="#B1DDC8"></path>
                                <path d="M225.558953,131.714643 L4.85106383,131.714643 L4.85106383,146.863926 C4.85106383,153.647669 9.92884437,159.166192 16.1696751,159.166192 L214.240342,159.166192 C220.481172,159.166192 225.558953,153.647669 225.558953,146.863926 L225.558953,131.714643 Z" id="Shape" fill="#DCFAEC"></path>
                                <path d="M3.63829787,126.878691 L223.148936,126.878691 L223.148936,16.070662 C223.148936,9.83971918 218.098701,4.77089468 211.891724,4.77089468 L14.8955103,4.77089468 C8.68853351,4.77089468 3.63829787,9.83971918 3.63829787,16.070662 L3.63829787,126.878691 Z" id="Shape" fill="#FFFFFF"></path>
                                <g id="internet-(2)" transform="translate(62.000000, 15.000000)">
                                    <path d="M36.496875,1.59375 C17.2125,1.59375 1.59375,17.2125 1.59375,36.496875 C1.59375,55.78125 17.2125,71.4 36.496875,71.4 C55.78125,71.4 71.4,55.78125 71.4,36.496875 C71.559375,17.2125 55.940625,1.59375 36.496875,1.59375 Z" id="Shape" fill="#E1E6E9"></path>
                                    <g id="Group" transform="translate(16.335938, 1.593750)" fill="#FFFFFF">
                                        <path d="M20.1609375,0 C9.0046875,0 0.0796875,15.61875 0.0796875,34.903125 C0.0796875,54.1875 9.1640625,69.965625 20.1609375,69.965625 C31.3171875,69.965625 40.2421875,54.346875 40.2421875,35.0625 C40.2421875,15.778125 31.3171875,0 20.1609375,0 Z" id="Shape"></path>
                                        <path d="M48.6890625,27.890625 C29.0859375,27.890625 13.3078125,43.828125 13.3078125,63.271875 C13.1484375,82.875 29.0859375,98.8125 48.6890625,98.8125 C68.1328125,98.8125 84.0703125,82.875 84.0703125,63.43125 C84.0703125,43.828125 68.1328125,27.890625 48.6890625,27.890625 Z" id="Shape"></path>
                                    </g>
                                    <path d="M65.025,94.03125 C48.928125,94.03125 36.01875,80.9625 36.01875,65.025 C36.01875,48.928125 49.0875,36.01875 65.025,36.01875 C80.9625,36.01875 94.03125,48.928125 94.03125,65.025 C94.03125,80.9625 80.9625,94.03125 65.025,94.03125 Z" id="Shape" fill="#4FBF9F"></path>
                                    <path d="M65.025,61.2 C62.953125,61.2 61.2,62.953125 61.2,65.025 C61.2,67.096875 62.953125,68.85 65.025,68.85 C67.096875,68.85 68.85,67.096875 68.85,65.025 C68.85,62.79375 67.096875,61.2 65.025,61.2 Z" id="Shape" fill="#FFFFFF"></path>
                                    <g id="Group" fill="#000000">
                                        <path d="M72.196875,28.6875 C68.690625,12.271875 54.028125,0 36.496875,0 C16.415625,0 0,16.415625 0,36.496875 C0,53.86875 12.271875,68.53125 28.6875,72.196875 C32.034375,89.25 47.015625,102 65.025,102 C85.425,102 102,85.425 102,65.025 C102,47.015625 89.25,32.034375 72.196875,28.6875 Z M68.85,28.05 C67.575,27.890625 66.3,27.890625 65.025,27.890625 C62.634375,27.890625 60.084375,28.209375 57.853125,28.528125 C57.69375,27.73125 57.69375,26.934375 57.534375,26.1375 L68.371875,26.1375 C68.53125,26.934375 68.690625,27.4125 68.85,28.05 Z M67.096875,23.109375 L56.7375,23.109375 C54.984375,15.459375 51.6375,9.24375 47.49375,5.1 C56.259375,8.128125 63.271875,14.6625 67.096875,23.109375 Z M38.090625,3.346875 C44.94375,4.4625 50.68125,12.271875 53.390625,23.109375 L38.090625,23.109375 L38.090625,3.346875 Z M38.090625,26.1375 L54.1875,26.1375 C54.346875,27.09375 54.50625,28.209375 54.665625,29.325 C48.290625,31.2375 42.553125,34.74375 38.090625,39.365625 L38.090625,26.1375 Z M34.903125,3.346875 L34.903125,22.95 L19.603125,22.95 C22.3125,12.1125 28.209375,4.4625 34.903125,3.346875 Z M34.903125,26.1375 L34.903125,43.190625 C34.10625,44.30625 33.309375,45.58125 32.5125,46.85625 L18.80625,46.85625 C18.16875,43.66875 17.85,40.1625 17.85,36.496875 C17.85,32.83125 18.16875,29.325 18.80625,26.1375 L34.903125,26.1375 Z M25.5,5.1 C21.35625,9.24375 18.16875,15.459375 16.415625,22.95 L6.05625,22.95 C9.88125,14.6625 16.89375,8.128125 25.5,5.1 Z M3.1875,36.496875 C3.1875,32.83125 3.825,29.325 4.940625,25.978125 L15.778125,25.978125 C15.140625,29.325 14.821875,32.83125 14.821875,36.3375 C14.821875,40.003125 15.140625,43.35 15.778125,46.696875 L4.940625,46.696875 C3.825,43.66875 3.1875,40.1625 3.1875,36.496875 Z M6.05625,50.04375 L16.415625,50.04375 C18.16875,57.534375 21.35625,63.909375 25.5,67.89375 C16.89375,65.025 9.721875,58.490625 6.05625,50.04375 Z M27.890625,65.025 C27.890625,65.34375 27.890625,65.821875 27.890625,66.140625 C24.225,62.634375 21.35625,57.05625 19.603125,50.203125 L30.91875,50.203125 C29.00625,54.665625 27.890625,59.765625 27.890625,65.025 Z M65.025,98.8125 C46.21875,98.8125 31.078125,83.671875 31.078125,65.025 C31.078125,46.378125 46.21875,31.2375 64.865625,31.2375 C83.671875,31.078125 98.8125,46.21875 98.8125,65.025 C98.8125,83.671875 83.671875,98.8125 65.025,98.8125 Z" id="Shape"></path>
                                        <path d="M70.284375,64.06875 C69.965625,61.8375 68.2125,60.084375 65.98125,59.765625 L64.865625,45.2625 L63.75,59.765625 C61.2,60.24375 59.446875,62.475 59.446875,65.025 C59.446875,68.053125 61.8375,70.44375 64.865625,70.44375 C67.575,70.44375 69.80625,68.53125 70.125,65.98125 L79.528125,65.025 L70.284375,64.06875 Z M65.025,67.25625 C63.75,67.25625 62.79375,66.3 62.79375,65.025 C62.79375,63.75 63.75,62.79375 65.025,62.79375 C66.3,62.79375 67.25625,63.75 67.25625,65.025 C67.25625,66.3 66.140625,67.25625 65.025,67.25625 Z" id="Shape"></path>
                                        <rect id="Rectangle-path" x="39.525" y="63.43125" width="3.1875" height="3.1875"></rect>
                                        <rect id="Rectangle-path" x="87.178125" y="63.43125" width="3.1875" height="3.1875"></rect>
                                        <rect id="Rectangle-path" transform="translate(44.364282, 76.899598) rotate(-119.992901) translate(-44.364282, -76.899598) " x="42.7705083" y="75.3058245" width="3.18754657" height="3.18754657"></rect>
                                        <rect id="Rectangle-path" transform="translate(85.717581, 53.112181) rotate(60.007099) translate(-85.717581, -53.112181) " x="84.1238081" y="51.5184079" width="3.18754657" height="3.18754657"></rect>
                                        <rect id="Rectangle-path" transform="translate(53.299876, 85.590036) rotate(-150.007099) translate(-53.299876, -85.590036) " x="51.7061032" y="83.9962625" width="3.18754657" height="3.18754657"></rect>
                                        <rect id="Rectangle-path" transform="translate(77.140409, 44.332244) rotate(29.992901) translate(-77.140409, -44.332244) " x="75.5466352" y="42.7384711" width="3.18754657" height="3.18754657"></rect>
                                        <rect id="Rectangle-path" x="63.590625" y="87.01875" width="3.1875" height="3.1875"></rect>
                                        <rect id="Rectangle-path" x="63.590625" y="39.525" width="3.1875" height="3.1875"></rect>
                                        <rect id="Rectangle-path" transform="translate(77.260294, 85.418135) rotate(-119.992901) translate(-77.260294, -85.418135) " x="75.6665205" y="83.8243612" width="3.18754657" height="3.18754657"></rect>
                                        <rect id="Rectangle-path" transform="translate(53.380165, 44.096978) rotate(-119.992901) translate(-53.380165, -44.096978) " x="51.7863916" y="42.5032051" width="3.18754657" height="3.18754657"></rect>
                                        <rect id="Rectangle-path" transform="translate(85.827147, 76.584680) rotate(-150.007099) translate(-85.827147, -76.584680) " x="84.2333742" y="74.9909068" width="3.18754657" height="3.18754657"></rect>
                                        <rect id="Rectangle-path" transform="translate(44.638000, 52.736566) rotate(-59.999272) translate(-44.638000, -52.736566) " x="43.0442853" y="51.1428514" width="3.18742987" height="3.18742987"></rect>
                                    </g>
                                </g>
                                <path d="M209.643326,0.0531349029 L18.2302772,0.0531349029 C8.17785928,0.0531349029 0,8.16838064 0,18.1438325 L0,145.186842 C0,155.162294 8.17785928,163.277539 18.2302772,163.277539 L88.4144136,163.277539 L88.4144136,190.729088 L72.6148401,190.729088 C70.6007591,190.729088 68.8508197,191.473295 68.8508197,193.471473 C68.8508197,195.46965 70.6007591,196.053412 72.6148401,196.053412 L155.258763,196.053412 C157.272844,196.053412 158.786854,195.46965 158.786854,193.471473 C158.786854,191.473295 157.272844,190.729088 155.258763,190.729088 L137.778326,190.729088 L137.778326,174.131958 C137.778326,172.13378 136.977226,170.917322 134.963145,170.917322 C132.949064,170.917322 132.167079,172.13378 132.167079,174.131958 L132.167079,190.729088 L94.1072037,190.729088 L94.1072037,163.277539 L209.643326,163.277539 C219.695744,163.277539 227.873603,155.162294 227.873603,145.186842 L227.873603,18.1438325 C227.873603,8.16838064 219.695744,0.0531349029 209.643326,0.0531349029 Z M209.643326,157.604285 L18.2302772,157.604285 C10.4014815,157.604285 5.65700839,151.172209 5.65700839,145.186842 L5.65700839,131.82047 L222.433002,131.82047 L222.433002,145.186842 C222.433002,151.172209 218.052714,157.604285 209.643326,157.604285 Z M18.2302772,6.38100943 L209.643326,6.38100943 C218.267672,5.58938197 222.433002,12.1584649 222.433002,18.1438325 L222.433002,126.228152 L5.65700839,126.228152 L5.65700839,18.1438325 C5.65700839,12.1584649 9.64172623,6.38100943 18.2302772,6.38100943 Z" id="Shape" fill="#000000"></path>
                            </g>
                            <g id="assistant" transform="translate(172.000000, 67.000000)">
                                <g id="Group" transform="translate(2.025974, 2.011696)">
                                    <path d="M8.8806039,0.13402924 L65.0677013,0.13402924 C69.8416558,0.13402924 73.7117727,3.97687135 73.7117727,8.71718129 L73.7117727,116.007713 C73.7117727,120.748023 69.8416558,124.590865 65.0677013,124.590865 L8.8806039,124.590865 C4.10664935,124.590865 0.236532468,120.748023 0.236532468,116.007713 L0.236532468,8.71743275 C0.236279221,3.97687135 4.1063961,0.13402924 8.8806039,0.13402924 Z" id="Shape" stroke="#979797" stroke-width="0.699999988" fill="#7FAD97"></path>
                                    <path d="M8.8806039,0.13402924 L58.5845844,0.13402924 C63.358539,0.13402924 67.2286558,3.97687135 67.2286558,8.71718129 L67.2286558,116.007713 C67.2286558,120.748023 63.358539,124.590865 58.5845844,124.590865 L8.8806039,124.590865 C4.10664935,124.590865 0.236532468,120.748023 0.236532468,116.007713 L0.236532468,8.71743275 C0.236279221,3.97687135 4.1063961,0.13402924 8.8806039,0.13402924 Z" id="Shape" fill="#DCFAEC"></path>
                                    <path d="M47.269013,7.01086957 L26.679039,7.01086957 C25.0420519,7.01086957 23.5453636,6.2751211 22.8132273,5.11025317 L19.6856299,0.134280702 L54.2621688,0.134280702 L51.1345714,5.11025317 C50.4026883,6.27491963 48.9062532,7.01086957 47.269013,7.01086957 Z" id="Shape" fill="#0A8084"></path>
                                </g>
                                <g id="Group" fill="#000000">
                                    <path d="M67.0934221,0 L10.9065779,0 C4.94185714,0.00704093567 0.10838961,4.80644444 0.101298701,10.7291287 L0.101298701,118.019661 C0.10838961,123.942345 4.94185714,128.741749 10.9065779,128.748789 L67.0936753,128.748789 C73.0583961,128.741749 77.8918636,123.942345 77.8989545,118.019661 L77.8989545,10.7291287 C77.8916104,4.80644444 73.0581429,0.00704093567 67.0934221,0 Z M52.7913117,2.88952784 L51.227513,5.29399644 C50.8635974,6.02248182 50.1144935,6.48265726 49.2954935,6.48014264 L28.7045065,6.48014264 C27.8855065,6.48265726 27.1364026,6.02273328 26.772487,5.29399644 L25.2086883,2.88952784 L52.7913117,2.88952784 Z M67.0934221,125.85901 L10.9065779,125.85901 C7.32769481,125.855238 3.02185433,121.57307 3.01805563,118.019409 L3.01805563,10.7291287 C3.02185433,7.17546784 7.32769481,2.89329977 10.9065779,2.88952784 L21.0786832,2.88952784 L22.9064221,5.81123188 C23.9984221,7.99744241 26.247,9.3774658 28.7047597,9.36941902 L49.2957468,9.36941902 C51.7535065,9.3774658 54.0020844,7.99744241 55.0940844,5.81123188 L56.9218233,2.88952784 L67.0939286,2.88952784 C70.6728117,2.89329977 74.9786522,7.17546784 74.9824509,10.7291287 L74.9824509,118.019409 C74.9781457,121.57307 70.6723052,125.855238 67.0934221,125.85901 Z" id="Shape" stroke="#000000" stroke-width="1.5"></path>
                                    <path d="M51.9662338,117.275858 L26.0337662,117.275858 C24.8402143,117.275858 23.7536159,117.534806 23.7536159,118.719695 C23.7536159,119.904835 24.8404675,120.165135 26.0337662,120.165135 L51.9662338,120.165135 C53.1597857,120.165135 54.0079925,119.904584 54.0079925,118.719695 C54.0079925,117.534806 53.1597857,117.275858 51.9662338,117.275858 Z" id="Shape"></path>
                                </g>
                            </g>
                        </g>
                    </g>
                </g>
            </g>
        </g>
    </g>
</svg>