<?xml version="1.0" encoding="UTF-8"?>
<svg width="123px" height="105px" viewBox="0 0 123 105" version="1.1" xmlns="http://www.w3.org/2000/svg" xmlns:xlink="http://www.w3.org/1999/xlink">
    <!-- Generator: Sketch 51.1 (57501) - http://www.bohemiancoding.com/sketch -->
    <title>heart (2)</title>
    <desc>Created with Sketch.</desc>
    <defs></defs>
    <g id="Page-1" stroke="none" stroke-width="1" fill="none" fill-rule="evenodd">
        <g id="healthcare_industry" transform="translate(-1164.000000, -929.000000)" fill-rule="nonzero">
            <g id="Group-80" transform="translate(240.000000, 861.000000)">
                <g id="Group-31" transform="translate(3.000000, 0.000000)">
                    <g id="Group-30" transform="translate(852.000000, 68.000000)">
                        <g id="Group-7" transform="translate(69.000000, 0.000000)">
                            <g id="heart-(2)">
                                <g id="Group" transform="translate(12.467836, 90.376712)" fill="#5D6D7D">
                                    <path d="M8.692,12.8162329 L2.12169006,12.8162329 C1.06695906,12.8162329 0.211953216,11.9613699 0.211953216,10.9068151 L0.211953216,0.0309246575 L10.6017368,0.0309246575 L10.6017368,10.9068151 C10.6017368,11.9613699 9.74673099,12.8162329 8.692,12.8162329 Z" id="Shape"></path>
                                    <path d="M95.7028713,12.8162329 L89.1323216,12.8162329 C88.0775906,12.8162329 87.2225848,11.9613699 87.2225848,10.9068151 L87.2225848,0.0309246575 L97.6123685,0.0309246575 L97.6123684,10.9068151 C97.6126082,11.9613699 96.7576023,12.8162329 95.7028713,12.8162329 Z" id="Shape"></path>
                                </g>
                                <path d="M117.523263,95.1038699 L5.23697076,95.1038699 C3.33778363,95.1038699 1.79824561,93.564589 1.79824561,91.6657192 L1.79824561,5.24520548 C1.79824561,3.34633562 3.33778363,1.80705479 5.23697076,1.80705479 L117.523263,1.80705479 C119.42245,1.80705479 120.961988,3.34633562 120.961988,5.24520548 L120.961988,91.6657192 C120.961988,93.564589 119.42245,95.1038699 117.523263,95.1038699 Z" id="Shape" fill="#E1EFFB"></path>
                                <path d="M117.523263,1.80705479 L109.293292,1.80705479 L109.293292,95.1038699 L117.523263,95.1038699 C119.42245,95.1038699 120.961988,93.564589 120.961988,91.6657192 L120.961988,5.24520548 C120.961988,3.34633562 119.42245,1.80705479 117.523263,1.80705479 Z" id="Shape" fill="#BACED8"></path>
                                <path d="M9.84095906,75.4906849 L9.84095906,10.8286644 C9.84095906,10.287363 10.2799708,9.84842466 10.8213626,9.84842466 L111.939111,9.84842466 C112.480503,9.84842466 112.919515,10.287363 112.919515,10.8286644 L112.919515,75.4904452 C112.919515,76.0317466 112.480503,76.4706849 111.939111,76.4706849 L10.8213626,76.4706849 C10.2799708,76.4706849 9.84095906,76.0317466 9.84095906,75.4906849 Z" id="Shape" fill="#24D9DE"></path>
                                <path d="M111.939111,9.84842466 L101.130936,9.84842466 L101.130936,76.4706849 L111.939111,76.4706849 C112.480503,76.4706849 112.919515,76.0317466 112.919515,75.4904452 L112.919515,10.8286644 C112.919275,10.287363 112.480503,9.84842466 111.939111,9.84842466 Z" id="Shape" fill="#11B9C1"></path>
                                <path d="M100.895485,17.8761301 C97.9708187,16.9953767 96.1591462,18.9129452 95.2650585,19.8766438 C94.3709708,18.9129452 92.5592982,16.9953767 89.6346316,17.8761301 C85.3787836,19.1577055 85.4051579,25.7866096 92.569848,30.4591096 C93.4162222,31.0111986 94.7567544,31.7754452 95.1945673,32.0273973 L95.3357895,32.0273973 C95.7736023,31.7754452 97.1141345,31.0111986 97.9605088,30.4591096 C105.125199,25.7868493 105.151333,19.1579452 100.895485,17.8761301 Z" id="Shape" fill="#F44335"></path>
                                <ellipse id="Oval" fill="#FFB123" cx="107.105906" cy="85.8746575" rx="3.63245614" ry="3.63184932"></ellipse>
                                <path d="M22.0584795,47.6841438 L35.2988421,47.6841438 L43.6295146,56.0134247 C44.3819006,56.7656849 45.5032865,56.9883904 46.485848,56.5813356 C47.4686491,56.1742808 48.1037895,55.2240068 48.1037895,54.1603425 L48.1037895,40.3933562 L54.9244152,47.1514726 C55.4185731,47.6412329 56.073614,47.9109247 56.769655,47.9109247 L65.2214094,47.9109247 L73.3480409,56.0359589 C73.8508304,56.5384247 74.5178596,56.8047603 75.1985556,56.8047603 C75.5368655,56.8047603 75.8782924,56.7390753 76.2043743,56.6038699 C77.1874152,56.1968151 77.8223158,55.2465411 77.8223158,54.1828767 L77.8223158,40.1886301 L85.4420819,47.2267466 C85.9276082,47.675274 86.559152,47.9221918 87.2204269,47.9221918 L100.701754,47.9221918 C101.695105,47.9221918 102.5,47.1171918 102.5,46.1242466 C102.5,45.1313014 101.695105,44.3263014 100.701754,44.3263014 L87.601655,44.3263014 L78.6248129,36.0346575 C77.8599591,35.3284247 76.748883,35.1414384 75.7955731,35.5590411 C74.8415439,35.9764041 74.225345,36.9187671 74.225345,37.9596575 L74.225345,51.8282877 L67.4785673,45.082637 C66.9834503,44.5876027 66.3250526,44.3150342 65.6254152,44.3150342 L57.1710234,44.3150342 L48.9729415,36.1919178 C48.219117,35.4449315 47.0994094,35.2263014 46.1194854,35.6345548 C45.1400409,36.0428082 44.5070585,36.992363 44.5070585,38.0531507 L44.5070585,51.8055137 L37.556,44.8556164 C37.0611228,44.3608219 36.4027251,44.0880137 35.702848,44.0880137 L22.0584795,44.0880137 C21.0653684,44.0880137 20.2602339,44.8930137 20.2602339,45.8859589 C20.2602339,46.8789041 21.0653684,47.6841438 22.0584795,47.6841438 Z" id="Shape" fill="#000000"></path>
                                <path d="M71.909924,84.0759932 L40.0409357,84.0759932 C39.0478246,84.0759932 38.2426901,84.8809932 38.2426901,85.8739384 C38.2426901,86.8668836 39.0478246,87.6718836 40.0409357,87.6718836 L71.909924,87.6718836 C72.9032749,87.6718836 73.7081696,86.8668836 73.7081696,85.8739384 C73.7081696,84.8809932 72.9032749,84.0759932 71.909924,84.0759932 Z" id="Shape" fill="#000000"></path>
                                <path d="M84.9570351,84.0759932 L80.3017368,84.0759932 C79.308386,84.0759932 78.5034912,84.8809932 78.5034912,85.8739384 C78.5034912,86.8668836 79.308386,87.6718836 80.3017368,87.6718836 L84.9570351,87.6718836 C85.950386,87.6718836 86.7552807,86.8668836 86.7552807,85.8739384 C86.7552807,84.8809932 85.950386,84.0759932 84.9570351,84.0759932 Z" id="Shape" fill="#000000"></path>
                                <path d="M117.523263,0.00910958904 L5.23697076,0.00910958904 C2.34922807,0.00910958904 0,2.35794521 0,5.24520548 L0,91.6657192 C0,94.5527397 2.34922807,96.9018151 5.23697076,96.9018151 L10.8815439,96.9018151 L10.8815439,101.283527 C10.8815439,103.327671 12.5450409,104.99089 14.5895263,104.99089 L21.160076,104.99089 C23.2045614,104.99089 24.8680585,103.327671 24.8680585,101.283527 L24.8680585,96.9018151 L97.892655,96.9018151 L97.892655,101.283527 C97.892655,103.327671 99.556152,104.99089 101.600637,104.99089 L108.170947,104.99089 C110.215433,104.99089 111.87893,103.327671 111.87893,101.283527 L111.87893,96.9018151 L117.523503,96.9018151 C120.411246,96.9018151 122.760474,94.5529795 122.760474,91.6657192 L122.760474,5.24520548 C122.760234,2.35794521 120.411006,0.00910958904 117.523263,0.00910958904 Z M21.2713275,101.283527 C21.2713275,101.344897 21.2214561,101.395 21.1598363,101.395 L14.5895263,101.395 C14.5281462,101.395 14.4780351,101.345137 14.4780351,101.283527 L14.4780351,96.9018151 L21.2713275,96.9018151 C21.2713275,96.9018151 21.2713275,101.283527 21.2713275,101.283527 Z M108.282199,101.283527 C108.282199,101.344897 108.232088,101.395 108.170708,101.395 L101.600398,101.395 C101.539018,101.395 101.488906,101.345137 101.488906,101.283527 L101.488906,96.9018151 L108.282199,96.9018151 L108.282199,101.283527 Z M119.163743,91.6659589 C119.163743,92.5702055 118.427901,93.3061644 117.523263,93.3061644 L5.23697076,93.3061644 C4.3325731,93.3061644 3.59649123,92.5704452 3.59649123,91.6659589 L3.59649123,5.24520548 C3.59649123,4.3409589 4.33233333,3.605 5.23697076,3.605 L117.523263,3.605 C118.427661,3.605 119.163743,4.34071918 119.163743,5.24520548 L119.163743,91.6659589 Z" id="Shape" fill="#000000"></path>
                                <path d="M111.938871,8.05047945 L26.5739942,8.05047945 C25.580883,8.05047945 24.7757485,8.85547945 24.7757485,9.84842466 C24.7757485,10.8413699 25.580883,11.6463699 26.5739942,11.6463699 L111.121029,11.6463699 L111.121029,74.6727397 L11.6392047,74.6727397 L11.6392047,11.6463699 L18.1821813,11.6463699 C19.1752924,11.6463699 19.9804269,10.8413699 19.9804269,9.84842466 C19.9804269,8.85547945 19.1752924,8.05047945 18.1821813,8.05047945 L10.8213626,8.05047945 C9.28925731,8.05047945 8.04295322,9.29681507 8.04295322,10.8286644 L8.04295322,75.4904452 C8.04295322,77.0222945 9.28949708,78.2686301 10.8213626,78.2686301 L111.938871,78.2686301 C113.470977,78.2686301 114.71752,77.0222945 114.71752,75.4904452 L114.71752,10.8286644 C114.71752,9.29681507 113.470977,8.05047945 111.938871,8.05047945 Z" id="Shape" fill="#000000"></path>
                                <path d="M91.5872865,31.9650685 C92.4116023,32.5025342 93.6523918,33.2152397 94.1822749,33.5196918 L94.2973626,33.5856164 C94.5702164,33.742637 94.8795146,33.8253425 95.1940877,33.8253425 L95.3355497,33.8253425 C95.6503626,33.8253425 95.9596608,33.742637 96.2322749,33.5856164 L96.3473626,33.5196918 C96.8772456,33.2152397 98.1182749,32.5025342 98.9423509,31.9650685 C104.435632,28.3828425 105.937047,23.9344863 105.510743,20.9664384 C105.174351,18.6247945 103.642725,16.8261301 101.41386,16.1548973 C98.6332924,15.3172945 96.5792164,16.3464384 95.2648187,17.3969178 C93.9506608,16.3464384 91.8958655,15.3175342 89.1157778,16.1548973 C86.8869123,16.8261301 85.3552865,18.6247945 85.0188947,20.9664384 C84.5925906,23.9344863 86.0940058,28.3826027 91.5872865,31.9650685 Z M88.5789415,21.477774 C88.6750877,20.8075 89.026345,19.9370548 90.1530058,19.5978425 C90.4932339,19.4954795 90.8073275,19.4489726 91.0996023,19.4489726 C92.2965146,19.4489726 93.1344971,20.2242466 93.9465848,21.0994863 C94.2868129,21.4662671 94.7644269,21.674589 95.2648187,21.674589 C95.7652105,21.674589 96.2428246,21.4662671 96.5830526,21.0994863 C97.5939064,20.010411 98.6443216,19.0759589 100.376632,19.5976027 C101.503053,19.9370548 101.85455,20.8072603 101.950696,21.4775342 C102.207006,23.2625342 101.058526,26.2917123 96.9774678,28.9531507 C96.491462,29.2703082 95.8141228,29.672089 95.2645789,29.9918836 C94.7150351,29.6718493 94.0379357,29.2700685 93.5516901,28.9531507 C89.4708713,26.2917123 88.3223918,23.262774 88.5789415,21.477774 Z" id="Shape" fill="#000000"></path>
                                <path d="M107.107105,80.4443836 C104.112667,80.4443836 101.676643,82.88 101.676643,85.8739384 C101.676643,88.8678767 104.112667,91.3034932 107.107105,91.3034932 C110.101304,91.3034932 112.537327,88.8678767 112.537327,85.8739384 C112.537327,82.88 110.101304,80.4443836 107.107105,80.4443836 Z M107.107105,87.7076027 C106.095772,87.7076027 105.273135,86.8851027 105.273135,85.8739384 C105.273135,84.862774 106.096012,84.040274 107.107105,84.040274 C108.118199,84.040274 108.940836,84.862774 108.940836,85.8739384 C108.940836,86.8851027 108.118439,87.7076027 107.107105,87.7076027 Z" id="Shape" fill="#000000"></path>
                            </g>
                        </g>
                    </g>
                </g>
            </g>
        </g>
    </g>
</svg>