<?xml version="1.0" encoding="UTF-8"?>
<svg width="188px" height="203px" viewBox="0 0 188 203" version="1.1" xmlns="http://www.w3.org/2000/svg" xmlns:xlink="http://www.w3.org/1999/xlink">
    <!-- Generator: Sketch 51.1 (57501) - http://www.bohemiancoding.com/sketch -->
    <title>improve_planning</title>
    <desc>Created with Sketch.</desc>
    <defs></defs>
    <g id="Page-1" stroke="none" stroke-width="1" fill="none" fill-rule="evenodd">
        <g id="healthcare_industry" transform="translate(-435.000000, -2772.000000)" fill-rule="nonzero">
            <g id="Group-80" transform="translate(240.000000, 861.000000)">
                <g id="Group-31" transform="translate(28.000000, 1833.000000)">
                    <g id="Group-77">
                        <g id="Group-52">
                            <g id="improve_planning" transform="translate(167.000000, 78.000000)">
                                <path d="M77,197.81309 L111.986269,197.81309 L111.986269,184.084973 C111.986269,182.983127 111.986269,179.990427 111.986269,175.106871 L77,175.106871 L77,197.81309 Z" id="Shape" fill="#B1DDC8"></path>
                                <path d="M185.987207,149 L4,149 L4,161.530548 C4,167.141639 8.18694185,171.706219 13.33289,171.706219 L176.654317,171.706219 C181.800265,171.706219 185.987207,167.141639 185.987207,161.530548 L185.987207,149 Z" id="Shape" fill="#DCFAEC"></path>
                                <path d="M3,145 L184,145 L184,53.3464671 C184,48.1926174 179.835771,44 174.717737,44 L12.2822628,44 C7.16422938,44 3,48.1926174 3,53.3464671 L3,145 Z" id="Shape" fill="#FFFFFF"></path>
                                <path d="M172.863795,40.0977616 L15.0319829,40.0977616 C6.74314712,40.0977616 0,46.8101898 0,55.0612652 L0,160.143367 C0,168.394443 6.74314712,175.106871 15.0319829,175.106871 L72.903113,175.106871 L72.903113,197.81309 L59.8753945,197.81309 C58.214661,197.81309 56.7717285,198.428652 56.7717285,200.081421 C56.7717285,201.73419 58.214661,202.217041 59.8753945,202.217041 L128.020384,202.217041 C129.681117,202.217041 130.929511,201.73419 130.929511,200.081421 C130.929511,198.428652 129.681117,197.81309 128.020384,197.81309 L113.606689,197.81309 L113.606689,184.084973 C113.606689,182.432204 112.946134,181.426025 111.2854,181.426025 C109.624667,181.426025 108.979872,182.432204 108.979872,184.084973 L108.979872,197.81309 L77.597168,197.81309 L77.597168,175.106871 L172.863795,175.106871 C181.152631,175.106871 187.895778,168.394443 187.895778,160.143367 L187.895778,55.0612652 C187.895778,46.8101898 181.152631,40.0977616 172.863795,40.0977616 Z M172.863795,170.414307 L15.0319829,170.414307 C8.57666016,170.414307 4.66455078,165.094092 4.66455078,160.143367 L4.66455078,149.087533 L183.409668,149.087533 L183.409668,160.143367 C183.409668,165.094092 179.797852,170.414307 172.863795,170.414307 Z M15.0319829,45.3317871 L172.863795,45.3317871 C179.975098,44.677002 183.409668,50.1105401 183.409668,55.0612652 L183.409668,144.461914 L4.66455078,144.461914 L4.66455078,55.0612652 C4.66455078,50.1105401 7.95019531,45.3317871 15.0319829,45.3317871 Z" id="Shape" fill="#000000"></path>
                                <path d="M27.25,146.75 L164.75,146.75 L164.75,8 C164.75,4.82436269 162.175637,2.25 159,2.25 L33,2.25 C29.8243627,2.25 27.25,4.82436269 27.25,8 L27.25,146.75 Z" id="Rectangle-11" stroke="#000000" stroke-width="4.5" fill="#FFFFFF"></path>
                                <g id="diagram-(4)" transform="translate(37.000000, 18.000000)">
                                    <polygon id="Shape" fill="#04494B" points="9.58385742 93.9163672 23.0002246 93.9163672 23.0002246 105.416143 9.58385742 105.416143"></polygon>
                                    <polygon id="Shape" fill="#05676A" points="30.6668164 88.1663672 44.0831836 88.1663672 44.0831836 105.416143 30.6668164 105.416143"></polygon>
                                    <polygon id="Shape" fill="#0A8084" points="51.7497754 78.5831836 65.1661426 78.5831836 65.1661426 105.416143 51.7497754 105.416143 51.7497754 78.5831836"></polygon>
                                    <polygon id="Shape" fill="#11A0A4" points="72.8327344 65.1668164 86.2491016 65.1668164 86.2491016 105.416143 72.8327344 105.416143"></polygon>
                                    <polygon id="Shape" fill="#24D9DE" points="93.9156934 38.3338574 107.332061 38.3338574 107.332061 105.416143 93.9156934 105.416143"></polygon>
                                    <polygon id="Shape" fill="#F44335" points="9.58385742 11.501123 34.5 11.501123 34.5 15.3343066 9.58385742 15.3343066"></polygon>
                                    <polygon id="Shape" fill="#F88E85" points="9.58385742 19.1674902 34.5 19.1674902 34.5 23.0006738 9.58385742 23.0006738"></polygon>
                                    <polygon id="Shape" fill="#F44335" points="9.58385742 26.834082 26.8336328 26.834082 26.8336328 30.6672656 9.58385742 30.6672656"></polygon>
                                    <polygon id="Shape" fill="#F88E85" points="9.58385742 34.5006738 26.8336328 34.5006738 26.8336328 38.3338574 9.58385742 38.3338574"></polygon>
                                    <polygon id="Shape" fill="#000000" points="0.000673828125 111.166143 114.998652 111.166143 114.998652 114.999326 0.000673828125 114.999326"></polygon>
                                    <path d="M98.8011719,15.6678516 L101.894717,6.82834961 L107.533535,18.1077832 C108.007012,19.0545117 109.158809,19.4399414 110.105762,18.9664648 C111.052715,18.4929883 111.43792,17.3411914 110.964443,16.3942383 L103.297627,1.06105469 C102.82415,0.114326172 101.67415,-0.271103516 100.727422,0.202373047 C100.727422,0.202373047 100.727422,0.202373047 100.7254,0.202373047 L85.3922168,7.86896484 C84.4454883,8.34244141 84.0600586,9.49423828 84.5335352,10.4411914 C85.0070117,11.3881445 86.1588086,11.7733496 87.1057617,11.299873 L98.2106738,5.75112305 L95.1804687,14.4028516 C81.8620312,52.3348828 47.5581152,78.9454785 7.50419922,82.4165918 L7.83010742,86.2497754 C49.3922754,82.6483887 84.9879199,55.031543 98.8011719,15.6678516 Z" id="Shape" fill="#000000"></path>
                                    <path d="M9.58385742,91.9997754 C8.52594727,91.9997754 7.66726562,92.858457 7.66726562,93.9163672 L7.66726562,105.416143 C7.66726562,106.474053 8.52594727,107.332734 9.58385742,107.332734 L23.0002246,107.332734 C24.0581348,107.332734 24.9168164,106.474053 24.9168164,105.416143 L24.9168164,93.9163672 C24.9168164,92.858457 24.0581348,91.9997754 23.0002246,91.9997754 L9.58385742,91.9997754 Z M21.0836328,103.499551 L11.5004492,103.499551 L11.5004492,95.832959 L21.0836328,95.832959 L21.0836328,103.499551 Z" id="Shape" fill="#000000"></path>
                                    <path d="M30.6668164,86.2497754 C29.6089062,86.2497754 28.7502246,87.108457 28.7502246,88.1663672 L28.7502246,105.416143 C28.7502246,106.474053 29.6089063,107.332734 30.6668164,107.332734 L44.0831836,107.332734 C45.1410938,107.332734 45.9997754,106.474053 45.9997754,105.416143 L45.9997754,88.1663672 C45.9997754,87.108457 45.1410937,86.2497754 44.0831836,86.2497754 L30.6668164,86.2497754 Z M42.1665918,103.499551 L32.5834082,103.499551 L32.5834082,90.0831836 L42.1665918,90.0831836 L42.1665918,103.499551 Z" id="Shape" fill="#000000"></path>
                                    <path d="M51.7497754,76.6665918 C50.6918652,76.6665918 49.8331836,77.5252734 49.8331836,78.5831836 L49.8331836,105.416143 C49.8331836,106.474053 50.6918652,107.332734 51.7497754,107.332734 L65.1661426,107.332734 C66.2240527,107.332734 67.0827344,106.474053 67.0827344,105.416143 L67.0827344,78.5831836 C67.0827344,77.5252734 66.2240527,76.6665918 65.1661426,76.6665918 L51.7497754,76.6665918 Z M63.2495508,103.499551 L53.6663672,103.499551 L53.6663672,80.4997754 L63.2495508,80.4997754 L63.2495508,103.499551 Z" id="Shape" fill="#000000"></path>
                                    <path d="M72.8327344,63.2502246 C71.7748242,63.2502246 70.9161426,64.1089063 70.9161426,65.1668164 L70.9161426,105.416143 C70.9161426,106.474053 71.7748242,107.332734 72.8327344,107.332734 L86.2491016,107.332734 C87.3070117,107.332734 88.1656934,106.474053 88.1656934,105.416143 L88.1656934,65.1668164 C88.1656934,64.1089063 87.3070117,63.2502246 86.2491016,63.2502246 L72.8327344,63.2502246 Z M84.3325098,103.499551 L74.7493262,103.499551 L74.7493262,67.0834082 L84.3325098,67.0834082 L84.3325098,103.499551 Z" id="Shape" fill="#000000"></path>
                                    <path d="M93.9156934,36.4172656 C92.8577832,36.4172656 91.9991016,37.2759473 91.9991016,38.3338574 L91.9991016,105.416143 C91.9991016,106.474053 92.8577832,107.332734 93.9156934,107.332734 L107.332061,107.332734 C108.389971,107.332734 109.248652,106.474053 109.248652,105.416143 L109.248652,38.3338574 C109.248652,37.2759473 108.389971,36.4172656 107.332061,36.4172656 L93.9156934,36.4172656 Z M105.415469,103.499551 L95.8322852,103.499551 L95.8322852,40.2504492 L105.415469,40.2504492 L105.415469,103.499551 Z" id="Shape" fill="#000000"></path>
                                </g>
                            </g>
                        </g>
                    </g>
                </g>
            </g>
        </g>
    </g>
</svg>