<?xml version="1.0" encoding="UTF-8"?>
<svg width="381px" height="272px" viewBox="0 0 381 272" version="1.1" xmlns="http://www.w3.org/2000/svg" xmlns:xlink="http://www.w3.org/1999/xlink">
    <!-- Generator: Sketch 51.1 (57501) - http://www.bohemiancoding.com/sketch -->
    <title>locate_resources</title>
    <desc>Created with Sketch.</desc>
    <defs></defs>
    <g id="Page-1" stroke="none" stroke-width="1" fill="none" fill-rule="evenodd">
        <g id="healthcare_industry" transform="translate(-1194.000000, -2198.000000)">
            <g id="Group-80" transform="translate(240.000000, 861.000000)">
                <g id="Group-31" transform="translate(4.000000, 1172.000000)">
                    <g id="Group-30" transform="translate(851.000000, 0.000000)">
                        <g id="locate_resources" transform="translate(290.000000, 300.500000) rotate(-90.000000) translate(-290.000000, -300.500000) translate(154.000000, 110.000000)">
                            <rect id="Rectangle-12" fill="#DCFAEC" x="3.45599984" y="3.45599984" width="263.519988" height="373.247983" rx="3.45599984"></rect>
                            <rect id="Rectangle-12" stroke="#000000" stroke-width="5" x="2.5" y="2.5" width="265.431987" height="375.159982" rx="6.91199968"></rect>
                            <g id="Group-33" transform="translate(3.456000, 19.728001)">
                                <g id="Group-32" transform="translate(241.919989, 323.279983)">
                                    <circle id="Oval-3" stroke="#FF928A" stroke-width="1.72799992" cx="7.77599964" cy="7.77599964" r="7.77599964"></circle>
                                    <circle id="Oval-3" fill="#F44335" cx="7.77599964" cy="7.77599964" r="6.04799972"></circle>
                                </g>
                                <g id="Group-32" transform="translate(19.007999, 191.087990)">
                                    <circle id="Oval-3" stroke="#FF928A" stroke-width="1.72799992" cx="7.77599964" cy="7.77599964" r="7.77599964"></circle>
                                    <circle id="Oval-3" fill="#F44335" cx="7.77599964" cy="7.77599964" r="6.04799972"></circle>
                                </g>
                                <text id="Ward-1" transform="translate(133.487994, 110.367994) rotate(-270.000000) translate(-133.487994, -110.367994) " font-family="OpenSans-Bold, Open Sans" font-size="15.5519993" font-weight="bold" line-spacing="19.8719991" fill="#000000">
                                    <tspan x="106.487994" y="117.367994">Ward 1</tspan>
                                </text>
                                <text id="Ward-2" transform="translate(133.487994, 305.631985) rotate(-270.000000) translate(-133.487994, -305.631985) " font-family="OpenSans-Bold, Open Sans" font-size="15.5519993" font-weight="bold" line-spacing="19.8719991" fill="#000000">
                                    <tspan x="106.487994" y="312.631985">Ward 2</tspan>
                                </text>
                                <g id="bed-(2)" transform="translate(160.000000, 0.000000)" fill-rule="nonzero">
                                    <path d="M65.1574569,15.849875 C65.1574569,11.7423984 61.7872995,8.38170313 57.6678579,8.38170313 L13.3319619,8.38170313 C9.21270051,8.38170313 5.84236294,11.7422188 5.84236294,15.849875 L5.84236294,76.6372578 C5.84236294,80.7447344 9.2125203,84.10525 13.3319619,84.10525 L57.6676777,84.10525 C61.7869391,84.10525 65.1572766,80.7447344 65.1572766,76.6372578 L65.1574569,15.849875 Z" id="Shape" fill="#E4E4E4"></path>
                                    <g id="Group" transform="translate(10.271574, 12.039062)" fill="#FFFFFF">
                                        <path d="M21.4573173,9.51786719 C21.4573173,11.0901328 20.1672437,12.3765156 18.590467,12.3765156 L2.91730711,12.3765156 C1.34053046,12.3765156 0.0504568528,11.0901328 0.0504568528,9.51786719 L0.0504568528,3.03761719 C0.0504568528,1.46535156 1.34053046,0.17896875 2.91730711,0.17896875 L18.590467,0.17896875 C20.1672437,0.17896875 21.4573173,1.46535156 21.4573173,3.03761719 L21.4573173,9.51786719 Z" id="Shape"></path>
                                        <path d="M28.9995355,9.51786719 C28.9995355,11.0901328 30.2896091,12.3765156 31.8663858,12.3765156 L47.5395457,12.3765156 C49.1163223,12.3765156 50.4063959,11.0901328 50.4063959,9.51786719 L50.4063959,3.03761719 C50.4063959,1.46535156 49.1163223,0.17896875 47.5395457,0.17896875 L31.8663858,0.17896875 C30.2896091,0.17896875 28.9995355,1.46535156 28.9995355,3.03761719 L28.9995355,9.51786719 Z" id="Shape"></path>
                                    </g>
                                    <path d="M5.84254315,35.8999453 L5.84254315,76.6374375 C5.84254315,80.7449141 9.21270051,84.1054297 13.3321421,84.1054297 L57.6678579,84.1054297 C61.7871193,84.1054297 65.1574569,80.7449141 65.1574569,76.6374375 L65.1574569,35.8999453 L5.84254315,35.8999453 Z" id="Shape" fill="#24D9DE"></path>
                                    <rect id="Rectangle-path" fill="#6FD1E6" x="5.84290355" y="35.9003047" width="59.3140127" height="5.77533594"></rect>
                                    <rect id="Rectangle-path" fill="#9A6B58" x="9.06187056" y="84.10525" width="52.8742766" height="6.42095313"></rect>
                                    <g id="Group" transform="translate(5.766497, 84.093750)" fill="#B28978">
                                        <ellipse id="Oval" cx="3.2953731" cy="3.22125781" rx="3.21968782" ry="3.21047656"></ellipse>
                                        <ellipse id="Oval" cx="56.171632" cy="3.22125781" rx="3.21968782" ry="3.21047656"></ellipse>
                                    </g>
                                    <rect id="Rectangle-path" fill="#9A6B58" x="5.09037563" y="1.47325781" width="60.8190685" height="6.908625"></rect>
                                    <g id="Group" transform="translate(1.621827, 1.437500)" fill="#B28978">
                                        <ellipse id="Oval" cx="3.46854822" cy="3.49096875" rx="3.46422335" ry="3.4543125"></ellipse>
                                        <ellipse id="Oval" cx="64.287797" cy="3.49096875" rx="3.46422335" ry="3.4543125"></ellipse>
                                    </g>
                                    <path d="M65.969632,37.7460547 C65.969632,38.2640937 65.544533,38.6877969 65.0250076,38.6877969 L5.97481218,38.6877969 C5.4552868,38.6877969 5.03018782,38.2640937 5.03018782,37.7460547 L5.03018782,29.0746953 C5.03018782,28.5564766 5.4552868,28.1327734 5.97481218,28.1327734 L65.0251878,28.1327734 C65.5447132,28.1327734 65.9698122,28.5564766 65.9698122,29.0746953 L65.9698122,37.7460547 L65.969632,37.7460547 Z" id="Shape" fill="#1C7C96"></path>
                                    <path d="M70.8506117,4.92757031 C70.8506117,2.21051563 68.633934,0 65.9089036,0 L5.09109645,0 C2.36588579,0 0.149388325,2.21051563 0.149388325,4.92757031 C0.149388325,7.644625 2.36606599,9.85514063 5.09109645,9.85514063 C5.80794416,9.85514063 6.48911168,9.70096875 7.10468528,9.42586719 C5.41744416,11.0527578 4.36541878,13.3306563 4.36541878,15.8500547 L4.36541878,27.2753047 C3.86841878,27.717875 3.55324365,28.3595391 3.55324365,29.074875 L3.55324365,37.7462344 C3.55324365,38.4613906 3.86841878,39.1030547 4.36541878,39.545625 L4.36541878,76.6374375 C4.36541878,79.1564766 5.41726396,81.4340156 7.10360406,83.0607266 C5.48916497,83.8026563 4.36541878,85.4304453 4.36541878,87.3160859 C4.36541878,89.8987344 6.47253299,92 9.06259137,92 L61.937769,92 C64.5278274,92 66.6349416,89.8987344 66.6349416,87.3160859 C66.6349416,85.4302656 65.5110152,83.8026563 63.8967563,83.0607266 C65.5834569,81.4340156 66.6349416,79.1566563 66.6349416,76.6374375 L66.6349416,39.5454453 C67.1319416,39.102875 67.447297,38.4612109 67.447297,37.7460547 L67.447297,29.0746953 C67.447297,28.3595391 67.1321218,27.7176953 66.6349416,27.275125 L66.6349416,15.849875 C66.6349416,13.3304766 65.582736,11.0525781 63.8956751,9.4256875 C64.5110685,9.70060938 65.1920558,9.85496094 65.909264,9.85496094 C68.633934,9.85514063 70.8506117,7.644625 70.8506117,4.92757031 Z M5.09109645,6.908625 C3.99564213,6.908625 3.10435787,6.01989063 3.10435787,4.92757031 C3.10435787,3.83525 3.99564213,2.94651562 5.09109645,2.94651562 C6.18673096,2.94651562 7.07801523,3.83525 7.07801523,4.92757031 C7.07765482,6.01989063 6.18655076,6.908625 5.09109645,6.908625 Z M9.61419289,2.94651562 L61.3854467,2.94651562 C61.1171244,3.55314063 60.9670152,4.22319531 60.9670152,4.92757031 C60.9670152,6.13542969 61.4059898,7.24248437 62.1318477,8.1003125 C60.8163655,7.34364844 59.2923883,6.908625 57.6676777,6.908625 L13.3319619,6.908625 C11.7070711,6.908625 10.1832741,7.34400781 8.86779188,8.1003125 C9.59401015,7.24230469 10.0326244,6.13542969 10.0326244,4.92757031 C10.0326244,4.22319531 9.88251523,3.55314063 9.61419289,2.94651562 Z M7.32002792,15.849875 C7.32002792,12.5443438 10.0169467,9.85496094 13.3321421,9.85496094 L57.6678579,9.85496094 C60.9828731,9.85496094 63.6799721,12.5441641 63.6799721,15.849875 L63.6799721,26.6595156 L7.32002792,26.6595156 L7.32002792,15.849875 Z M9.06223096,89.0534844 C8.10138832,89.0534844 7.32002792,88.274 7.32002792,87.3160859 C7.32002792,86.3581719 8.10156853,85.5788672 9.06223096,85.5788672 C10.0228934,85.5788672 10.8046142,86.3581719 10.8046142,87.3160859 C10.8046142,88.274 10.0230736,89.0534844 9.06223096,89.0534844 Z M13.4233249,89.0534844 C13.6395685,88.5158594 13.759764,87.9298984 13.759764,87.3160859 C13.759764,86.7024531 13.6395685,86.1164922 13.4233249,85.5788672 L57.5766751,85.5788672 C57.3606117,86.1164922 57.240236,86.7024531 57.240236,87.3160859 C57.240236,87.9297188 57.3604315,88.5156797 57.5766751,89.0534844 L13.4233249,89.0534844 Z M61.9375888,89.0534844 C60.9767462,89.0534844 60.1952056,88.274 60.1952056,87.3160859 C60.1952056,86.3581719 60.9769264,85.5788672 61.9375888,85.5788672 C62.8982513,85.5788672 63.6797919,86.3581719 63.6797919,87.3160859 C63.6799721,88.274 62.8982513,89.0534844 61.9375888,89.0534844 Z M63.6799721,76.6374375 C63.6799721,79.9429688 60.9828731,82.6321719 57.6678579,82.6321719 L13.3319619,82.6321719 C10.0169467,82.6321719 7.31984772,79.9429688 7.31984772,76.6374375 L7.31984772,40.1610547 L63.6799721,40.1610547 L63.6797919,76.6374375 L63.6799721,76.6374375 Z M64.4921472,29.6062109 L64.4921472,37.2145391 L6.50767259,37.2145391 L6.50767259,29.6062109 L64.4921472,29.6062109 Z M63.9219848,4.92757031 C63.9219848,3.83525 64.813269,2.94651562 65.9089036,2.94651562 C67.0043579,2.94651562 67.8956421,3.83525 67.8956421,4.92757031 C67.8956421,6.01989063 67.0043579,6.908625 65.9089036,6.908625 C64.8134492,6.908625 63.9219848,6.01989063 63.9219848,4.92757031 Z M28.8620406,10.7447734 L13.1888807,10.7447734 C10.7934416,10.7447734 8.84454569,12.6880937 8.84454569,15.0766797 L8.84454569,21.5565703 C8.84454569,23.9451562 10.7934416,25.8884766 13.1888807,25.8884766 L28.8620406,25.8884766 C31.2574797,25.8884766 33.2063756,23.9451562 33.2063756,21.5565703 L33.2063756,15.0766797 C33.2063756,12.6880937 31.2574797,10.7447734 28.8620406,10.7447734 Z M30.2514061,21.5569297 C30.2514061,22.3207813 29.6280838,22.9423203 28.8620406,22.9423203 L13.1888807,22.9423203 C12.4228376,22.9423203 11.7995152,22.3207812 11.7995152,21.5569297 L11.7995152,15.0766797 C11.7995152,14.3128281 12.4228376,13.6912891 13.1888807,13.6912891 L28.8620406,13.6912891 C29.6280838,13.6912891 30.2514061,14.3128281 30.2514061,15.0766797 L30.2514061,21.5569297 Z M57.8111193,10.7447734 L42.1379594,10.7447734 C39.7425203,10.7447734 37.7936244,12.6880937 37.7936244,15.0766797 L37.7936244,21.5565703 C37.7936244,23.9451562 39.7425203,25.8884766 42.1379594,25.8884766 L57.8111193,25.8884766 C60.2065584,25.8884766 62.1554543,23.9451562 62.1554543,21.5565703 L62.1554543,15.0766797 C62.1556345,12.6880937 60.2067386,10.7447734 57.8111193,10.7447734 Z M59.200665,21.5569297 C59.200665,22.3207813 58.5773426,22.9423203 57.8112995,22.9423203 L42.1381396,22.9423203 C41.3720964,22.9423203 40.7487741,22.3207812 40.7487741,21.5569297 L40.7487741,15.0766797 C40.7487741,14.3128281 41.3720964,13.6912891 42.1381396,13.6912891 L57.8112995,13.6912891 C58.5773426,13.6912891 59.200665,14.3128281 59.200665,15.0766797 L59.200665,21.5569297 Z" id="Shape" fill="#1E252B"></path>
                                </g>
                                <g id="bed-(2)" transform="translate(31.000000, 0.000000)" fill-rule="nonzero">
                                    <path d="M65.1574569,15.849875 C65.1574569,11.7423984 61.7872995,8.38170313 57.6678579,8.38170313 L13.3319619,8.38170313 C9.21270051,8.38170313 5.84236294,11.7422188 5.84236294,15.849875 L5.84236294,76.6372578 C5.84236294,80.7447344 9.2125203,84.10525 13.3319619,84.10525 L57.6676777,84.10525 C61.7869391,84.10525 65.1572766,80.7447344 65.1572766,76.6372578 L65.1574569,15.849875 Z" id="Shape" fill="#E4E4E4"></path>
                                    <g id="Group" transform="translate(10.271574, 12.039062)" fill="#FFFFFF">
                                        <path d="M21.4573173,9.51786719 C21.4573173,11.0901328 20.1672437,12.3765156 18.590467,12.3765156 L2.91730711,12.3765156 C1.34053046,12.3765156 0.0504568528,11.0901328 0.0504568528,9.51786719 L0.0504568528,3.03761719 C0.0504568528,1.46535156 1.34053046,0.17896875 2.91730711,0.17896875 L18.590467,0.17896875 C20.1672437,0.17896875 21.4573173,1.46535156 21.4573173,3.03761719 L21.4573173,9.51786719 Z" id="Shape"></path>
                                        <path d="M28.9995355,9.51786719 C28.9995355,11.0901328 30.2896091,12.3765156 31.8663858,12.3765156 L47.5395457,12.3765156 C49.1163223,12.3765156 50.4063959,11.0901328 50.4063959,9.51786719 L50.4063959,3.03761719 C50.4063959,1.46535156 49.1163223,0.17896875 47.5395457,0.17896875 L31.8663858,0.17896875 C30.2896091,0.17896875 28.9995355,1.46535156 28.9995355,3.03761719 L28.9995355,9.51786719 Z" id="Shape"></path>
                                    </g>
                                    <path d="M5.84254315,35.8999453 L5.84254315,76.6374375 C5.84254315,80.7449141 9.21270051,84.1054297 13.3321421,84.1054297 L57.6678579,84.1054297 C61.7871193,84.1054297 65.1574569,80.7449141 65.1574569,76.6374375 L65.1574569,35.8999453 L5.84254315,35.8999453 Z" id="Shape" fill="#24D9DE"></path>
                                    <rect id="Rectangle-path" fill="#6FD1E6" x="5.84290355" y="35.9003047" width="59.3140127" height="5.77533594"></rect>
                                    <rect id="Rectangle-path" fill="#9A6B58" x="9.06187056" y="84.10525" width="52.8742766" height="6.42095313"></rect>
                                    <g id="Group" transform="translate(5.766497, 84.093750)" fill="#B28978">
                                        <ellipse id="Oval" cx="3.2953731" cy="3.22125781" rx="3.21968782" ry="3.21047656"></ellipse>
                                        <ellipse id="Oval" cx="56.171632" cy="3.22125781" rx="3.21968782" ry="3.21047656"></ellipse>
                                    </g>
                                    <rect id="Rectangle-path" fill="#9A6B58" x="5.09037563" y="1.47325781" width="60.8190685" height="6.908625"></rect>
                                    <g id="Group" transform="translate(1.621827, 1.437500)" fill="#B28978">
                                        <ellipse id="Oval" cx="3.46854822" cy="3.49096875" rx="3.46422335" ry="3.4543125"></ellipse>
                                        <ellipse id="Oval" cx="64.287797" cy="3.49096875" rx="3.46422335" ry="3.4543125"></ellipse>
                                    </g>
                                    <path d="M65.969632,37.7460547 C65.969632,38.2640937 65.544533,38.6877969 65.0250076,38.6877969 L5.97481218,38.6877969 C5.4552868,38.6877969 5.03018782,38.2640937 5.03018782,37.7460547 L5.03018782,29.0746953 C5.03018782,28.5564766 5.4552868,28.1327734 5.97481218,28.1327734 L65.0251878,28.1327734 C65.5447132,28.1327734 65.9698122,28.5564766 65.9698122,29.0746953 L65.9698122,37.7460547 L65.969632,37.7460547 Z" id="Shape" fill="#1C7C96"></path>
                                    <path d="M70.8506117,4.92757031 C70.8506117,2.21051563 68.633934,0 65.9089036,0 L5.09109645,0 C2.36588579,0 0.149388325,2.21051563 0.149388325,4.92757031 C0.149388325,7.644625 2.36606599,9.85514063 5.09109645,9.85514063 C5.80794416,9.85514063 6.48911168,9.70096875 7.10468528,9.42586719 C5.41744416,11.0527578 4.36541878,13.3306563 4.36541878,15.8500547 L4.36541878,27.2753047 C3.86841878,27.717875 3.55324365,28.3595391 3.55324365,29.074875 L3.55324365,37.7462344 C3.55324365,38.4613906 3.86841878,39.1030547 4.36541878,39.545625 L4.36541878,76.6374375 C4.36541878,79.1564766 5.41726396,81.4340156 7.10360406,83.0607266 C5.48916497,83.8026563 4.36541878,85.4304453 4.36541878,87.3160859 C4.36541878,89.8987344 6.47253299,92 9.06259137,92 L61.937769,92 C64.5278274,92 66.6349416,89.8987344 66.6349416,87.3160859 C66.6349416,85.4302656 65.5110152,83.8026563 63.8967563,83.0607266 C65.5834569,81.4340156 66.6349416,79.1566563 66.6349416,76.6374375 L66.6349416,39.5454453 C67.1319416,39.102875 67.447297,38.4612109 67.447297,37.7460547 L67.447297,29.0746953 C67.447297,28.3595391 67.1321218,27.7176953 66.6349416,27.275125 L66.6349416,15.849875 C66.6349416,13.3304766 65.582736,11.0525781 63.8956751,9.4256875 C64.5110685,9.70060938 65.1920558,9.85496094 65.909264,9.85496094 C68.633934,9.85514063 70.8506117,7.644625 70.8506117,4.92757031 Z M5.09109645,6.908625 C3.99564213,6.908625 3.10435787,6.01989063 3.10435787,4.92757031 C3.10435787,3.83525 3.99564213,2.94651562 5.09109645,2.94651562 C6.18673096,2.94651562 7.07801523,3.83525 7.07801523,4.92757031 C7.07765482,6.01989063 6.18655076,6.908625 5.09109645,6.908625 Z M9.61419289,2.94651562 L61.3854467,2.94651562 C61.1171244,3.55314063 60.9670152,4.22319531 60.9670152,4.92757031 C60.9670152,6.13542969 61.4059898,7.24248437 62.1318477,8.1003125 C60.8163655,7.34364844 59.2923883,6.908625 57.6676777,6.908625 L13.3319619,6.908625 C11.7070711,6.908625 10.1832741,7.34400781 8.86779188,8.1003125 C9.59401015,7.24230469 10.0326244,6.13542969 10.0326244,4.92757031 C10.0326244,4.22319531 9.88251523,3.55314063 9.61419289,2.94651562 Z M7.32002792,15.849875 C7.32002792,12.5443438 10.0169467,9.85496094 13.3321421,9.85496094 L57.6678579,9.85496094 C60.9828731,9.85496094 63.6799721,12.5441641 63.6799721,15.849875 L63.6799721,26.6595156 L7.32002792,26.6595156 L7.32002792,15.849875 Z M9.06223096,89.0534844 C8.10138832,89.0534844 7.32002792,88.274 7.32002792,87.3160859 C7.32002792,86.3581719 8.10156853,85.5788672 9.06223096,85.5788672 C10.0228934,85.5788672 10.8046142,86.3581719 10.8046142,87.3160859 C10.8046142,88.274 10.0230736,89.0534844 9.06223096,89.0534844 Z M13.4233249,89.0534844 C13.6395685,88.5158594 13.759764,87.9298984 13.759764,87.3160859 C13.759764,86.7024531 13.6395685,86.1164922 13.4233249,85.5788672 L57.5766751,85.5788672 C57.3606117,86.1164922 57.240236,86.7024531 57.240236,87.3160859 C57.240236,87.9297188 57.3604315,88.5156797 57.5766751,89.0534844 L13.4233249,89.0534844 Z M61.9375888,89.0534844 C60.9767462,89.0534844 60.1952056,88.274 60.1952056,87.3160859 C60.1952056,86.3581719 60.9769264,85.5788672 61.9375888,85.5788672 C62.8982513,85.5788672 63.6797919,86.3581719 63.6797919,87.3160859 C63.6799721,88.274 62.8982513,89.0534844 61.9375888,89.0534844 Z M63.6799721,76.6374375 C63.6799721,79.9429688 60.9828731,82.6321719 57.6678579,82.6321719 L13.3319619,82.6321719 C10.0169467,82.6321719 7.31984772,79.9429688 7.31984772,76.6374375 L7.31984772,40.1610547 L63.6799721,40.1610547 L63.6797919,76.6374375 L63.6799721,76.6374375 Z M64.4921472,29.6062109 L64.4921472,37.2145391 L6.50767259,37.2145391 L6.50767259,29.6062109 L64.4921472,29.6062109 Z M63.9219848,4.92757031 C63.9219848,3.83525 64.813269,2.94651562 65.9089036,2.94651562 C67.0043579,2.94651562 67.8956421,3.83525 67.8956421,4.92757031 C67.8956421,6.01989063 67.0043579,6.908625 65.9089036,6.908625 C64.8134492,6.908625 63.9219848,6.01989063 63.9219848,4.92757031 Z M28.8620406,10.7447734 L13.1888807,10.7447734 C10.7934416,10.7447734 8.84454569,12.6880937 8.84454569,15.0766797 L8.84454569,21.5565703 C8.84454569,23.9451562 10.7934416,25.8884766 13.1888807,25.8884766 L28.8620406,25.8884766 C31.2574797,25.8884766 33.2063756,23.9451562 33.2063756,21.5565703 L33.2063756,15.0766797 C33.2063756,12.6880937 31.2574797,10.7447734 28.8620406,10.7447734 Z M30.2514061,21.5569297 C30.2514061,22.3207813 29.6280838,22.9423203 28.8620406,22.9423203 L13.1888807,22.9423203 C12.4228376,22.9423203 11.7995152,22.3207812 11.7995152,21.5569297 L11.7995152,15.0766797 C11.7995152,14.3128281 12.4228376,13.6912891 13.1888807,13.6912891 L28.8620406,13.6912891 C29.6280838,13.6912891 30.2514061,14.3128281 30.2514061,15.0766797 L30.2514061,21.5569297 Z M57.8111193,10.7447734 L42.1379594,10.7447734 C39.7425203,10.7447734 37.7936244,12.6880937 37.7936244,15.0766797 L37.7936244,21.5565703 C37.7936244,23.9451562 39.7425203,25.8884766 42.1379594,25.8884766 L57.8111193,25.8884766 C60.2065584,25.8884766 62.1554543,23.9451562 62.1554543,21.5565703 L62.1554543,15.0766797 C62.1556345,12.6880937 60.2067386,10.7447734 57.8111193,10.7447734 Z M59.200665,21.5569297 C59.200665,22.3207813 58.5773426,22.9423203 57.8112995,22.9423203 L42.1381396,22.9423203 C41.3720964,22.9423203 40.7487741,22.3207812 40.7487741,21.5569297 L40.7487741,15.0766797 C40.7487741,14.3128281 41.3720964,13.6912891 42.1381396,13.6912891 L57.8112995,13.6912891 C58.5773426,13.6912891 59.200665,14.3128281 59.200665,15.0766797 L59.200665,21.5569297 Z" id="Shape" fill="#1E252B"></path>
                                </g>
                                <g id="bed-(2)" transform="translate(31.000000, 187.000000)" fill-rule="nonzero">
                                    <path d="M65.1574569,15.849875 C65.1574569,11.7423984 61.7872995,8.38170313 57.6678579,8.38170313 L13.3319619,8.38170313 C9.21270051,8.38170313 5.84236294,11.7422188 5.84236294,15.849875 L5.84236294,76.6372578 C5.84236294,80.7447344 9.2125203,84.10525 13.3319619,84.10525 L57.6676777,84.10525 C61.7869391,84.10525 65.1572766,80.7447344 65.1572766,76.6372578 L65.1574569,15.849875 Z" id="Shape" fill="#E4E4E4"></path>
                                    <g id="Group" transform="translate(10.271574, 12.039062)" fill="#FFFFFF">
                                        <path d="M21.4573173,9.51786719 C21.4573173,11.0901328 20.1672437,12.3765156 18.590467,12.3765156 L2.91730711,12.3765156 C1.34053046,12.3765156 0.0504568528,11.0901328 0.0504568528,9.51786719 L0.0504568528,3.03761719 C0.0504568528,1.46535156 1.34053046,0.17896875 2.91730711,0.17896875 L18.590467,0.17896875 C20.1672437,0.17896875 21.4573173,1.46535156 21.4573173,3.03761719 L21.4573173,9.51786719 Z" id="Shape"></path>
                                        <path d="M28.9995355,9.51786719 C28.9995355,11.0901328 30.2896091,12.3765156 31.8663858,12.3765156 L47.5395457,12.3765156 C49.1163223,12.3765156 50.4063959,11.0901328 50.4063959,9.51786719 L50.4063959,3.03761719 C50.4063959,1.46535156 49.1163223,0.17896875 47.5395457,0.17896875 L31.8663858,0.17896875 C30.2896091,0.17896875 28.9995355,1.46535156 28.9995355,3.03761719 L28.9995355,9.51786719 Z" id="Shape"></path>
                                    </g>
                                    <path d="M5.84254315,35.8999453 L5.84254315,76.6374375 C5.84254315,80.7449141 9.21270051,84.1054297 13.3321421,84.1054297 L57.6678579,84.1054297 C61.7871193,84.1054297 65.1574569,80.7449141 65.1574569,76.6374375 L65.1574569,35.8999453 L5.84254315,35.8999453 Z" id="Shape" fill="#24D9DE"></path>
                                    <rect id="Rectangle-path" fill="#6FD1E6" x="5.84290355" y="35.9003047" width="59.3140127" height="5.77533594"></rect>
                                    <rect id="Rectangle-path" fill="#9A6B58" x="9.06187056" y="84.10525" width="52.8742766" height="6.42095313"></rect>
                                    <g id="Group" transform="translate(5.766497, 84.093750)" fill="#B28978">
                                        <ellipse id="Oval" cx="3.2953731" cy="3.22125781" rx="3.21968782" ry="3.21047656"></ellipse>
                                        <ellipse id="Oval" cx="56.171632" cy="3.22125781" rx="3.21968782" ry="3.21047656"></ellipse>
                                    </g>
                                    <rect id="Rectangle-path" fill="#9A6B58" x="5.09037563" y="1.47325781" width="60.8190685" height="6.908625"></rect>
                                    <g id="Group" transform="translate(1.621827, 1.437500)" fill="#B28978">
                                        <ellipse id="Oval" cx="3.46854822" cy="3.49096875" rx="3.46422335" ry="3.4543125"></ellipse>
                                        <ellipse id="Oval" cx="64.287797" cy="3.49096875" rx="3.46422335" ry="3.4543125"></ellipse>
                                    </g>
                                    <path d="M65.969632,37.7460547 C65.969632,38.2640937 65.544533,38.6877969 65.0250076,38.6877969 L5.97481218,38.6877969 C5.4552868,38.6877969 5.03018782,38.2640937 5.03018782,37.7460547 L5.03018782,29.0746953 C5.03018782,28.5564766 5.4552868,28.1327734 5.97481218,28.1327734 L65.0251878,28.1327734 C65.5447132,28.1327734 65.9698122,28.5564766 65.9698122,29.0746953 L65.9698122,37.7460547 L65.969632,37.7460547 Z" id="Shape" fill="#1C7C96"></path>
                                    <path d="M70.8506117,4.92757031 C70.8506117,2.21051563 68.633934,0 65.9089036,0 L5.09109645,0 C2.36588579,0 0.149388325,2.21051563 0.149388325,4.92757031 C0.149388325,7.644625 2.36606599,9.85514063 5.09109645,9.85514063 C5.80794416,9.85514063 6.48911168,9.70096875 7.10468528,9.42586719 C5.41744416,11.0527578 4.36541878,13.3306563 4.36541878,15.8500547 L4.36541878,27.2753047 C3.86841878,27.717875 3.55324365,28.3595391 3.55324365,29.074875 L3.55324365,37.7462344 C3.55324365,38.4613906 3.86841878,39.1030547 4.36541878,39.545625 L4.36541878,76.6374375 C4.36541878,79.1564766 5.41726396,81.4340156 7.10360406,83.0607266 C5.48916497,83.8026563 4.36541878,85.4304453 4.36541878,87.3160859 C4.36541878,89.8987344 6.47253299,92 9.06259137,92 L61.937769,92 C64.5278274,92 66.6349416,89.8987344 66.6349416,87.3160859 C66.6349416,85.4302656 65.5110152,83.8026563 63.8967563,83.0607266 C65.5834569,81.4340156 66.6349416,79.1566563 66.6349416,76.6374375 L66.6349416,39.5454453 C67.1319416,39.102875 67.447297,38.4612109 67.447297,37.7460547 L67.447297,29.0746953 C67.447297,28.3595391 67.1321218,27.7176953 66.6349416,27.275125 L66.6349416,15.849875 C66.6349416,13.3304766 65.582736,11.0525781 63.8956751,9.4256875 C64.5110685,9.70060938 65.1920558,9.85496094 65.909264,9.85496094 C68.633934,9.85514063 70.8506117,7.644625 70.8506117,4.92757031 Z M5.09109645,6.908625 C3.99564213,6.908625 3.10435787,6.01989063 3.10435787,4.92757031 C3.10435787,3.83525 3.99564213,2.94651562 5.09109645,2.94651562 C6.18673096,2.94651562 7.07801523,3.83525 7.07801523,4.92757031 C7.07765482,6.01989063 6.18655076,6.908625 5.09109645,6.908625 Z M9.61419289,2.94651562 L61.3854467,2.94651562 C61.1171244,3.55314063 60.9670152,4.22319531 60.9670152,4.92757031 C60.9670152,6.13542969 61.4059898,7.24248437 62.1318477,8.1003125 C60.8163655,7.34364844 59.2923883,6.908625 57.6676777,6.908625 L13.3319619,6.908625 C11.7070711,6.908625 10.1832741,7.34400781 8.86779188,8.1003125 C9.59401015,7.24230469 10.0326244,6.13542969 10.0326244,4.92757031 C10.0326244,4.22319531 9.88251523,3.55314063 9.61419289,2.94651562 Z M7.32002792,15.849875 C7.32002792,12.5443438 10.0169467,9.85496094 13.3321421,9.85496094 L57.6678579,9.85496094 C60.9828731,9.85496094 63.6799721,12.5441641 63.6799721,15.849875 L63.6799721,26.6595156 L7.32002792,26.6595156 L7.32002792,15.849875 Z M9.06223096,89.0534844 C8.10138832,89.0534844 7.32002792,88.274 7.32002792,87.3160859 C7.32002792,86.3581719 8.10156853,85.5788672 9.06223096,85.5788672 C10.0228934,85.5788672 10.8046142,86.3581719 10.8046142,87.3160859 C10.8046142,88.274 10.0230736,89.0534844 9.06223096,89.0534844 Z M13.4233249,89.0534844 C13.6395685,88.5158594 13.759764,87.9298984 13.759764,87.3160859 C13.759764,86.7024531 13.6395685,86.1164922 13.4233249,85.5788672 L57.5766751,85.5788672 C57.3606117,86.1164922 57.240236,86.7024531 57.240236,87.3160859 C57.240236,87.9297188 57.3604315,88.5156797 57.5766751,89.0534844 L13.4233249,89.0534844 Z M61.9375888,89.0534844 C60.9767462,89.0534844 60.1952056,88.274 60.1952056,87.3160859 C60.1952056,86.3581719 60.9769264,85.5788672 61.9375888,85.5788672 C62.8982513,85.5788672 63.6797919,86.3581719 63.6797919,87.3160859 C63.6799721,88.274 62.8982513,89.0534844 61.9375888,89.0534844 Z M63.6799721,76.6374375 C63.6799721,79.9429688 60.9828731,82.6321719 57.6678579,82.6321719 L13.3319619,82.6321719 C10.0169467,82.6321719 7.31984772,79.9429688 7.31984772,76.6374375 L7.31984772,40.1610547 L63.6799721,40.1610547 L63.6797919,76.6374375 L63.6799721,76.6374375 Z M64.4921472,29.6062109 L64.4921472,37.2145391 L6.50767259,37.2145391 L6.50767259,29.6062109 L64.4921472,29.6062109 Z M63.9219848,4.92757031 C63.9219848,3.83525 64.813269,2.94651562 65.9089036,2.94651562 C67.0043579,2.94651562 67.8956421,3.83525 67.8956421,4.92757031 C67.8956421,6.01989063 67.0043579,6.908625 65.9089036,6.908625 C64.8134492,6.908625 63.9219848,6.01989063 63.9219848,4.92757031 Z M28.8620406,10.7447734 L13.1888807,10.7447734 C10.7934416,10.7447734 8.84454569,12.6880937 8.84454569,15.0766797 L8.84454569,21.5565703 C8.84454569,23.9451562 10.7934416,25.8884766 13.1888807,25.8884766 L28.8620406,25.8884766 C31.2574797,25.8884766 33.2063756,23.9451562 33.2063756,21.5565703 L33.2063756,15.0766797 C33.2063756,12.6880937 31.2574797,10.7447734 28.8620406,10.7447734 Z M30.2514061,21.5569297 C30.2514061,22.3207813 29.6280838,22.9423203 28.8620406,22.9423203 L13.1888807,22.9423203 C12.4228376,22.9423203 11.7995152,22.3207812 11.7995152,21.5569297 L11.7995152,15.0766797 C11.7995152,14.3128281 12.4228376,13.6912891 13.1888807,13.6912891 L28.8620406,13.6912891 C29.6280838,13.6912891 30.2514061,14.3128281 30.2514061,15.0766797 L30.2514061,21.5569297 Z M57.8111193,10.7447734 L42.1379594,10.7447734 C39.7425203,10.7447734 37.7936244,12.6880937 37.7936244,15.0766797 L37.7936244,21.5565703 C37.7936244,23.9451562 39.7425203,25.8884766 42.1379594,25.8884766 L57.8111193,25.8884766 C60.2065584,25.8884766 62.1554543,23.9451562 62.1554543,21.5565703 L62.1554543,15.0766797 C62.1556345,12.6880937 60.2067386,10.7447734 57.8111193,10.7447734 Z M59.200665,21.5569297 C59.200665,22.3207813 58.5773426,22.9423203 57.8112995,22.9423203 L42.1381396,22.9423203 C41.3720964,22.9423203 40.7487741,22.3207812 40.7487741,21.5569297 L40.7487741,15.0766797 C40.7487741,14.3128281 41.3720964,13.6912891 42.1381396,13.6912891 L57.8112995,13.6912891 C58.5773426,13.6912891 59.200665,14.3128281 59.200665,15.0766797 L59.200665,21.5569297 Z" id="Shape" fill="#1E252B"></path>
                                </g>
                                <g id="bed-(2)" transform="translate(160.000000, 187.000000)" fill-rule="nonzero">
                                    <path d="M65.1574569,15.849875 C65.1574569,11.7423984 61.7872995,8.38170313 57.6678579,8.38170313 L13.3319619,8.38170313 C9.21270051,8.38170313 5.84236294,11.7422188 5.84236294,15.849875 L5.84236294,76.6372578 C5.84236294,80.7447344 9.2125203,84.10525 13.3319619,84.10525 L57.6676777,84.10525 C61.7869391,84.10525 65.1572766,80.7447344 65.1572766,76.6372578 L65.1574569,15.849875 Z" id="Shape" fill="#E4E4E4"></path>
                                    <g id="Group" transform="translate(10.271574, 12.039062)" fill="#FFFFFF">
                                        <path d="M21.4573173,9.51786719 C21.4573173,11.0901328 20.1672437,12.3765156 18.590467,12.3765156 L2.91730711,12.3765156 C1.34053046,12.3765156 0.0504568528,11.0901328 0.0504568528,9.51786719 L0.0504568528,3.03761719 C0.0504568528,1.46535156 1.34053046,0.17896875 2.91730711,0.17896875 L18.590467,0.17896875 C20.1672437,0.17896875 21.4573173,1.46535156 21.4573173,3.03761719 L21.4573173,9.51786719 Z" id="Shape"></path>
                                        <path d="M28.9995355,9.51786719 C28.9995355,11.0901328 30.2896091,12.3765156 31.8663858,12.3765156 L47.5395457,12.3765156 C49.1163223,12.3765156 50.4063959,11.0901328 50.4063959,9.51786719 L50.4063959,3.03761719 C50.4063959,1.46535156 49.1163223,0.17896875 47.5395457,0.17896875 L31.8663858,0.17896875 C30.2896091,0.17896875 28.9995355,1.46535156 28.9995355,3.03761719 L28.9995355,9.51786719 Z" id="Shape"></path>
                                    </g>
                                    <path d="M5.84254315,35.8999453 L5.84254315,76.6374375 C5.84254315,80.7449141 9.21270051,84.1054297 13.3321421,84.1054297 L57.6678579,84.1054297 C61.7871193,84.1054297 65.1574569,80.7449141 65.1574569,76.6374375 L65.1574569,35.8999453 L5.84254315,35.8999453 Z" id="Shape" fill="#24D9DE"></path>
                                    <rect id="Rectangle-path" fill="#6FD1E6" x="5.84290355" y="35.9003047" width="59.3140127" height="5.77533594"></rect>
                                    <rect id="Rectangle-path" fill="#9A6B58" x="9.06187056" y="84.10525" width="52.8742766" height="6.42095313"></rect>
                                    <g id="Group" transform="translate(5.766497, 84.093750)" fill="#B28978">
                                        <ellipse id="Oval" cx="3.2953731" cy="3.22125781" rx="3.21968782" ry="3.21047656"></ellipse>
                                        <ellipse id="Oval" cx="56.171632" cy="3.22125781" rx="3.21968782" ry="3.21047656"></ellipse>
                                    </g>
                                    <rect id="Rectangle-path" fill="#9A6B58" x="5.09037563" y="1.47325781" width="60.8190685" height="6.908625"></rect>
                                    <g id="Group" transform="translate(1.621827, 1.437500)" fill="#B28978">
                                        <ellipse id="Oval" cx="3.46854822" cy="3.49096875" rx="3.46422335" ry="3.4543125"></ellipse>
                                        <ellipse id="Oval" cx="64.287797" cy="3.49096875" rx="3.46422335" ry="3.4543125"></ellipse>
                                    </g>
                                    <path d="M65.969632,37.7460547 C65.969632,38.2640937 65.544533,38.6877969 65.0250076,38.6877969 L5.97481218,38.6877969 C5.4552868,38.6877969 5.03018782,38.2640937 5.03018782,37.7460547 L5.03018782,29.0746953 C5.03018782,28.5564766 5.4552868,28.1327734 5.97481218,28.1327734 L65.0251878,28.1327734 C65.5447132,28.1327734 65.9698122,28.5564766 65.9698122,29.0746953 L65.9698122,37.7460547 L65.969632,37.7460547 Z" id="Shape" fill="#1C7C96"></path>
                                    <path d="M70.8506117,4.92757031 C70.8506117,2.21051563 68.633934,0 65.9089036,0 L5.09109645,0 C2.36588579,0 0.149388325,2.21051563 0.149388325,4.92757031 C0.149388325,7.644625 2.36606599,9.85514063 5.09109645,9.85514063 C5.80794416,9.85514063 6.48911168,9.70096875 7.10468528,9.42586719 C5.41744416,11.0527578 4.36541878,13.3306563 4.36541878,15.8500547 L4.36541878,27.2753047 C3.86841878,27.717875 3.55324365,28.3595391 3.55324365,29.074875 L3.55324365,37.7462344 C3.55324365,38.4613906 3.86841878,39.1030547 4.36541878,39.545625 L4.36541878,76.6374375 C4.36541878,79.1564766 5.41726396,81.4340156 7.10360406,83.0607266 C5.48916497,83.8026563 4.36541878,85.4304453 4.36541878,87.3160859 C4.36541878,89.8987344 6.47253299,92 9.06259137,92 L61.937769,92 C64.5278274,92 66.6349416,89.8987344 66.6349416,87.3160859 C66.6349416,85.4302656 65.5110152,83.8026563 63.8967563,83.0607266 C65.5834569,81.4340156 66.6349416,79.1566563 66.6349416,76.6374375 L66.6349416,39.5454453 C67.1319416,39.102875 67.447297,38.4612109 67.447297,37.7460547 L67.447297,29.0746953 C67.447297,28.3595391 67.1321218,27.7176953 66.6349416,27.275125 L66.6349416,15.849875 C66.6349416,13.3304766 65.582736,11.0525781 63.8956751,9.4256875 C64.5110685,9.70060938 65.1920558,9.85496094 65.909264,9.85496094 C68.633934,9.85514063 70.8506117,7.644625 70.8506117,4.92757031 Z M5.09109645,6.908625 C3.99564213,6.908625 3.10435787,6.01989063 3.10435787,4.92757031 C3.10435787,3.83525 3.99564213,2.94651562 5.09109645,2.94651562 C6.18673096,2.94651562 7.07801523,3.83525 7.07801523,4.92757031 C7.07765482,6.01989063 6.18655076,6.908625 5.09109645,6.908625 Z M9.61419289,2.94651562 L61.3854467,2.94651562 C61.1171244,3.55314063 60.9670152,4.22319531 60.9670152,4.92757031 C60.9670152,6.13542969 61.4059898,7.24248437 62.1318477,8.1003125 C60.8163655,7.34364844 59.2923883,6.908625 57.6676777,6.908625 L13.3319619,6.908625 C11.7070711,6.908625 10.1832741,7.34400781 8.86779188,8.1003125 C9.59401015,7.24230469 10.0326244,6.13542969 10.0326244,4.92757031 C10.0326244,4.22319531 9.88251523,3.55314063 9.61419289,2.94651562 Z M7.32002792,15.849875 C7.32002792,12.5443438 10.0169467,9.85496094 13.3321421,9.85496094 L57.6678579,9.85496094 C60.9828731,9.85496094 63.6799721,12.5441641 63.6799721,15.849875 L63.6799721,26.6595156 L7.32002792,26.6595156 L7.32002792,15.849875 Z M9.06223096,89.0534844 C8.10138832,89.0534844 7.32002792,88.274 7.32002792,87.3160859 C7.32002792,86.3581719 8.10156853,85.5788672 9.06223096,85.5788672 C10.0228934,85.5788672 10.8046142,86.3581719 10.8046142,87.3160859 C10.8046142,88.274 10.0230736,89.0534844 9.06223096,89.0534844 Z M13.4233249,89.0534844 C13.6395685,88.5158594 13.759764,87.9298984 13.759764,87.3160859 C13.759764,86.7024531 13.6395685,86.1164922 13.4233249,85.5788672 L57.5766751,85.5788672 C57.3606117,86.1164922 57.240236,86.7024531 57.240236,87.3160859 C57.240236,87.9297188 57.3604315,88.5156797 57.5766751,89.0534844 L13.4233249,89.0534844 Z M61.9375888,89.0534844 C60.9767462,89.0534844 60.1952056,88.274 60.1952056,87.3160859 C60.1952056,86.3581719 60.9769264,85.5788672 61.9375888,85.5788672 C62.8982513,85.5788672 63.6797919,86.3581719 63.6797919,87.3160859 C63.6799721,88.274 62.8982513,89.0534844 61.9375888,89.0534844 Z M63.6799721,76.6374375 C63.6799721,79.9429688 60.9828731,82.6321719 57.6678579,82.6321719 L13.3319619,82.6321719 C10.0169467,82.6321719 7.31984772,79.9429688 7.31984772,76.6374375 L7.31984772,40.1610547 L63.6799721,40.1610547 L63.6797919,76.6374375 L63.6799721,76.6374375 Z M64.4921472,29.6062109 L64.4921472,37.2145391 L6.50767259,37.2145391 L6.50767259,29.6062109 L64.4921472,29.6062109 Z M63.9219848,4.92757031 C63.9219848,3.83525 64.813269,2.94651562 65.9089036,2.94651562 C67.0043579,2.94651562 67.8956421,3.83525 67.8956421,4.92757031 C67.8956421,6.01989063 67.0043579,6.908625 65.9089036,6.908625 C64.8134492,6.908625 63.9219848,6.01989063 63.9219848,4.92757031 Z M28.8620406,10.7447734 L13.1888807,10.7447734 C10.7934416,10.7447734 8.84454569,12.6880937 8.84454569,15.0766797 L8.84454569,21.5565703 C8.84454569,23.9451562 10.7934416,25.8884766 13.1888807,25.8884766 L28.8620406,25.8884766 C31.2574797,25.8884766 33.2063756,23.9451562 33.2063756,21.5565703 L33.2063756,15.0766797 C33.2063756,12.6880937 31.2574797,10.7447734 28.8620406,10.7447734 Z M30.2514061,21.5569297 C30.2514061,22.3207813 29.6280838,22.9423203 28.8620406,22.9423203 L13.1888807,22.9423203 C12.4228376,22.9423203 11.7995152,22.3207812 11.7995152,21.5569297 L11.7995152,15.0766797 C11.7995152,14.3128281 12.4228376,13.6912891 13.1888807,13.6912891 L28.8620406,13.6912891 C29.6280838,13.6912891 30.2514061,14.3128281 30.2514061,15.0766797 L30.2514061,21.5569297 Z M57.8111193,10.7447734 L42.1379594,10.7447734 C39.7425203,10.7447734 37.7936244,12.6880937 37.7936244,15.0766797 L37.7936244,21.5565703 C37.7936244,23.9451562 39.7425203,25.8884766 42.1379594,25.8884766 L57.8111193,25.8884766 C60.2065584,25.8884766 62.1554543,23.9451562 62.1554543,21.5565703 L62.1554543,15.0766797 C62.1556345,12.6880937 60.2067386,10.7447734 57.8111193,10.7447734 Z M59.200665,21.5569297 C59.200665,22.3207813 58.5773426,22.9423203 57.8112995,22.9423203 L42.1381396,22.9423203 C41.3720964,22.9423203 40.7487741,22.3207812 40.7487741,21.5569297 L40.7487741,15.0766797 C40.7487741,14.3128281 41.3720964,13.6912891 42.1381396,13.6912891 L57.8112995,13.6912891 C58.5773426,13.6912891 59.200665,14.3128281 59.200665,15.0766797 L59.200665,21.5569297 Z" id="Shape" fill="#1E252B"></path>
                                </g>
                                <path d="M267.195363,169.737741 L0.344006592,169.737741" id="Path-9" stroke="#000000" stroke-width="5"></path>
                                <g id="Group-32" transform="translate(241.919989, 133.199992)">
                                    <circle id="Oval-3" stroke="#FF928A" stroke-width="1.72799992" cx="7.77599964" cy="7.77599964" r="7.77599964"></circle>
                                    <circle id="Oval-3" fill="#F44335" cx="7.77599964" cy="7.77599964" r="6.04799972"></circle>
                                </g>
                            </g>
                        </g>
                    </g>
                </g>
            </g>
        </g>
    </g>
</svg>