<?xml version="1.0" encoding="UTF-8"?>
<svg width="224px" height="215px" viewBox="0 0 224 215" version="1.1" xmlns="http://www.w3.org/2000/svg" xmlns:xlink="http://www.w3.org/1999/xlink">
    <!-- Generator: Sketch 51.1 (57501) - http://www.bohemiancoding.com/sketch -->
    <title>minimize_effort</title>
    <desc>Created with Sketch.</desc>
    <defs></defs>
    <g id="Page-1" stroke="none" stroke-width="1" fill="none" fill-rule="evenodd">
        <g id="healthcare_industry" transform="translate(-405.000000, -3900.000000)" fill-rule="nonzero">
            <g id="Group-80" transform="translate(240.000000, 861.000000)">
                <g id="Group-31" transform="translate(0.000000, 3005.000000)">
                    <g id="Group-57">
                        <g id="Group-78">
                            <g id="minimize_effort" transform="translate(163.000000, 33.000000)">
                                <g id="Group" transform="translate(0.223438, 0.651399)">
                                    <path d="M118.090472,194.923018 L120.290452,194.923037 L120.290452,214.844998 L118.090452,214.844998 C89.412031,214.844998 62.4393427,203.716518 42.1594418,183.516396 C22.3993613,163.83405 11.284056,137.820291 10.7256297,110.071852 L4.72571141,110.071852 C3.62114191,110.071852 2.72571141,109.176422 2.72571141,108.071852 C2.72571141,107.65857 2.85374246,107.255437 3.09219919,106.917886 L21.6612127,80.6322701 L38.3320103,107.003156 C38.922235,107.936809 38.643831,109.172157 37.7101776,109.762381 C37.3903866,109.964543 37.0198137,110.071852 36.6414813,110.071852 L30.7143048,110.071852 C31.8905333,157.055935 70.6340667,194.922596 118.090472,194.923018 Z" id="Shape" fill="#DCFAEC"></path>
                                    <path d="M42.3945085,64.3499804 L41.2950113,66.2468309 L23.9850913,56.2923529 L25.0921271,54.3824614 C39.4331423,29.6409109 62.5969706,11.9367043 90.2988531,4.54366842 C117.291325,-2.66059424 145.465664,0.759181041 169.869512,14.1536054 L172.869043,8.97869965 C173.422961,8.0230592 174.6467,7.69739876 175.60234,8.25131672 C175.956905,8.45683318 176.239776,8.7663119 176.412676,9.13787469 L189.989958,38.3155381 L158.718055,39.5113546 C157.614292,39.5535618 156.6853,38.6930009 156.643093,37.5892381 C156.628641,37.2113238 156.721637,36.8370572 156.911292,36.5098581 L159.868116,31.408631 C118.422013,8.92726402 66.1213839,23.4164196 42.3945085,64.3499804 Z" id="Shape" fill="#7FAD97"></path>
                                    <path d="M42.3945085,64.3499804 L41.2950113,66.2468309 L23.9850913,56.2923529 L25.0921271,54.3824614 C35.9272191,35.6894349 51.7986216,21.0135228 70.8584088,11.7666572 C72.2716088,11.0810425 73.7023371,10.4252744 75.1498405,9.7999284 C80.0192347,7.69626775 85.078464,5.93687786 90.2988531,4.54366842 C117.291325,-2.66059424 145.465664,0.759181041 169.869512,14.1536054 L172.869043,8.97869965 C173.422961,8.0230592 174.6467,7.69739876 175.60234,8.25131672 C175.956905,8.45683318 176.239776,8.7663119 176.412676,9.13787469 L189.989958,38.3155381 L158.718055,39.5113546 C157.614292,39.5535618 156.6853,38.6930009 156.643093,37.5892381 C156.628641,37.2113238 156.721637,36.8370572 156.911292,36.5098581 L159.868116,31.408631 C118.422013,8.92726402 66.1213839,23.4164196 42.3945085,64.3499804 Z M163.989029,28.6711229 L165.902682,29.7716216 L162.902216,34.9481393 L183.208622,34.171636 L174.366351,15.169541 L171.488295,20.1348726 L169.587703,19.0419998 C145.758648,5.33989149 118.010368,1.70151539 91.43345,8.79486714 C86.3981291,10.1386859 81.5198233,11.8370534 76.8262307,13.8687909 C75.4685889,14.4564798 74.1264016,15.072061 72.8003393,15.7150221 C55.1645259,24.2660094 40.3807889,37.6597721 30.0259632,54.6906176 L39.7097469,60.2595059 C65.5313973,18.0462677 120.787346,3.82681074 163.989029,28.6711229 Z" id="Shape" fill="#000000"></path>
                                    <path d="M193.78682,64.3503919 L192.679803,62.4405054 L209.989753,52.4860107 L211.089233,54.382926 C225.43078,79.1261704 229.242138,107.963439 221.818091,135.56141 C214.585278,162.448495 197.526972,185.041989 173.683689,199.39641 L176.676869,204.560358 C177.230787,205.515998 176.905126,206.739737 175.949486,207.293655 C175.592223,207.500735 175.17962,207.592154 174.768323,207.55536 L142.619725,204.679388 L157.221139,177.096401 C157.737916,176.120177 158.948234,175.747721 159.924458,176.264498 C160.255761,176.439878 160.531107,176.704836 160.71909,177.029152 L163.682591,182.141897 C203.957002,157.637079 217.512148,105.282628 193.78682,64.3503919 Z" id="Shape" fill="#24D9DE"></path>
                                    <path d="M118.090472,194.923018 L120.290452,194.923037 L120.290452,214.844998 L118.090452,214.844998 C89.412031,214.844998 62.4393427,203.716518 42.1594418,183.516396 C22.3993613,163.83405 11.284056,137.820291 10.7256297,110.071852 L4.72571141,110.071852 C3.62114191,110.071852 2.72571141,109.176422 2.72571141,108.071852 C2.72571141,107.65857 2.85374246,107.255437 3.09219919,106.917886 L21.6612127,80.6322701 L38.3320103,107.003156 C38.922235,107.936809 38.643831,109.172157 37.7101776,109.762381 C37.3903866,109.964543 37.0198137,110.071852 36.6414813,110.071852 L30.7143048,110.071852 C31.8905333,157.055935 70.6340667,194.922596 118.090472,194.923018 Z M26.2867939,107.871852 L26.2867939,105.671852 L32.284933,105.671852 L21.4582189,88.5454946 L9.35960327,105.671852 L15.1035108,105.671852 L15.1035108,107.871852 C15.1035108,135.272512 25.8115725,161.022526 45.2645739,180.399001 C64.1999956,199.259932 89.1993913,209.869216 115.890452,210.422227 L115.890452,199.297127 C66.2815656,198.128807 26.2867939,157.569566 26.2867939,107.871852 Z" id="Shape" fill="#000000"></path>
                                    <path d="M193.78682,64.3503919 L192.679803,62.4405054 L209.989753,52.4860107 L211.089233,54.382926 C225.43078,79.1261704 229.242138,107.963439 221.818091,135.56141 C214.585278,162.448495 197.526972,185.041989 173.683689,199.39641 L176.676869,204.560358 C177.230787,205.515998 176.905126,206.739737 175.949486,207.293655 C175.592223,207.500735 175.17962,207.592154 174.768323,207.55536 L142.619725,204.679388 L157.221139,177.096401 C157.737916,176.120177 158.948234,175.747721 159.924458,176.264498 C160.255761,176.439878 160.531107,176.704836 160.71909,177.029152 L163.682591,182.141897 C203.957002,157.637079 217.512148,105.282628 193.78682,64.3503919 Z M163.98902,187.072586 L162.088394,188.165582 L159.083916,182.98214 L149.605857,200.886787 L170.54775,202.760222 L167.673966,197.802259 L169.58761,196.701758 C193.414129,182.999571 210.449034,160.886536 217.569143,134.418414 C224.498899,108.657905 221.224154,81.7938122 208.362155,58.4976804 L198.677817,64.0668874 C222.461351,107.449894 207.191534,162.228052 163.98902,187.072586 Z" id="Shape" fill="#000000"></path>
                                </g>
                                <path d="M62.2,144.372484 L62.2,73.3116176 C62.2,72.71675 62.6829129,72.234375 63.2784439,72.234375 L174.507967,72.234375 C175.103498,72.234375 175.586411,72.71675 175.586411,73.3116176 L175.586411,144.37222 C175.586411,144.967088 175.103498,145.449463 174.507967,145.449463 L63.2784439,145.449463 C62.6829129,145.449463 62.2,144.967088 62.2,144.372484 Z" id="Shape" fill="#24D9DE"></path>
                                <path d="M174.188993,72.234375 L162.3,72.234375 L162.3,145.449463 L174.188993,145.449463 C174.784524,145.449463 175.267437,144.967088 175.267437,144.37222 L175.267437,73.3116176 C175.267173,72.71675 174.784524,72.234375 174.188993,72.234375 Z" id="Shape" fill="#11B9C1"></path>
                                <path d="M174.28551,70.0364583 L80.384145,70.0364583 C79.2917228,70.0364583 78.4060749,70.9211198 78.4060749,72.0123252 C78.4060749,73.1035306 79.2917228,73.9881921 80.384145,73.9881921 L173.385884,73.9881921 L173.385884,143.251546 L63.9558766,143.251546 L63.9558766,73.9881921 L71.1531509,73.9881921 C72.2455731,73.9881921 73.1312211,73.1035306 73.1312211,72.0123252 C73.1312211,70.9211198 72.2455731,70.0364583 71.1531509,70.0364583 L63.0562503,70.0364583 C61.3709345,70.0364583 60,71.4061292 60,73.0895678 L60,144.150171 C60,145.833609 61.3711982,147.20328 63.0562503,147.20328 L174.28551,147.20328 C175.970826,147.20328 177.342024,145.833609 177.342024,144.150171 L177.342024,73.0895678 C177.342024,71.4061292 175.970826,70.0364583 174.28551,70.0364583 Z" id="Shape" fill="#000000"></path>
                                <path d="M75.1780702,113.275072 L89.742469,113.275072 L98.9062088,122.428604 C99.7338333,123.255307 100.967358,123.500051 102.048175,123.052715 C103.129257,122.605378 103.827911,121.561067 103.827911,120.392144 L103.827911,93.6485011 L109.385059,112.772411 C109.928632,113.310637 112.594718,113.524294 113.360363,113.524294 L122.657293,113.524294 L131.596588,122.453368 C132.149656,123.005557 132.883388,123.298249 133.632154,123.298249 C134.004295,123.298249 134.379864,123.226064 134.738554,123.077479 C135.819899,122.630143 136.51829,121.585831 136.51829,120.416908 L136.51829,105.037814 L144.900033,112.772411 C145.434112,113.265324 146.12881,113.536676 146.856212,113.536676 L161.685673,113.536676 C162.778358,113.536676 163.663743,112.652015 163.663743,111.560809 C163.663743,110.469604 162.778358,109.584943 161.685673,109.584943 L147.275563,109.584943 L137.401037,100.472772 C136.559698,99.696651 135.337514,99.4911609 134.288873,99.9500889 C133.239441,100.408753 132.561622,101.444371 132.561622,102.588266 L132.561622,117.829313 L125.140167,110.416124 C124.595538,109.872102 123.871301,109.572561 123.101699,109.572561 L112.50083,109.323074 L106.382751,89.2843272 C105.458789,87.8497251 102.723093,87.9701232 101.645177,88.4187767 C100.567788,88.8674302 99.871507,89.9109513 99.871507,91.0767128 L99.871507,117.804285 L92.2253427,110.166638 C91.6809778,109.622879 90.9567404,109.323074 90.1868754,109.323074 L75.1780702,109.323074 C74.085648,109.323074 73.2,110.207736 73.2,111.298941 C73.2,112.390147 74.085648,113.275072 75.1780702,113.275072 Z" id="Shape" fill="#000000"></path>
                            </g>
                        </g>
                    </g>
                </g>
            </g>
        </g>
    </g>
</svg>