<?xml version="1.0" encoding="UTF-8"?>
<svg width="89px" height="112px" viewBox="0 0 89 112" version="1.1" xmlns="http://www.w3.org/2000/svg" xmlns:xlink="http://www.w3.org/1999/xlink">
    <!-- Generator: Sketch 51.1 (57501) - http://www.bohemiancoding.com/sketch -->
    <title>patient (2)</title>
    <desc>Created with Sketch.</desc>
    <defs></defs>
    <g id="Page-1" stroke="none" stroke-width="1" fill="none" fill-rule="evenodd">
        <g id="healthcare_industry" transform="translate(-1173.000000, -1098.000000)" fill-rule="nonzero">
            <g id="Group-80" transform="translate(240.000000, 861.000000)">
                <g id="Group-31" transform="translate(3.000000, 0.000000)">
                    <g id="Group-30" transform="translate(852.000000, 68.000000)">
                        <g id="Group-7" transform="translate(69.000000, 0.000000)">
                            <g id="Group-19" transform="translate(9.000000, 169.000000)">
                                <g id="patient-(2)">
                                    <path d="M20.498576,16.3001563 L20.498576,12.03125 C20.498576,11.4296875 20.0077672,10.9375 19.4078897,10.9375 L6.06574265,10.9375 C5.4658652,10.9375 4.97505637,11.4296875 4.97505637,12.03125 L4.97505637,16.3001563 L20.498576,16.3001563 Z" id="Shape" fill="#48C1E1"></path>
                                    <path d="M82.1306397,71.941625 L72.5247475,71.941625 C68.5389436,76.9685 62.6344044,80.2928438 56.0444779,80.2928438 C49.4545515,80.2928438 43.5502304,76.9685 39.5642083,71.941625 L29.9583162,71.941625 C27.1790294,71.941625 24.9176005,74.2094063 24.9176005,76.9965 L24.9176005,109.095438 C24.9176005,109.79325 25.4819216,110.359156 26.1777794,110.359156 L85.9111765,110.359156 C86.6070343,110.359156 87.1713554,109.79325 87.1713554,109.095438 L87.1713554,76.9967188 C87.1713554,74.2094063 84.9099265,71.941625 82.1306397,71.941625 Z" id="Shape" fill="#24D9DE"></path>
                                    <path d="M66.6871765,102.182719 L61.6231201,102.182719 L62.9688088,100.833469 C63.8681887,99.9309063 63.8751691,98.4615625 62.9838603,97.5679688 C62.0923333,96.6741562 60.6268873,96.6809375 59.7272892,97.5832812 L56.3339461,100.985938 C56.502348,101.20075 56.6037819,101.471125 56.6037819,101.765781 L56.6037819,110.359375 L66.6871765,110.359375 C67.9595711,110.359375 69.0003039,109.3155 69.0003039,108.039531 L69.0003039,104.502562 C69.0003039,103.226594 67.9595711,102.182719 66.6871765,102.182719 Z" id="Shape" fill="#FFD5B3"></path>
                                    <path d="M55.3436029,100.502063 L35.8277353,100.502063 L35.8277353,89.0914063 C35.8277353,87.69775 34.6969118,86.5639688 33.3071593,86.5639688 L27.4379583,86.5639688 C26.0482059,86.5639688 24.9173824,87.69775 24.9173824,89.0914063 L24.9173824,109.095656 C24.9173824,109.793469 25.4817034,110.359375 26.1775613,110.359375 L56.6035638,110.359375 L56.6035637,101.765781 C56.6037819,101.067969 56.0394608,100.502063 55.3436029,100.502063 Z" id="Shape" fill="#1F87A3"></path>
                                    <path d="M33.123924,71.941625 L35.6187598,75.0876875 C40.789049,81.6081875 48.2338554,85.3477187 56.0444779,85.3477187 C63.8553186,85.3477187 71.2999069,81.6081875 76.4704142,75.0876875 L78.9650319,71.941625 L33.123924,71.941625 Z" id="Shape" fill="#0291C9"></path>
                                    <g id="Group" opacity="0.1" transform="translate(24.867647, 71.750000)" fill="#000000">
                                        <path d="M6.87132353,37.3456562 L6.87132353,5.24671875 C6.87132353,2.45940625 9.13275245,0.19184375 11.9120392,0.19184375 L5.09066912,0.19184375 C2.31138235,0.19184375 0.0499534314,2.459625 0.0499534314,5.24671875 L0.0499534314,37.3456562 C0.0499534314,38.0434687 0.61427451,38.609375 1.31013235,38.609375 L8.13150245,38.609375 C7.43564461,38.609375 6.87132353,38.0434687 6.87132353,37.3456562 Z" id="Shape"></path>
                                    </g>
                                    <path d="M73.4332892,100.734375 C73.2162426,100.734375 73.0120662,100.6495 72.8584975,100.495938 L66.543424,94.163125 C65.782125,93.3994688 65.3628652,92.3829375 65.3628652,91.3007813 C65.3628652,90.2188438 65.782125,89.2023125 66.543424,88.4386563 C67.3058137,87.674125 68.3194975,87.2530313 69.39775,87.2530313 C70.4757843,87.2530313 71.4894681,87.674125 72.2518578,88.4386563 L73.4564118,89.646375 L74.6611838,88.4386563 C75.4231373,87.674125 76.4368211,87.2530313 77.5150735,87.2530313 C78.593326,87.2530313 79.6070098,87.674125 80.3691814,88.4386563 C81.1315711,89.2029688 81.5514853,90.2197188 81.5514853,91.3007813 C81.5514853,92.3820625 81.1315711,93.398375 80.3689632,94.163125 L74.0052451,100.497906 C73.852549,100.650375 73.649027,100.734375 73.4332892,100.734375 Z" id="Shape" fill="#F44335"></path>
                                    <path d="M56.0444779,8.717625 C58.0524314,8.717625 59.9995245,9.01490625 61.8547819,9.5711875 C63.4700882,7.84328125 64.4798456,5.406625 64.4798456,2.70834375 C64.4798456,2.11859375 64.0029975,1.640625 63.4153358,1.640625 L48.6736201,1.640625 C48.0857402,1.640625 47.6091103,2.1188125 47.6091103,2.70834375 C47.6091103,5.40640625 48.6190858,7.8430625 50.2343922,9.5711875 C52.0894314,9.01490625 54.0363064,8.717625 56.0444779,8.717625 Z" id="Shape" fill="#50DAEF"></path>
                                    <path d="M56.0444779,8.717625 C56.1476569,8.717625 56.2501814,8.72046875 56.352924,8.72221875 C55.1516422,7.08465625 54.4252451,4.991875 54.4252451,2.7085625 C54.4252451,2.1188125 54.901875,1.64084375 55.4897549,1.64084375 L48.6736201,1.64084375 C48.0857402,1.64084375 47.6091103,2.11903125 47.6091103,2.7085625 C47.6091103,5.406625 48.6190858,7.84328125 50.2343922,9.57140625 C52.0894314,9.01490625 54.0363064,8.717625 56.0444779,8.717625 Z" id="Shape" fill="#000000" opacity="0.1"></path>
                                    <g id="Group" transform="translate(27.267157, 43.312500)" fill="#FFB98A">
                                        <path d="M35.8342794,24.6150625 C33.621277,25.4638125 31.2477255,25.9319375 28.7771029,25.9319375 C26.3066985,25.9319375 23.9329289,25.4638125 21.7199265,24.6150625 L21.7199265,28.6293438 L12.2968333,28.6293438 C16.2826373,33.6562188 22.1871765,36.9805625 28.7771029,36.9805625 C35.3670294,36.9805625 41.2713505,33.6562188 45.2573725,28.6293438 L35.8342794,28.6293438 L35.8342794,24.6150625 Z" id="Shape"></path>
                                        <path d="M7.04234314,2.6420625 L7.04234314,0.15225 L5.96758088,0.15225 C2.69661275,0.15225 0.0447181373,2.81159375 0.0447181373,6.09175 C0.0447181373,9.37190625 2.69661275,12.03125 5.96758088,12.03125 L8.98987255,12.03125 C7.7395098,9.11465625 7.04234314,5.92265625 7.04234314,2.6420625 Z" id="Shape"></path>
                                        <path d="M51.5868431,0.15203125 L50.5120809,0.15203125 L50.5120809,2.64184375 C50.5120809,5.9224375 49.8149142,9.1144375 48.5643333,12.0310312 L51.586625,12.0310312 C54.8575931,12.0310312 57.5094877,9.3716875 57.5094877,6.09153125 C57.5094877,2.811375 54.8578113,0.15203125 51.5868431,0.15203125 Z" id="Shape"></path>
                                    </g>
                                    <path d="M34.3095,40.7437187 L34.3095,45.9545625 C34.3095,58.2157188 44.0403848,69.2444375 56.0444779,69.2444375 C68.0483529,69.2444375 77.7794559,58.2155 77.7794559,45.9545625 L77.7794559,40.7437187 L34.3095,40.7437187 Z" id="Shape" fill="#FFD5B3"></path>
                                    <g id="Group" opacity="0.1" transform="translate(34.247549, 40.687500)" fill="#000000">
                                        <path d="M5.5625,5.2670625 L5.5625,0.05621875 L0.0619509804,0.05621875 L0.0619509804,5.2670625 C0.0619509804,17.5282188 9.79283578,28.5569375 21.7969289,28.5569375 C22.7285931,28.5569375 23.6462966,28.4902187 24.5472034,28.3620312 C13.8416814,26.8373438 5.5625,16.5764375 5.5625,5.2670625 Z" id="Shape"></path>
                                    </g>
                                    <path d="M9.11028431,46.7300313 L9.11028431,51.6020313 C9.11028431,52.2035938 9.60109314,52.6957813 10.2009706,52.6957813 L15.2726618,52.6957813 C15.8725392,52.6957813 16.363348,52.2035938 16.363348,51.6020313 L16.363348,46.7300313 L9.11028431,46.7300313 Z" id="Shape" fill="#48C1E1"></path>
                                    <path d="M23.6449877,45.6362813 C23.6449877,46.2378438 23.1541789,46.7300313 22.5543015,46.7300313 L2.91933088,46.7300313 C2.31945343,46.7300313 1.82864461,46.2378438 1.82864461,45.6362813 L1.82864461,17.3939063 C1.82864461,16.7923438 2.31945343,16.3001563 2.91933088,16.3001563 L22.5543015,16.3001563 C23.1541789,16.3001563 23.6449877,16.7923438 23.6449877,17.3939063 L23.6449877,45.6362813 Z" id="Shape" fill="#A2DFF9"></path>
                                    <rect id="Rectangle-path" fill="#FFFFFF" x="1.8279902" y="21.328125" width="21.8159069" height="19.90625"></rect>
                                    <g id="Group" opacity="0.1" transform="translate(1.745098, 16.187500)" fill="#000000">
                                        <path d="M5.53959559,29.4487812 L5.53959559,1.20640625 C5.53959559,0.60484375 6.03040441,0.11265625 6.63028186,0.11265625 L1.17423284,0.11265625 C0.574355392,0.11265625 0.0835465686,0.60484375 0.0835465686,1.20640625 L0.0835465686,29.4487812 C0.0835465686,30.0503437 0.574355392,30.5425312 1.17423284,30.5425312 L6.63028186,30.5425312 C6.03040441,30.5425312 5.53959559,30.0503437 5.53959559,29.4487812 Z" id="Shape"></path>
                                    </g>
                                    <path d="M33.529223,31.2849688 L78.5597328,31.2849688 C78.5913627,31.2849688 78.6216838,31.2889063 78.6530956,31.2897812 C77.1699804,18.5484688 67.6138235,8.717625 56.0446961,8.717625 C44.4755686,8.717625 34.9191936,18.5484688 33.4360784,31.2897812 C33.4672721,31.2889063 33.4978113,31.2849688 33.529223,31.2849688 Z" id="Shape" fill="#35B7C1"></path>
                                    <path d="M33.529223,31.2849688 L40.2011691,31.2849688 C41.5385686,19.8119687 49.4222672,10.700375 59.4269142,9.00309375 C58.3231397,8.81584375 57.1938431,8.717625 56.0444779,8.717625 C44.4753505,8.717625 34.9189755,18.5484688 33.4358603,31.2897812 C33.4672721,31.2889063 33.4978113,31.2849688 33.529223,31.2849688 Z" id="Shape" fill="#000000" opacity="0.1"></path>
                                    <path d="M81.8317917,37.4624687 C81.8317917,39.2671562 80.3593652,40.7437187 78.5597328,40.7437187 L33.529223,40.7437187 C31.7295907,40.7437187 30.2571642,39.2671562 30.2571642,37.4624687 L30.2571642,34.5662188 C30.2571642,32.7615313 31.7295907,31.2849688 33.529223,31.2849688 L78.5597328,31.2849688 C80.3593652,31.2849688 81.8317917,32.7615313 81.8317917,34.5662188 L81.8317917,37.4624687 Z" id="Shape" fill="#39BA9D"></path>
                                    <g id="Group" opacity="0.1" transform="translate(30.102941, 31.281250)" fill="#000000">
                                        <path d="M6.99522549,6.18121875 L6.99522549,3.28496875 C6.99522549,1.48028125 8.46765196,0.00371875 10.2672843,0.00371875 L3.42628186,0.00371875 C1.62664951,0.00371875 0.154223039,1.48028125 0.154223039,3.28496875 L0.154223039,6.18121875 C0.154223039,7.98590625 1.62664951,9.46246875 3.42628186,9.46246875 L10.2672843,9.46246875 C8.46765196,9.46246875 6.99522549,7.98590625 6.99522549,6.18121875 Z" id="Shape"></path>
                                    </g>
                                    <path d="M82.1306397,70.301 L64.7376838,70.301 L64.7376838,69.0350938 C67.6376005,67.7508125 70.3139265,65.8203438 72.617674,63.3075625 C74.3453211,61.4234688 75.777174,59.2805938 76.8750588,56.9841563 L78.8542181,56.9841563 C83.0221667,56.9841563 86.4131103,53.5836875 86.4131103,49.4040313 C86.4131103,45.77825 83.8609044,42.7404688 80.4638529,41.9984688 C82.2270564,41.2514375 83.4678211,39.4994688 83.4678211,37.46225 L83.4678211,34.566 C83.4678211,32.3962188 82.0601814,30.5515 80.1130882,29.8983125 C78.5817647,20.1379063 72.5162402,12.1299063 64.4781005,8.77471875 C65.5120711,7.028875 66.115875,4.94571875 66.115875,2.70834375 C66.115875,1.2149375 64.9043407,5.68434189e-14 63.4153358,5.68434189e-14 L48.6736201,5.68434189e-14 C47.1846152,5.68434189e-14 45.9730809,1.2149375 45.9730809,2.70834375 C45.9730809,4.94571875 46.5768848,7.028875 47.6108554,8.77471875 C39.5727157,12.1299063 33.5071912,20.138125 31.9758676,29.8983125 C30.0287745,30.5515 28.6211348,32.3964375 28.6211348,34.566 L28.6211348,37.46225 C28.6211348,39.4994688 29.8618995,41.2514375 31.6251029,41.9984688 C28.2280515,42.7404688 25.6758456,45.77825 25.6758456,49.4040313 C25.6758456,53.5836875 29.0667892,56.9841563 33.2347377,56.9841563 L35.2138971,56.9841563 C36.3115637,59.2808125 37.7436348,61.4234688 39.4712819,63.3075625 C41.7752475,65.8203438 44.4515735,67.7505938 47.3512721,69.0350938 L47.3512721,70.301 L29.9583162,70.301 C26.2768137,70.301 23.2815711,73.3046563 23.2815711,76.9965 L23.2815711,98.3559063 L19.2809338,98.3559063 C16.5745049,98.3559063 14.3728456,96.1480625 14.3728456,93.4340313 L14.3728456,54.3364063 L15.2726618,54.3364063 C16.7762819,54.3364063 17.9993775,53.109875 17.9993775,51.6020313 L17.9993775,48.3706563 L22.5543015,48.3706563 C24.0579216,48.3706563 25.2810172,47.144125 25.2810172,45.6362813 L25.2810172,17.3939063 C25.2810172,15.8860625 24.0579216,14.6595313 22.5543015,14.6595313 L22.1346054,14.6595313 L22.1346054,12.03125 C22.1346054,10.5234063 20.9115098,9.296875 19.4078897,9.296875 L6.06574265,9.296875 C4.56212255,9.296875 3.33902696,10.5234063 3.33902696,12.03125 L3.33902696,14.6595313 L2.91933088,14.6595313 C1.41571078,14.6595313 0.192615196,15.8860625 0.192615196,17.3939063 L0.192615196,45.6362813 C0.192615196,47.144125 1.41571078,48.3706563 2.91933088,48.3706563 L7.4742549,48.3706563 L7.4742549,51.6020313 C7.4742549,53.109875 8.69735049,54.3364063 10.2009706,54.3364063 L11.1007868,54.3364063 L11.1007868,93.43425 C11.1007868,97.9575625 14.7702917,101.637375 19.2809338,101.637375 L23.2815711,101.637375 L23.2815711,109.095656 C23.2815711,110.697125 24.5807966,112 26.1777794,112 L85.9111765,112 C87.5081593,112 88.8073848,110.697125 88.8073848,109.095656 L88.8073848,76.9967188 C88.8073848,73.3046563 85.8121422,70.301 82.1306397,70.301 Z M3.46467402,22.96875 L11.8884804,22.96875 C12.7920049,22.96875 13.5245098,22.2341875 13.5245098,21.328125 C13.5245098,20.4220625 12.7920049,19.6875 11.8884804,19.6875 L3.46467402,19.6875 L3.46467402,17.9407813 L22.0089583,17.9407813 L22.0089583,19.6875 L19.9595588,19.6875 C19.0560343,19.6875 18.3235294,20.4220625 18.3235294,21.328125 C18.3235294,22.2341875 19.0560343,22.96875 19.9595588,22.96875 L22.0089583,22.96875 L22.0089583,39.59375 L3.46467402,39.59375 L3.46467402,22.96875 Z M6.61108578,12.578125 L18.8625466,12.578125 L18.8625466,14.6595313 L6.61108578,14.6595313 L6.61108578,12.578125 Z M3.46467402,42.875 L22.0089583,42.875 L22.0089583,45.0894063 L3.46467402,45.0894063 L3.46467402,42.875 Z M10.7463137,48.3706563 L14.7273186,48.3706563 L14.7273186,51.0551563 L10.7463137,51.0551563 L10.7463137,48.3706563 Z M38.7922206,73.58225 C43.282576,78.8994063 49.526973,81.9334688 56.0444779,81.9334688 C62.5617647,81.9334688 68.8061618,78.8994063 73.2967353,73.58225 L75.5738701,73.58225 L75.1897304,74.0665625 C70.3315956,80.1933125 63.3533848,83.7070938 56.0442598,83.7070938 C48.7353529,83.7070938 41.7571422,80.1930938 36.8990074,74.0665625 L36.5148676,73.58225 L38.7922206,73.58225 Z M83.1410515,49.40425 C83.1410515,51.774625 81.2179534,53.703125 78.8542181,53.703125 L78.1803922,53.703125 C78.9877181,51.1958125 79.4152672,48.57475 79.4152672,45.9545625 L79.4152672,45.1465 C81.5141838,45.4234375 83.1410515,47.2250625 83.1410515,49.40425 Z M49.263027,3.28125 L62.8257108,3.28125 C62.7201324,4.960375 62.1523211,6.49315625 61.2706103,7.7144375 C59.5861544,7.2975 57.8375662,7.07721875 56.0444779,7.07721875 C54.2511716,7.07721875 52.5025833,7.2975 50.8181275,7.7144375 C49.9364167,6.49315625 49.3688235,4.960375 49.263027,3.28125 Z M56.0444779,10.35825 C66.1994216,10.35825 74.7072108,18.6377188 76.7507206,29.6443438 L71.2218137,29.6443438 C70.3182892,29.6443438 69.5857843,30.3789063 69.5857843,31.2849688 C69.5857843,32.1910313 70.3182892,32.9255938 71.2218137,32.9255938 L78.5597328,32.9255938 C79.4619485,32.9255938 80.1957623,33.6614688 80.1957623,34.5662188 L80.1957623,37.4624688 C80.1957623,38.3672188 79.4619485,39.1030938 78.5597328,39.1030938 L33.529223,39.1030938 C32.6270074,39.1030938 31.8931936,38.3672188 31.8931936,37.4624688 L31.8931936,34.5662188 C31.8931936,33.6614688 32.6270074,32.9255938 33.529223,32.9255938 L62.2781863,32.9255938 C63.1817108,32.9255938 63.9142157,32.1910313 63.9142157,31.2849688 C63.9142157,30.3789063 63.1817108,29.6443438 62.2781863,29.6443438 L35.3382353,29.6443438 C37.3817451,18.6377188 45.8895343,10.35825 56.0444779,10.35825 Z M33.2347377,53.703125 C30.8710025,53.703125 28.9479044,51.774625 28.9479044,49.40425 C28.9479044,47.2250625 30.5747721,45.4236563 32.6734706,45.1465 L32.6734706,45.9545625 C32.6734706,48.57475 33.1010196,51.1958125 33.9083456,53.703125 L33.2347377,53.703125 Z M41.8799534,61.0868125 C38.1085784,56.9736563 35.9455294,51.4580938 35.9455294,45.9543438 L35.9455294,42.384125 L76.1432083,42.384125 L76.1432083,45.9543438 C76.1432083,51.4580938 73.9803775,56.9736563 70.2087843,61.0868125 C66.3556078,65.2892188 61.3253627,67.6038125 56.0442598,67.6038125 C50.763375,67.6038125 45.7329118,65.2894375 41.8799534,61.0868125 Z M56.0444779,70.8850625 C57.8894828,70.8850625 59.7056936,70.6453125 61.465625,70.182875 L61.465625,71.9418438 C61.465625,72.8479063 62.1981299,73.5824688 63.1016544,73.5824688 L68.7531544,73.5824688 C65.1501814,76.838125 60.669424,78.6524375 56.0446961,78.6524375 C51.41975,78.6524375 46.9392108,76.838125 43.3362377,73.5824688 L48.9877377,73.5824688 C49.8912623,73.5824688 50.6237672,72.8479063 50.6237672,71.9418438 L50.6237672,70.182875 C52.3832623,70.6453125 54.1992549,70.8850625 56.0444779,70.8850625 Z M60.1116471,102.810531 C60.3649044,103.423469 60.9615098,103.823344 61.6231201,103.823344 L66.6871765,103.823344 C67.0543015,103.823344 67.3642745,104.134406 67.3642745,104.502563 L67.3642745,108.039531 C67.3642745,108.407688 67.0540833,108.71875 66.6871765,108.71875 L58.2398113,108.71875 L58.2398113,101.765781 C58.2398113,101.647875 58.2306495,101.532156 58.217125,101.41775 L60.8845074,98.7430938 C61.0585809,98.5685313 61.2631936,98.5425 61.3698627,98.5425 C61.4715147,98.5425 61.6663113,98.5665625 61.8275147,98.728 C62.0788088,98.98 62.0716103,99.4129063 61.8122451,99.6732188 L60.4665564,101.022688 C59.9984338,101.491688 59.8583897,102.197594 60.1116471,102.810531 Z M85.535326,108.71875 L70.5761275,108.71875 C70.6147377,108.498031 70.6363333,108.271406 70.6363333,108.039531 L70.6363333,104.502563 C70.6363333,102.318781 68.8646225,100.542094 66.6871765,100.542094 L65.0476569,100.542094 C65.5528627,99.1447188 65.2511789,97.5209375 64.1406422,96.4077188 C63.4033382,95.6685625 62.4193211,95.26125 61.3696446,95.26125 C60.3114608,95.26125 59.3174093,95.6738125 58.5705074,96.4230313 L56.0486225,98.9522188 C55.8224142,98.895125 55.5870441,98.8614375 55.3436029,98.8614375 L50.935049,98.8614375 C50.0315245,98.8614375 49.2990196,99.596 49.2990196,100.502063 C49.2990196,101.408125 50.0315245,102.142688 50.935049,102.142688 L54.9677525,102.142688 L54.9677525,108.71875 L26.5534118,108.71875 L26.5536299,88.2045938 L33.3073775,88.2045938 C33.7951324,88.2045938 34.191924,88.6022813 34.191924,89.0914063 L34.191924,100.502063 C34.191924,101.408125 34.9244289,102.142688 35.8279534,102.142688 L43.3002451,102.142688 C44.2037696,102.142688 44.9362745,101.408125 44.9362745,100.502063 C44.9362745,99.596 44.2037696,98.8614375 43.3002451,98.8614375 L37.4637647,98.8614375 L37.4637647,89.0914063 C37.4637647,86.7932188 35.5991275,84.9233438 33.3071593,84.9233438 L26.5534118,84.9233438 L26.5534118,76.9967188 C26.5534118,75.1139375 28.0808088,73.5824688 29.958098,73.5824688 L32.3344853,73.5824688 L34.3378578,76.1090313 C39.8203015,83.0230625 47.7319216,86.9885625 56.0440417,86.9885625 C64.3563799,86.9885625 72.268,83.0230625 77.7504436,76.1090313 L79.7540343,73.5824688 L82.1306397,73.5824688 C84.0079289,73.5824688 85.535326,75.1141563 85.535326,76.9967188 L85.535326,108.71875 Z" id="Shape" fill="#000000"></path>
                                    <path d="M77.5152917,85.6124062 C75.999674,85.6124062 74.5752377,86.2043438 73.5048382,87.2781875 L73.4566299,87.3265313 L73.4086397,87.2784062 C72.3371495,86.2039063 70.9129314,85.6121875 69.39775,85.6121875 C67.8825686,85.6121875 66.4579142,86.2039062 65.3866422,87.2784062 C64.3162426,88.3518125 63.7268358,89.7800312 63.7268358,91.3005625 C63.7268358,92.8210937 64.3162426,94.2495312 65.3866422,95.3229375 L71.7030245,101.657062 C72.1656936,102.119937 72.7801863,102.374781 73.4335074,102.374781 C74.0848652,102.374781 74.6976127,102.12125 75.1583186,101.662094 L81.5261814,95.3231562 C82.5978897,94.2486562 83.187951,92.8202187 83.187951,91.3005625 C83.187951,89.7809062 82.5978897,88.3524687 81.5266176,87.278625 C80.4551275,86.204125 79.030473,85.6124062 77.5152917,85.6124062 Z M79.2165441,92.9987187 L73.4352525,98.7540312 L67.700424,93.0030937 C67.2480074,92.5494062 66.9988946,91.9447812 66.9988946,91.3007812 C66.9988946,90.6567813 67.2480074,90.052375 67.7002059,89.5989062 C68.1537132,89.144125 68.7564265,88.893875 69.39775,88.893875 C70.0388554,88.893875 70.6415686,89.1443438 71.095076,89.599125 L72.2996299,90.8068437 C72.9385539,91.4473438 73.9740515,91.4473438 74.6129755,90.8068437 L75.818402,89.5984687 C76.271473,89.1439063 76.8739681,88.8936563 77.5150735,88.8936563 C78.1561789,88.8936563 78.7591103,89.144125 79.2123995,89.5989062 C79.6656887,90.05325 79.9154559,90.6576563 79.9154559,91.3005625 C79.9154559,91.9436875 79.6659069,92.5480937 79.2165441,92.9987187 Z" id="Shape" fill="#000000"></path>
                                    <path d="M50.8429951,45.5067813 C50.2040711,44.8660625 49.1681373,44.8660625 48.5294314,45.5067813 C47.098451,46.9417813 44.7702721,46.9417813 43.3392917,45.5067813 C42.7003676,44.8660625 41.6644338,44.8660625 41.0257279,45.5067813 C40.3868039,46.1475 40.3868039,47.1863438 41.0257279,47.8268438 C42.3790515,49.1839688 44.1568701,49.8625313 45.9344706,49.8625313 C47.7120711,49.8625313 49.4898897,49.1839688 50.8432132,47.8268438 C51.4819191,47.1863438 51.4819191,46.1475 50.8429951,45.5067813 Z" id="Shape" fill="#000000"></path>
                                    <path d="M66.1547034,49.86275 C67.9323039,49.86275 69.7101225,49.1841875 71.0634461,47.8270625 C71.7023701,47.1863438 71.7023701,46.1475 71.0634461,45.507 C70.4245221,44.8662813 69.3885882,44.8662813 68.7498824,45.507 C67.318902,46.942 64.990723,46.942 63.5597426,45.507 C62.9208186,44.8662813 61.8848848,44.8662813 61.2461789,45.507 C60.6072549,46.1477188 60.6072549,47.1865625 61.2461789,47.8270625 C62.5992843,49.1841875 64.3771029,49.86275 66.1547034,49.86275 Z" id="Shape" fill="#000000"></path>
                                    <path d="M57.1351642,55.1532188 L58.5648358,55.1532188 C59.4683603,55.1532188 60.2008652,54.4186563 60.2008652,53.5125938 C60.2008652,52.6065313 59.4683603,51.8719688 58.5648358,51.8719688 L57.6805074,51.8719688 L57.6805074,48.2048438 C57.6805074,47.2987813 56.9480025,46.5642188 56.0444779,46.5642188 C55.1409534,46.5642188 54.4084485,47.2987813 54.4084485,48.2048438 L54.4084485,52.4188438 C54.4084485,53.9266875 55.6315441,55.1532188 57.1351642,55.1532188 Z" id="Shape" fill="#000000"></path>
                                    <path d="M63.3093211,60.2549062 C63.9482451,59.6141875 63.9482451,58.5753437 63.3093211,57.934625 C62.6703971,57.2939063 61.6344632,57.2939063 60.9955392,57.934625 C58.2653333,60.6725 53.8231863,60.6725 51.0929804,57.934625 C50.4540564,57.2939063 49.4181225,57.2939063 48.7794167,57.934625 C48.1404926,58.5753437 48.1404926,59.6141875 48.7794167,60.2549062 C50.7823529,62.2634688 53.4133064,63.26775 56.0442598,63.26775 C58.6754314,63.26775 61.3063848,62.2634687 63.3093211,60.2549062 Z" id="Shape" fill="#000000"></path>
                                    <path d="M16.2750025,29.8475625 L14.2999877,29.8475625 L14.2999877,27.867 C14.2999877,26.9609375 13.5674828,26.226375 12.6639583,26.226375 C11.7604338,26.226375 11.0279289,26.9609375 11.0279289,27.867 L11.0279289,29.8475625 L9.05291422,29.8475625 C8.14938971,29.8475625 7.4168848,30.582125 7.4168848,31.4881875 C7.4168848,32.39425 8.14938971,33.1288125 9.05291422,33.1288125 L11.0279289,33.1288125 L11.0279289,35.109375 C11.0279289,36.0154375 11.7604338,36.75 12.6639583,36.75 C13.5674828,36.75 14.2999877,36.0154375 14.2999877,35.109375 L14.2999877,33.1288125 L16.2750025,33.1288125 C17.178527,33.1288125 17.9110319,32.39425 17.9110319,31.4881875 C17.9110319,30.582125 17.178527,29.8475625 16.2750025,29.8475625 Z" id="Shape" fill="#000000"></path>
                                </g>
                            </g>
                        </g>
                    </g>
                </g>
            </g>
        </g>
    </g>
</svg>