<?xml version="1.0" encoding="UTF-8"?>
<svg width="136px" height="122px" viewBox="0 0 136 122" version="1.1" xmlns="http://www.w3.org/2000/svg" xmlns:xlink="http://www.w3.org/1999/xlink">
    <!-- Generator: Sketch 51.1 (57501) - http://www.bohemiancoding.com/sketch -->
    <title>search_by_name</title>
    <desc>Created with Sketch.</desc>
    <defs></defs>
    <g id="Page-1" stroke="none" stroke-width="1" fill="none" fill-rule="evenodd">
        <g id="healthcare_industry" transform="translate(-288.000000, -5230.000000)">
            <g id="video_section" transform="translate(191.000000, 5108.000000)">
                <g id="Group-5" transform="translate(0.000000, 122.000000)">
                    <g id="search_by_name" transform="translate(97.000000, 0.000000)">
                        <circle id="Oval-2" fill="#FFFFFF" cx="72" cy="61" r="61"></circle>
                        <g id="factory-(2)" transform="translate(0.000000, 31.000000)">
                            <path d="M110.169403,30.5058824 L128.3,30.5058824 C132.552592,30.5058824 136,33.9532899 136,38.2058825 L136,38.2882351 C136,42.5408278 132.552592,45.9882353 128.3,45.9882353 L110,45.9882353 L110.169403,30.5058824 Z" id="Rectangle-4" fill="#E3ECFF" opacity="0.445708786"></path>
                            <path d="M7.84414765,18.0235294 L23.4000746,18.0235294 C27.6526673,18.0235294 31.1000748,21.4709369 31.1000748,25.7235296 L31.1000748,25.8058822 C31.1000748,30.0584749 27.6526673,33.5058824 23.4000746,33.5058824 L7.64085706,33.5058824 C3.42092823,33.5058824 -3.76781939e-14,30.0849541 -3.8191672e-14,25.8650253 C-3.8191672e-14,25.8315844 0.000219535451,25.7981439 0.000658592161,25.7647059 L0.000658592161,25.7647059 C0.0570103283,21.4730293 3.55210113,18.0235294 7.84414765,18.0235294 Z" id="Rectangle-4" fill="#E3ECFF" transform="translate(15.550037, 25.764706) scale(-1, 1) translate(-15.550037, -25.764706) "></path>
                            <ellipse id="Oval-5" fill="#31AC46" cx="37.7130435" cy="2.85882353" rx="2.20869565" ry="2.21176471"></ellipse>
                            <ellipse id="Oval-5" fill="#398FC7" cx="126.06087" cy="58.1529412" rx="2.20869565" ry="2.21176471"></ellipse>
                            <ellipse id="Oval-5" fill="#FF6B6B" cx="15.626087" cy="58.1529412" rx="2.20869565" ry="2.21176471"></ellipse>
                            <g id="id-card" transform="translate(32.000000, 1.000000)" fill-rule="nonzero">
                                <path d="M74.3773333,0 L5.62266667,0 C2.52266667,0 0,2.537 0,5.65461364 L0,53.3453864 C0,56.463 2.52266667,59 5.62266667,59 L74.3773333,59 C77.4773333,59 80,56.463 80,53.3453864 L80,5.65461364 C80,2.537 77.4773333,0 74.3773333,0 Z M77.3333333,53.3453864 C77.3333333,54.9853182 76.008,56.3181818 74.3773333,56.3181818 L5.62266667,56.3181818 C3.992,56.3181818 2.66666667,54.9853182 2.66666667,53.3453864 L2.66666667,5.65461364 C2.66666667,4.01468182 3.992,2.68181818 5.62266667,2.68181818 L74.3773333,2.68181818 C76.008,2.68181818 77.3333333,4.01468182 77.3333333,5.65461364 L77.3333333,53.3453864 Z" id="Shape" fill="#00456B"></path>
                                <path d="M30.184,37.8753182 L25.3333333,35.3839091 L25.3333333,34.8649773 C27.504,33.6729091 29.0306667,31.7098182 29.8826667,29.01325 C31.1746667,28.3240227 32,26.9817727 32,25.4772727 L32,24.1363636 C32,22.8946818 31.4253333,21.7428409 30.4653333,20.9865682 C29.6333333,15.9179318 26.116,13.34875 20,13.34875 C19.7106667,13.34875 19.428,13.3594773 19.152,13.3809318 C18,13.4761364 16.3133333,13.3755682 14.8533333,12.3886591 C14.308,12.0185682 13.896,11.6592045 13.6333333,11.3253182 C13.1853333,10.7500682 12.432,10.5489318 11.764,10.8251591 C11.0946667,11.1013864 10.7013333,11.7745227 10.7853333,12.4972727 C10.8413333,12.9987727 10.9253333,13.5820682 11.052,14.2216818 C11.3093333,15.5290682 11.3093333,15.5290682 10.948,16.3108182 C10.812,16.6071591 10.644,16.9678636 10.4466667,17.4546136 C10.0053333,18.5420909 9.692,19.7328182 9.512,21.004 C8.56533333,21.7616136 8,22.90675 8,24.1363636 L8,25.4772727 C8,26.9817727 8.82533333,28.3240227 10.1173333,29.01325 C10.9693333,31.7111591 12.496,33.67425 14.6666667,34.8649773 L14.6666667,35.3691591 L9.64133333,37.8605682 C7.80666667,38.86625 6.66666667,40.7971591 6.66666667,42.8997045 L6.66666667,44.6764091 C6.66666667,45.7531591 6.66666667,48.2727273 20,48.2727273 C33.3333333,48.2727273 33.3333333,45.7531591 33.3333333,44.6764091 L33.3333333,43.0069773 C33.3333333,40.8199545 32.1266667,38.8555227 30.184,37.8753182 Z M30.6666667,44.3733636 C29.8346667,44.8829091 26.4506667,45.5909091 20,45.5909091 C13.5493333,45.5909091 10.1653333,44.8829091 9.33333333,44.3733636 L9.33333333,42.8997045 C9.33333333,41.7800455 9.94,40.7502273 10.8693333,40.2420227 L16.012,37.6929545 C16.8146667,37.2987273 17.332,36.4633409 17.332,35.5635909 L17.332,33.1459318 L16.5266667,32.7972955 C14.504,31.9203409 13.1893333,30.2482273 12.5066667,27.6830682 L12.316,26.9683636 L11.6146667,26.7484545 C11.0573333,26.5727955 10.6666667,26.0511818 10.6666667,25.4772727 L10.6666667,24.1363636 C10.6666667,23.6509545 10.9426667,23.2004091 11.388,22.9617273 L12.0133333,22.6265 L12.0866667,21.9171591 C12.2186667,20.6593864 12.4973333,19.4995 12.916,18.4710227 C13.0933333,18.0352273 13.244,17.7093864 13.3666667,17.4425455 C13.8186667,16.4663636 13.9826667,15.9621818 13.8693333,14.9283409 C15.4373333,15.8294318 17.3213333,16.2129318 19.3653333,16.0560455 C19.572,16.0386136 19.784,16.0305682 20.0013333,16.0305682 C24.9933333,16.0305682 27.4306667,17.8488409 27.9066667,21.9278864 L27.9893333,22.6278409 L28.6093333,22.9577045 C29.0546667,23.1963864 29.3333333,23.6482727 29.3333333,24.1363636 L29.3333333,25.4772727 C29.3333333,26.0511818 28.9426667,26.5727955 28.384,26.7471136 L27.6826667,26.9670227 L27.492,27.6817273 C26.8093333,30.2468864 25.4946667,31.919 23.472,32.7959545 L22.6666667,33.1459318 L22.6666667,35.5743182 C22.6666667,36.4713864 23.16,37.2799545 23.952,37.68625 L28.9853333,40.2728636 C30.0226667,40.7931364 30.6666667,41.8417273 30.6666667,43.0069773 L30.6666667,44.3733636 Z" id="Shape" fill="#398FC7"></path>
                                <path d="M40,20.1136364 L53.3333333,20.1136364 C54.0706667,20.1136364 54.6666667,19.51425 54.6666667,18.7727273 C54.6666667,18.0312045 54.0706667,17.4318182 53.3333333,17.4318182 L40,17.4318182 C39.2626667,17.4318182 38.6666667,18.0312045 38.6666667,18.7727273 C38.6666667,19.51425 39.2626667,20.1136364 40,20.1136364 Z" id="Shape" fill="#398FC7"></path>
                                <path d="M58.6666667,20.1136364 L60,20.1136364 C60.7373333,20.1136364 61.3333333,19.51425 61.3333333,18.7727273 C61.3333333,18.0312045 60.7373333,17.4318182 60,17.4318182 L58.6666667,17.4318182 C57.9293333,17.4318182 57.3333333,18.0312045 57.3333333,18.7727273 C57.3333333,19.51425 57.9293333,20.1136364 58.6666667,20.1136364 Z" id="Shape" fill="#00456B"></path>
                                <path d="M41.3333333,40.2272727 L40,40.2272727 C39.2626667,40.2272727 38.6666667,40.8266591 38.6666667,41.5681818 C38.6666667,42.3097045 39.2626667,42.9090909 40,42.9090909 L41.3333333,42.9090909 C42.0706667,42.9090909 42.6666667,42.3097045 42.6666667,41.5681818 C42.6666667,40.8266591 42.0706667,40.2272727 41.3333333,40.2272727 Z" id="Shape" fill="#398FC7"></path>
                                <path d="M49.3333333,40.2272727 L46.6666667,40.2272727 C45.9293333,40.2272727 45.3333333,40.8266591 45.3333333,41.5681818 C45.3333333,42.3097045 45.9293333,42.9090909 46.6666667,42.9090909 L49.3333333,42.9090909 C50.0706667,42.9090909 50.6666667,42.3097045 50.6666667,41.5681818 C50.6666667,40.8266591 50.0706667,40.2272727 49.3333333,40.2272727 Z" id="Shape" fill="#398FC7"></path>
                                <path d="M56,40.2272727 L54.6666667,40.2272727 C53.9293333,40.2272727 53.3333333,40.8266591 53.3333333,41.5681818 C53.3333333,42.3097045 53.9293333,42.9090909 54.6666667,42.9090909 L56,42.9090909 C56.7373333,42.9090909 57.3333333,42.3097045 57.3333333,41.5681818 C57.3333333,40.8266591 56.7373333,40.2272727 56,40.2272727 Z" id="Shape" fill="#00456B"></path>
                                <path d="M64,40.2272727 L61.3333333,40.2272727 C60.596,40.2272727 60,40.8266591 60,41.5681818 C60,42.3097045 60.596,42.9090909 61.3333333,42.9090909 L64,42.9090909 C64.7373333,42.9090909 65.3333333,42.3097045 65.3333333,41.5681818 C65.3333333,40.8266591 64.7373333,40.2272727 64,40.2272727 Z" id="Shape" fill="#398FC7"></path>
                                <path d="M68.3866667,40.6161364 C68.1453333,40.8695682 68,41.2195455 68,41.5681818 C68,41.9168182 68.1453333,42.2654545 68.3866667,42.5202273 C68.6386667,42.7615909 68.9866667,42.9090909 69.3333333,42.9090909 C69.68,42.9090909 70.0266667,42.7615909 70.28,42.5202273 C70.52,42.2654545 70.6666667,41.9168182 70.6666667,41.5681818 C70.6666667,41.2195455 70.52,40.8695682 70.28,40.6161364 C69.7733333,40.12 68.88,40.12 68.3866667,40.6161364 Z" id="Shape" fill="#00456B"></path>
                                <path d="M69.3333333,25.4772727 L40,25.4772727 C39.2626667,25.4772727 38.6666667,26.0766591 38.6666667,26.8181818 C38.6666667,27.5597045 39.2626667,28.1590909 40,28.1590909 L69.3333333,28.1590909 C70.0706667,28.1590909 70.6666667,27.5597045 70.6666667,26.8181818 C70.6666667,26.0766591 70.0706667,25.4772727 69.3333333,25.4772727 Z" id="Shape" fill="#00456B"></path>
                                <path d="M69.3333333,33.5227273 L40,33.5227273 C39.2626667,33.5227273 38.6666667,34.1221136 38.6666667,34.8636364 C38.6666667,35.6051591 39.2626667,36.2045455 40,36.2045455 L69.3333333,36.2045455 C70.0706667,36.2045455 70.6666667,35.6051591 70.6666667,34.8636364 C70.6666667,34.1221136 70.0706667,33.5227273 69.3333333,33.5227273 Z" id="Shape" fill="#00456B"></path>
                            </g>
                        </g>
                    </g>
                </g>
            </g>
        </g>
    </g>
</svg>