<?xml version="1.0" encoding="UTF-8"?>
<svg width="131px" height="122px" viewBox="0 0 131 122" version="1.1" xmlns="http://www.w3.org/2000/svg" xmlns:xlink="http://www.w3.org/1999/xlink">
    <!-- Generator: Sketch 51.1 (57501) - http://www.bohemiancoding.com/sketch -->
    <title>search_by_relation</title>
    <desc>Created with Sketch.</desc>
    <defs></defs>
    <g id="Page-1" stroke="none" stroke-width="1" fill="none" fill-rule="evenodd">
        <g id="healthcare_industry" transform="translate(-1096.000000, -5231.000000)">
            <g id="video_section" transform="translate(191.000000, 5108.000000)">
                <g id="Group-5" transform="translate(798.000000, 123.000000)">
                    <g id="search_by_relation" transform="translate(107.000000, 0.000000)">
                        <circle id="Oval-2" fill="#FFFFFF" cx="64" cy="61" r="61"></circle>
                        <g id="factory-(2)" transform="translate(0.000000, 30.000000)">
                            <path d="M7.84414765,15.0235294 L23.4000746,15.0235294 C27.6526673,15.0235294 31.1000748,18.4709369 31.1000748,22.7235296 L31.1000748,22.8058822 C31.1000748,27.0584749 27.6526673,30.5058824 23.4000746,30.5058824 L7.64085706,30.5058824 C3.42092823,30.5058824 -3.76781939e-14,27.0849541 -3.8191672e-14,22.8650253 C-3.8191672e-14,22.8315844 0.000219535451,22.7981439 0.000658592161,22.7647059 L0.000658592161,22.7647059 C0.0570103283,18.4730293 3.55210113,15.0235294 7.84414765,15.0235294 Z" id="Rectangle-4" fill="#E3ECFF" transform="translate(15.550037, 22.764706) scale(-1, 1) translate(-15.550037, -22.764706) "></path>
                            <path d="M106.844148,31 L122.400075,31 C126.652667,31 130.100075,34.4474075 130.100075,38.7000002 L130.100075,38.7823528 C130.100075,43.0349454 126.652667,46.4823529 122.400075,46.4823529 L106.640857,46.4823529 C102.420928,46.4823529 99,43.0614247 99,38.8414959 C99,38.808055 99.0002195,38.7746145 99.0006586,38.7411765 L99.0006586,38.7411765 C99.0570103,34.4494999 102.552101,31 106.844148,31 Z" id="Rectangle-4" fill="#E3ECFF" opacity="0.449999988" transform="translate(114.550037, 38.741176) scale(-1, 1) translate(-114.550037, -38.741176) "></path>
                            <ellipse id="Oval-5" fill="#31AC46" cx="28.7130435" cy="2.85882353" rx="2.20869565" ry="2.21176471"></ellipse>
                            <ellipse id="Oval-5" fill="#398FC7" cx="117.06087" cy="58.1529412" rx="2.20869565" ry="2.21176471"></ellipse>
                            <ellipse id="Oval-5" fill="#FF6B6B" cx="6.62608696" cy="58.1529412" rx="2.20869565" ry="2.21176471"></ellipse>
                            <g id="link" transform="translate(33.000000, 2.000000)" fill-rule="nonzero">
                                <path d="M33.2869565,25.2875831 C32.5956522,25.9809313 32.5956522,27.0929047 33.2869565,27.7862528 C36.1434783,30.6512195 36.1434783,35.3084257 33.2869565,38.1733925 L18.2869565,53.2177384 C15.4304348,56.0827051 10.7869565,56.0827051 7.93043478,53.2177384 L5.67391304,50.9545455 C2.8173913,48.0895787 2.8173913,43.4323725 5.67391304,40.5674058 L20.673913,25.5230599 C21.3652174,24.8297118 21.3652174,23.7177384 20.673913,23.0243902 C19.9826087,22.3310421 18.873913,22.3310421 18.1826087,23.0243902 L3.1826087,38.0687361 C1.13478261,40.1226164 0,42.8567627 0,45.7609756 C0,48.6651885 1.12173913,51.3993348 3.1826087,53.4532151 L5.43913043,55.716408 C7.55217391,57.8356984 10.3304348,58.8953437 13.1086957,58.8953437 C15.8869565,58.8953437 18.6652174,57.8356984 20.7782609,55.716408 L35.7782609,40.6720621 C40.0043478,36.4334812 40.0043478,29.5261641 35.7782609,25.2875831 C35.1,24.594235 33.9782609,24.594235 33.2869565,25.2875831 Z" id="Shape" fill="#398FC7"></path>
                                <path d="M59.8043478,5.52062084 L57.5478261,3.25742794 C53.3217391,-0.981152993 46.4347826,-0.981152993 42.2086957,3.25742794 L27.2086957,18.3017738 C22.9826087,22.5403548 22.9826087,29.4476718 27.2086957,33.6862528 C27.9,34.3796009 29.0086957,34.3796009 29.7,33.6862528 C30.3913043,32.9929047 30.3913043,31.8809313 29.7,31.1875831 C26.8434783,28.3226164 26.8434783,23.6654102 29.7,20.8004435 L44.7,5.75609756 C47.5565217,2.89113082 52.2,2.89113082 55.0565217,5.75609756 L57.3130435,8.01929047 C60.1695652,10.8842572 60.1695652,15.5414634 57.3130435,18.4064302 L42.3130435,33.4507761 C41.6217391,34.1441242 41.6217391,35.2560976 42.3130435,35.9494457 C42.6521739,36.2895787 43.1086957,36.4727273 43.5521739,36.4727273 C43.9956522,36.4727273 44.4521739,36.3026608 44.7913043,35.9494457 L59.7913043,20.9050998 C61.8391304,18.8512195 62.973913,16.1170732 62.973913,13.2128603 C62.973913,10.3086475 61.8521739,7.57450111 59.8043478,5.52062084 Z" id="Shape" fill="#00456B"></path>
                            </g>
                        </g>
                    </g>
                </g>
            </g>
        </g>
    </g>
</svg>