<?xml version="1.0" encoding="UTF-8"?>
<svg width="127px" height="122px" viewBox="0 0 127 122" version="1.1" xmlns="http://www.w3.org/2000/svg" xmlns:xlink="http://www.w3.org/1999/xlink">
    <!-- Generator: Sketch 51.1 (57501) - http://www.bohemiancoding.com/sketch -->
    <title>search_by_map</title>
    <desc>Created with Sketch.</desc>
    <defs></defs>
    <g id="Page-1" stroke="none" stroke-width="1" fill="none" fill-rule="evenodd">
        <g id="healthcare_industry" transform="translate(-1495.000000, -5231.000000)">
            <g id="video_section" transform="translate(191.000000, 5108.000000)">
                <g id="Group-5" transform="translate(1197.000000, 123.000000)">
                    <g id="search_by_map" transform="translate(107.000000, 0.000000)">
                        <circle id="Oval-2" fill="#FFFFFF" cx="64" cy="61" r="61"></circle>
                        <g id="factory-(2)" transform="translate(0.000000, 25.000000)">
                            <path d="M96.0022291,34.5058824 L119.3,34.5058824 C123.552592,34.5058824 127,37.9532899 127,42.2058825 L127,42.2882351 C127,46.5408278 123.552592,49.9882353 119.3,49.9882353 L95.7989385,49.9882353 L96.0022291,34.5058824 Z" id="Rectangle-4" fill="#E3ECFF" opacity="0.445708786"></path>
                            <path d="M7.84414765,19.0235294 L23.4000746,19.0235294 C27.6526673,19.0235294 31.1000748,22.4709369 31.1000748,26.7235296 L31.1000748,26.8058822 C31.1000748,31.0584749 27.6526673,34.5058824 23.4000746,34.5058824 L7.64085706,34.5058824 C3.42092823,34.5058824 -3.76781939e-14,31.0849541 -3.8191672e-14,26.8650253 C-3.8191672e-14,26.8315844 0.000219535451,26.7981439 0.000658592161,26.7647059 L0.000658592161,26.7647059 C0.0570103283,22.4730293 3.55210113,19.0235294 7.84414765,19.0235294 Z" id="Rectangle-4" fill="#E3ECFF" transform="translate(15.550037, 26.764706) scale(-1, 1) translate(-15.550037, -26.764706) "></path>
                            <ellipse id="Oval-5" fill="#31AC46" cx="28.7130435" cy="6.85882353" rx="2.20869565" ry="2.21176471"></ellipse>
                            <ellipse id="Oval-5" fill="#398FC7" cx="117.06087" cy="62.1529412" rx="2.20869565" ry="2.21176471"></ellipse>
                            <ellipse id="Oval-5" fill="#FF6B6B" cx="6.62608696" cy="62.1529412" rx="2.20869565" ry="2.21176471"></ellipse>
                            <g id="map-location" transform="translate(27.000000, 0.000000)" fill-rule="nonzero">
                                <path d="M69.225,29.3506667 L54.628125,29.3506667 C53.8875,29.3506667 53.2888393,29.9466667 53.2888393,30.684 C53.2888393,31.4213333 53.8875,32.0173333 54.628125,32.0173333 L66.8183036,32.0173333 L70.7008929,68.0173333 L3.0375,68.0173333 L7.59508929,32.0173333 L19.8066964,32.0173333 C20.5473214,32.0173333 21.1459821,31.4213333 21.1459821,30.684 C21.1459821,29.9466667 20.5473214,29.3506667 19.8066964,29.3506667 L5.23258929,29.3506667 L0,70.684 L73.6834821,70.684 L69.225,29.3506667 Z" id="Shape" fill="#00456B"></path>
                                <path d="M35.6973214,50.624 C35.5004464,50.74 35.2901786,50.8426667 35.1013393,50.964 C34.8066964,51.1533333 34.51875,51.352 34.2361607,51.5573333 C33.6401786,51.9933333 33.5116071,52.828 33.9482143,53.4213333 C34.2107143,53.7773333 34.6178571,53.9653333 35.0303571,53.9653333 C35.3049107,53.9653333 35.5821429,53.8813333 35.821875,53.708 C36.0602679,53.5333333 36.3026786,53.3653333 36.5558036,53.2026667 C36.9857143,52.9253333 37.4424107,52.6653333 37.9138393,52.428 C38.540625,52.112 38.7950893,51.3733333 38.5325893,50.736 C38.5433036,50.7253333 38.5566964,50.7173333 38.5660714,50.7066667 C40.9888393,48.152 49.153125,38.5786667 52.5334821,22.6293333 C53.2191964,19.3946667 53.3732143,16.2906667 52.9915179,13.404 C51.8397321,4.63733333 46.36875,0.00266666667 37.1705357,0.00266666667 C27.975,0.00266666667 22.5040179,4.63733333 21.3495536,13.404 C20.9691964,16.292 21.1232143,19.396 21.8089286,22.6293333 C25.1558036,38.424 33.1915179,47.96 35.6973214,50.624 Z M24.0053571,13.752 C24.9870536,6.296 29.2941964,2.67066667 37.171875,2.67066667 C45.0508929,2.67066667 49.3566964,6.296 50.3370536,13.752 C50.6785714,16.3386667 50.5352679,19.1426667 49.9138393,22.0813333 C46.875,36.4186667 39.6294643,45.516 37.171875,48.276 C34.7116071,45.5133333 27.4674107,36.412 24.4299107,22.0813333 C23.8071429,19.1426667 23.6651786,16.34 24.0053571,13.752 Z" id="Shape" fill="#00456B"></path>
                                <path d="M37.171875,25.2333333 C42.5973214,25.2333333 47.0102679,20.84 47.0102679,15.4386667 C47.0102679,10.0373333 42.5973214,5.644 37.171875,5.644 C31.7464286,5.644 27.3334821,10.0373333 27.3334821,15.4386667 C27.3334821,20.84 31.7464286,25.2333333 37.171875,25.2333333 Z M37.171875,8.312 C41.11875,8.312 44.3316964,11.5093333 44.3316964,15.44 C44.3316964,19.3706667 41.1200893,22.568 37.171875,22.568 C33.2236607,22.568 30.0120536,19.3706667 30.0120536,15.44 C30.0120536,11.5093333 33.225,8.312 37.171875,8.312 Z" id="Shape" fill="#00456B"></path>
                                <path d="M42.0910714,48.2266667 C41.3678571,48.3786667 40.9071429,49.088 41.0611607,49.8093333 C41.1950893,50.436 41.7508929,50.864 42.3696429,50.864 C42.4620536,50.864 42.5571429,50.8546667 42.6508929,50.8346667 C43.4357143,50.6693333 44.2861607,50.5293333 45.1767857,50.4173333 C45.9107143,50.328 46.4330357,49.6613333 46.340625,48.9306667 C46.2495536,48.1986667 45.5866071,47.6706667 44.8473214,47.772 C43.8790179,47.8906667 42.9508929,48.044 42.0910714,48.2266667 Z" id="Shape" fill="#398FC7"></path>
                                <path d="M49.0165179,48.768 C49.0459821,49.484 49.640625,50.044 50.353125,50.044 C50.3732143,50.044 50.3919643,50.044 50.4120536,50.0426667 L53.0919643,49.932 C53.8299107,49.8986667 54.403125,49.2746667 54.3683036,48.54 C54.3348214,47.8026667 53.6464286,47.228 52.9700893,47.268 L50.296875,47.3786667 C49.5575893,47.4093333 48.984375,48.0306667 49.0165179,48.768 Z" id="Shape" fill="#398FC7"></path>
                                <path d="M30.0441964,54.9026667 C29.3558036,55.42 28.6446429,55.9173333 27.928125,56.3786667 C27.3080357,56.78 27.13125,57.6053333 27.534375,58.224 C27.7901786,58.6173333 28.2214286,58.8306667 28.659375,58.8306667 C28.9098214,58.8306667 29.1616071,58.7613333 29.3879464,58.616 C30.1553571,58.12 30.9200893,57.5866667 31.6580357,57.032 C32.2473214,56.588 32.3651786,55.752 31.9205357,55.164 C31.4745536,54.5813333 30.6375,54.4586667 30.0441964,54.9026667 Z" id="Shape" fill="#398FC7"></path>
                                <path d="M59.8928571,46.1106667 C59.4401786,46.4266667 58.8522321,46.656 58.0901786,46.812 C57.365625,46.96 56.8995536,47.6666667 57.0495536,48.388 C57.1808036,49.0186667 57.7379464,49.452 58.3607143,49.452 C58.4504464,49.452 58.5415179,49.4426667 58.6325893,49.424 C59.7602679,49.192 60.6763393,48.8213333 61.4397321,48.2866667 L61.6191964,48.156 C62.2084821,47.7106667 62.325,46.8746667 61.8790179,46.288 C61.4316964,45.7013333 60.5933036,45.5866667 60.0026786,46.0293333 L59.8928571,46.1106667 Z" id="Shape" fill="#398FC7"></path>
                                <path d="M11.8660714,56.536 C12.0602679,55.8253333 11.6370536,55.0933333 10.9232143,54.9013333 C10.2147321,54.7026667 9.47410714,55.1266667 9.28125,55.84 C9.1125,56.4586667 9.01205357,57.0906667 8.97991071,57.7133333 C8.97321429,57.8666667 8.96919643,58.0213333 8.96919643,58.184 C8.97053571,58.4453333 8.98258929,58.7066667 9.00803571,58.9666667 C9.07901786,59.6533333 9.66026786,60.164 10.3392857,60.164 C10.3834821,60.164 10.4290179,60.1613333 10.4772321,60.1573333 C11.2125,60.0813333 11.7482143,59.428 11.6745536,58.6946667 C11.6558036,58.52 11.6491071,58.3426667 11.6477679,58.1746667 C11.6477679,58.064 11.6517857,57.9533333 11.6571429,57.844 C11.6785714,57.412 11.7482143,56.9706667 11.8660714,56.536 Z" id="Shape" fill="#398FC7"></path>
                                <path d="M59.8633929,35.7466667 C58.8,35.6053333 57.7151786,35.692 56.6678571,35.988 C55.9553571,36.1866667 55.5415179,36.924 55.74375,37.632 C55.9098214,38.22 56.446875,38.604 57.0308036,38.604 C57.1526786,38.604 57.2745536,38.588 57.3950893,38.5533333 C58.0915179,38.3586667 58.8080357,38.2973333 59.5044643,38.3906667 C60.2571429,38.484 60.9133929,37.976 61.0111607,37.248 C61.1102679,36.516 60.5959821,35.8453333 59.8633929,35.7466667 Z" id="Shape" fill="#398FC7"></path>
                                <path d="M62.5285714,42.352 C62.3102679,43.0546667 62.7066964,43.8026667 63.4125,44.0186667 C63.5450893,44.06 63.6763393,44.0786667 63.8075893,44.0786667 C64.3808036,44.0786667 64.9098214,43.712 65.0866071,43.1386667 C65.2191964,42.7146667 65.3008929,42.284 65.3316964,41.8546667 C65.3383929,41.744 65.3424107,41.632 65.3424107,41.5213333 C65.3424107,40.8973333 65.2272321,40.272 65.0008929,39.6653333 C64.74375,38.9733333 63.9683036,38.624 63.2799107,38.8786667 C62.5848214,39.1346667 62.2325893,39.9026667 62.4897321,40.592 C62.6049107,40.9013333 62.6638393,41.2146667 62.6638393,41.52 L62.6598214,41.676 C62.64375,41.8973333 62.6008929,42.1186667 62.5285714,42.352 Z" id="Shape" fill="#398FC7"></path>
                                <path d="M23.4120536,58.8853333 C22.6272321,59.252 21.8276786,59.592 21.0361607,59.8973333 C20.3464286,60.1613333 20.0035714,60.9333333 20.2700893,61.6213333 C20.475,62.1493333 20.98125,62.4746667 21.5196429,62.4746667 C21.6803571,62.4746667 21.84375,62.4466667 22.0017857,62.3853333 C22.8522321,62.0586667 23.709375,61.6933333 24.5504464,61.3013333 C25.2200893,60.9893333 25.5080357,60.1946667 25.1933036,59.528 C24.88125,58.86 24.0857143,58.5706667 23.4120536,58.8853333 Z" id="Shape" fill="#398FC7"></path>
                                <path d="M13.6620536,53.3346667 C13.8776786,53.3346667 14.0973214,53.2826667 14.3022321,53.172 C14.6879464,52.9626667 15.0991071,52.832 15.5223214,52.7866667 C15.703125,52.7653333 15.8879464,52.7653333 16.0660714,52.7893333 C16.8200893,52.8866667 17.4723214,52.372 17.56875,51.6426667 C17.6651786,50.912 17.1495536,50.2426667 16.4169643,50.1466667 C16.0178571,50.0946667 15.6120536,50.092 15.2236607,50.136 C14.4549107,50.22 13.7129464,50.4546667 13.0191964,50.8306667 C12.3696429,51.184 12.1299107,51.992 12.4848214,52.6386667 C12.7285714,53.084 13.1879464,53.3346667 13.6620536,53.3346667 Z" id="Shape" fill="#398FC7"></path>
                                <path d="M13.3834821,63.7893333 C13.6727679,63.864 13.9674107,63.92 14.259375,63.9546667 C14.6022321,63.996 14.9450893,64.0173333 15.2892857,64.0173333 C15.7084821,64.0173333 16.1290179,63.988 16.5482143,63.9346667 C17.2821429,63.8426667 17.803125,63.176 17.709375,62.4453333 C17.615625,61.7146667 16.95,61.2 16.2133929,61.2893333 C15.6723214,61.3586667 15.1258929,61.3746667 14.5848214,61.3093333 C14.4080357,61.2866667 14.23125,61.2533333 14.0571429,61.2093333 C13.340625,61.0186667 12.6107143,61.4506667 12.4232143,62.164 C12.2397321,62.8773333 12.6683036,63.6053333 13.3834821,63.7893333 Z" id="Shape" fill="#398FC7"></path>
                            </g>
                        </g>
                    </g>
                </g>
            </g>
        </g>
    </g>
</svg>