<?xml version="1.0" encoding="UTF-8"?>
<svg width="133px" height="122px" viewBox="0 0 133 122" version="1.1" xmlns="http://www.w3.org/2000/svg" xmlns:xlink="http://www.w3.org/1999/xlink">
    <!-- Generator: Sketch 51.1 (57501) - http://www.bohemiancoding.com/sketch -->
    <title>search_by_group</title>
    <desc>Created with Sketch.</desc>
    <defs></defs>
    <g id="Page-1" stroke="none" stroke-width="1" fill="none" fill-rule="evenodd">
        <g id="healthcare_industry" transform="translate(-694.000000, -5231.000000)">
            <g id="video_section" transform="translate(191.000000, 5108.000000)">
                <g id="Group-5" transform="translate(399.000000, 123.000000)">
                    <g id="search_by_group" transform="translate(104.000000, 0.000000)">
                        <circle id="Oval-2" fill="#FFFFFF" cx="69" cy="61" r="61"></circle>
                        <g id="factory-(2)" transform="translate(0.000000, 30.000000)">
                            <path d="M103.30249,30.8591309 L125.259371,30.5979563 C129.483854,30.5477065 132.949209,33.9315909 132.999459,38.1560736 C132.99982,38.1864007 133,38.2167296 133,38.2470588 L133,38.2882351 C133,42.5408278 129.552592,45.9882353 125.3,45.9882353 L108.560547,45.9882353 C105.567314,43.3122734 103.814628,41.2375004 103.30249,39.763916 C102.790352,38.2903317 102.790352,35.32207 103.30249,30.8591309 Z" id="Rectangle-4" fill="#E3ECFF" opacity="0.445708786"></path>
                            <path d="M7.84414765,15.0235294 L23.4000746,15.0235294 C27.6526673,15.0235294 31.1000748,18.4709369 31.1000748,22.7235296 L31.1000748,22.8058822 C31.1000748,27.0584749 27.6526673,30.5058824 23.4000746,30.5058824 L7.64085706,30.5058824 C3.42092823,30.5058824 -3.76781939e-14,27.0849541 -3.8191672e-14,22.8650253 C-3.8191672e-14,22.8315844 0.000219535451,22.7981439 0.000658592161,22.7647059 L0.000658592161,22.7647059 C0.0570103283,18.4730293 3.55210113,15.0235294 7.84414765,15.0235294 Z" id="Rectangle-4" fill="#E3ECFF" transform="translate(15.550037, 22.764706) scale(-1, 1) translate(-15.550037, -22.764706) "></path>
                            <ellipse id="Oval-5" fill="#31AC46" cx="34.7130435" cy="2.85882353" rx="2.20869565" ry="2.21176471"></ellipse>
                            <ellipse id="Oval-5" fill="#398FC7" cx="123.06087" cy="58.1529412" rx="2.20869565" ry="2.21176471"></ellipse>
                            <ellipse id="Oval-5" fill="#FF6B6B" cx="12.626087" cy="58.1529412" rx="2.20869565" ry="2.21176471"></ellipse>
                            <g id="group-(1)" transform="translate(22.000000, 4.000000)" fill-rule="nonzero">
                                <path d="M65.3395918,19.596558 L65.3395918,26.8360507 C65.3395918,28.1994565 65.8767347,29.4668478 66.797551,30.4269928 L66.797551,32.8849638 C66.797551,33.9411232 67.4202369,34.5777232 68.4753389,34.5777232 C69.530441,34.5777232 69.9180348,33.9411232 69.9180348,32.8849638 L69.9180348,29.3928163 C69.9180348,28.7591207 69.5919124,28.1638308 69.0739532,27.8181787 C68.6902797,27.568541 68.4753389,27.1240954 68.4753389,26.6632258 L68.4753389,19.596558 C68.4753389,17.0617754 70.9207796,14.6240082 73.4530245,14.6240082 L75.006902,14.6240082 C77.5391469,14.6240082 80.5691722,17.0617754 80.5691722,19.596558 L80.5691722,26.8360507 C80.5691722,27.2969203 80.0438776,28.1127001 79.6602041,28.3623377 C79.1230612,28.7079899 79.0599236,29.7740942 79.0599236,30.4077899 L79.0599236,35.8998388 C79.0599236,36.7447663 79.3676944,38.1464619 80.1158577,38.5113169 C81.0174903,38.9529836 85.8469388,41.1734922 90.182449,44.7260284 C90.5469388,45.0332748 90.8535271,45.6164855 90.8535271,46.1157609 L90.8535271,49.7516581 L76.8689796,49.7516581 C75.8138776,49.7516581 75.2996266,50.4160416 75.2996266,51.472201 C75.2996266,52.5283604 75.8138776,52.9711957 76.8689796,52.9711957 L92.0816327,52.9711957 C93.1367347,52.9711957 93.9808163,52.1262681 93.9808163,51.0701087 L93.9808163,46.1157609 C93.9808163,44.4835145 93.2710204,42.9664855 92.004898,41.929529 C88.1873469,38.7994565 84.1012245,36.5143116 82.2404082,35.5349638 L82.2404082,30.4077899 C83.1612245,29.4476449 83.6983673,28.1802536 83.6983673,26.8168478 L83.6983673,19.5773551 C83.6983673,14.9302536 79.6301673,11.1664855 75.006902,11.1664855 L73.4530245,11.1664855 C68.8297592,11.1856884 65.3395918,14.9494565 65.3395918,19.596558 Z" id="Shape" fill="#00456B"></path>
                                <path d="M0.0925330132,19.596558 L0.0925330132,26.8360507 C0.0925330132,28.1994565 0.62967587,29.4668478 1.5504922,30.4269928 L1.5504922,32.8849638 C1.5504922,33.9411232 2.17317806,34.5777232 3.2282801,34.5777232 C4.28338214,34.5777232 4.67097599,33.9411232 4.67097599,32.8849638 L4.67097599,29.3928163 C4.67097599,28.7591207 4.34485354,28.1638308 3.82689436,27.8181787 C3.44322089,27.568541 3.2282801,27.1240954 3.2282801,26.6632258 L3.2282801,19.596558 C3.2282801,17.0617754 5.67372075,14.6240082 8.20596565,14.6240082 L9.7598432,14.6240082 C12.2920881,14.6240082 15.3221134,17.0617754 15.3221134,19.596558 L15.3221134,26.8360507 C15.3221134,27.2969203 14.7968187,28.1127001 14.4131453,28.3623377 C13.8760024,28.7079899 13.8128648,29.7740942 13.8128648,30.4077899 L13.8128648,35.8998388 C13.8128648,36.7447663 14.1206356,38.1464619 14.8687988,38.5113169 C15.7704315,38.9529836 20.59988,41.1734922 24.9353902,44.7260284 C25.29988,45.0332748 25.6064683,45.6164855 25.6064683,46.1157609 L25.6064683,49.7516581 L11.6219208,49.7516581 C10.5668187,49.7516581 10.0525678,50.4160416 10.0525678,51.472201 C10.0525678,52.5283604 10.5668187,52.9711957 11.6219208,52.9711957 L26.8345738,52.9711957 C27.8896759,52.9711957 28.7337575,52.1262681 28.7337575,51.0701087 L28.7337575,46.1157609 C28.7337575,44.4835145 28.0239616,42.9664855 26.7578391,41.929529 C22.9402881,38.7994565 18.8541657,36.5143116 16.9933493,35.5349638 L16.9933493,30.4077899 C17.9141657,29.4476449 18.4513085,28.1802536 18.4513085,26.8168478 L18.4513085,19.5773551 C18.4513085,14.9302536 14.3831085,11.1664855 9.7598432,11.1664855 L8.20596565,11.1664855 C3.58270034,11.1856884 0.0925330132,14.9494565 0.0925330132,19.596558 Z" id="Shape" fill="#00456B" transform="translate(14.413145, 32.068841) scale(-1, 1) translate(-14.413145, -32.068841) "></path>
                                <path d="M58.395102,19.6925725 L58.395102,10.3407609 C58.395102,4.6375 53.7718367,0.00960144928 48.0742857,0.00960144928 L46.06,0.00960144928 C40.362449,0.00960144928 35.7391837,4.6375 35.7391837,10.3407609 L35.7391837,19.6925725 C35.7391837,21.3824275 36.4297959,22.9570652 37.6191837,24.1092391 L37.6191837,31.3103261 C35.3746939,32.4625 29.8881633,35.4581522 24.7661224,39.6827899 C23.2697959,40.9117754 22.4257143,42.7168478 22.4257143,44.6563406 L22.4257143,51.0701087 C22.4257143,52.1262681 23.2697959,52.9711957 24.324898,52.9711957 L69.7902041,52.9711957 C70.8453061,52.9711957 71.6893878,52.1262681 71.6893878,51.0701087 L71.6893878,44.6563406 C71.6893878,42.7168478 70.8453061,40.9117754 69.3489796,39.6827899 C64.2269388,35.4773551 58.7404082,32.4625 56.4959184,31.3103261 L56.4959184,24.1092391 C57.7044898,22.9762681 58.395102,21.3824275 58.395102,19.6925725 Z M67.6264878,42.2880198 C68.262206,42.8050585 68.9539988,43.5806164 68.9539988,44.3959466 L68.9856216,49.9755435 L25.5020491,49.9755435 L25.5020491,45.4824473 C25.5020491,44.6671171 25.533681,43.2250516 26.1693991,42.7080129 C32.0100599,37.8955762 37.864472,35.1546275 39.0763097,34.5580444 C39.8908237,34.1603224 40.8798483,33.1774623 40.8798483,32.2825877 L40.8798483,23.0895335 C40.8798483,22.4332921 40.42156,21.816823 39.8851728,21.4588731 C39.2097223,21.0014928 38.7539407,20.265707 38.7539407,19.4702629 L38.7539407,9.78573122 C38.7539407,6.04714403 42.3287146,3.02445652 46.0436927,3.02445652 L48.1296429,3.02445652 C51.8644872,3.02445652 55.5071404,6.06703014 55.5071404,9.78573122 L55.5071404,19.4702629 C55.5071404,20.265707 54.8763754,21.0213789 54.2009249,21.4588731 C53.6446715,21.816823 53.3268124,22.4332921 53.3268124,23.0895335 L53.2169412,31.7288675 C53.2169412,32.6436282 53.7533285,33.4788445 54.5678424,33.8765666 C55.759814,34.4731496 61.7858271,37.4954692 67.6264878,42.2880198 Z" id="Shape" fill="#3C92CA"></path>
                            </g>
                        </g>
                    </g>
                </g>
            </g>
        </g>
    </g>
</svg>