<?xml version="1.0" encoding="UTF-8"?>
<svg width="91px" height="106px" viewBox="0 0 91 106" version="1.1" xmlns="http://www.w3.org/2000/svg" xmlns:xlink="http://www.w3.org/1999/xlink">
    <!-- Generator: Sketch 51.1 (57501) - http://www.bohemiancoding.com/sketch -->
    <title>nurse (1)</title>
    <desc>Created with Sketch.</desc>
    <defs></defs>
    <g id="Page-1" stroke="none" stroke-width="1" fill="none" fill-rule="evenodd">
        <g id="healthcare_industry" transform="translate(-1409.000000, -929.000000)" fill-rule="nonzero">
            <g id="Group-80" transform="translate(240.000000, 861.000000)">
                <g id="Group-31" transform="translate(3.000000, 0.000000)">
                    <g id="Group-30" transform="translate(852.000000, 68.000000)">
                        <g id="Group-7" transform="translate(69.000000, 0.000000)">
                            <g id="Group-13" transform="translate(245.000000, 0.000000)">
                                <g id="nurse-(1)">
                                    <path d="M67.5327545,43.7481875 L66.2008455,22.6862773 C65.7127545,14.9673242 59.3162818,8.95679297 51.5899682,8.95679297 L39.4100318,8.95679297 C31.6835114,8.95679297 25.2872455,14.9673242 24.7991545,22.6862773 L23.4672455,43.7481875 C23.1634295,48.5533828 26.974675,52.6178203 31.7844386,52.6178203 L59.2155614,52.6178203 C64.025325,52.6178203 67.8365705,48.5533828 67.5327545,43.7481875 Z" id="Shape" fill="#FFB125"></path>
                                    <path d="M67.5327545,43.7481875 L66.2008455,22.6862773 C65.7127545,14.9673242 59.3162818,8.95679297 51.5899682,8.95679297 L49.3110386,8.95679297 C52.6391568,8.95679297 55.3943886,11.5457187 55.6047227,14.8706406 L57.9918182,52.6174063 L59.2157682,52.6174063 C64.025325,52.6178203 67.8365705,48.5533828 67.5327545,43.7481875 Z" id="Shape" fill="#FF901D"></path>
                                    <g id="Group" transform="translate(23.990909, 20.082031)" fill="#FFE7CF">
                                        <path d="M17.4147114,72.0857969 C19.1131023,75.4444648 23.9048727,75.4446719 25.6030568,72.0857969 L39.1109727,45.3715195 L34.7584841,44.3133828 C32.7401455,43.9073945 31.2882818,41.5638008 31.2882818,39.5030117 L31.2882818,30.3197266 L21.5090909,30.3197266 L11.7299,30.3197266 L11.7299,39.5030117 C11.7299,41.5638008 10.2778295,43.9073945 8.25969773,44.3133828 L3.90720909,45.3713125 L17.4147114,72.0857969 Z" id="Shape"></path>
                                        <path d="M39.8759932,11.6150742 L38.7037477,11.6150742 C38.7037477,10.9633398 38.2049023,10.4205039 37.5565273,10.3621211 C21.9336886,8.95492969 16.7981864,4.57249219 12.5362841,0.147199219 C11.7778818,-0.640347656 4.43211364,2.46429297 4.31422727,9.6824375 L4.31422727,11.6150742 L3.14198182,11.6150742 C1.42332273,11.6150742 0.0299886364,13.0098438 0.0299886364,14.7302734 L0.0299886364,18.1825195 C0.0299886364,19.9029492 1.42332273,21.2977188 3.14198182,21.2977188 L4.31898409,21.2977188 C4.41598182,25.8188672 7.60656591,30.170457 11.0354045,33.1260352 C13.7958068,35.5052383 16.3833091,37.5821758 21.5090909,37.6393164 C26.6348727,37.5819688 29.222375,35.5052383 31.9827773,33.1260352 C35.4116159,30.1706641 38.6022,25.8188672 38.6991977,21.2977188 L39.8762,21.2977188 C41.5948591,21.2977188 42.9881932,19.9029492 42.9881932,18.1825195 L42.9881932,14.7302734 C42.9879864,13.0098438 41.5948591,11.6150742 39.8759932,11.6150742 Z" id="Shape"></path>
                                    </g>
                                    <path d="M62.6946568,31.6971055 C62.6946568,31.0453711 62.1958114,30.5025352 61.5474364,30.4441523 C58.0563455,30.1296719 55.0903659,29.6663359 52.5394705,29.0874766 L52.536575,41.379543 C52.4395773,45.9006914 49.2489932,50.2522812 45.8201545,53.2078594 C44.1565091,54.6417578 42.5549091,55.9651016 40.4234409,56.8033711 C41.8285636,57.3561445 43.4636682,57.6983672 45.5002068,57.7211406 C50.6259886,57.664 53.2134909,55.5870625 55.9738932,53.2078594 C59.4027318,50.2524883 62.5933159,45.9006914 62.6903136,41.379543 L62.6946568,31.6971055 Z" id="Shape" fill="#F4D5BA"></path>
                                    <path d="M58.5545705,3.75513281 L49.6804159,1.95147656 C47.0546523,1.41775 44.3486432,1.41775 41.7230864,1.95147656 L32.8489318,3.75513281 C31.4572523,4.0379375 30.6523159,5.50413281 31.1598477,6.83182422 L33.3932773,12.673832 C33.9458955,14.1193242 35.3317841,15.0737383 36.87775,15.0737383 L54.5255455,15.0737383 C56.0715114,15.0737383 57.4574,14.1193242 58.0100182,12.673832 L60.2434477,6.83182422 C60.7513932,5.50413281 59.9464568,4.03814453 58.5545705,3.75513281 Z" id="Shape" fill="#24D9DE"></path>
                                    <path d="M58.5545705,3.75513281 L53.9965045,2.82866797 L49.1985295,14.1522422 C48.9863341,14.707293 48.4541909,15.0739453 47.8604159,15.0739453 L54.5257523,15.0739453 C56.0717182,15.0739453 57.4576068,14.1195313 58.010225,12.6740391 L60.2436545,6.83203125 C60.7513932,5.50413281 59.9464568,4.03814453 58.5545705,3.75513281 Z" id="Shape" fill="#11B9C1"></path>
                                    <path d="M89.2585909,100.966449 L84.7396136,74.4838398 C84.3514159,72.2093945 82.7113477,70.3504609 80.5045977,69.6838203 L60.2194568,63.5569375 C59.3692273,63.3002187 58.4573659,63.6908867 58.0563455,64.4842305 L48.3708432,83.6389688 C47.1799841,85.9941562 43.8200159,85.9941562 42.6291568,83.6389688 L32.9436545,64.4842305 C32.5426341,63.6910937 31.6307727,63.3002187 30.7805432,63.5569375 L10.4951955,69.6838203 C8.28844545,70.3502539 6.64817045,72.2091875 6.26017955,74.4838398 L1.74120227,100.966449 C1.43014773,102.788738 2.83258182,104.452855 4.67946818,104.452855 L86.3201182,104.452855 C88.1670045,104.452855 89.5694386,102.788531 89.2585909,100.966449 Z" id="Shape" fill="#24D9DE"></path>
                                    <path d="M89.2585909,100.966449 L84.7396136,74.4838398 C84.3514159,72.2093945 82.7113477,70.3504609 80.5045977,69.6838203 L60.21925,63.5569375 C59.3690205,63.3002188 58.4571591,63.6910938 58.0561386,64.4842305 L55.8955091,68.7573555 L72.1175,73.656957 C73.2419705,73.9964883 74.0775159,74.9436563 74.2752341,76.1026172 L79.1127114,104.452648 L86.3199114,104.452648 C88.1670045,104.452855 89.5694386,102.788531 89.2585909,100.966449 Z" id="Shape" fill="#11B9C1"></path>
                                    <path d="M42.6291568,83.6391758 C43.8200159,85.9943633 47.1799841,85.9943633 48.3708432,83.6391758 L55.9283932,68.6925547 L35.0714,68.6925547 L42.6291568,83.6391758 Z" id="Shape" fill="#E1EFFB"></path>
                                    <path d="M55.2791909,59.585043 L55.2791909,53.8003828 C53.5059318,55.2936992 51.7086818,56.6006875 49.1629568,57.2623594 L49.1629568,63.1621289 C49.1629568,65.222918 50.6150273,67.5665117 52.6331591,67.9725 L55.8915795,68.7646016 L58.0559318,64.4842305 C58.101225,64.3945859 58.1539636,64.3107383 58.2116659,64.2316523 C56.4793568,63.5575586 55.2791909,61.4570195 55.2791909,59.585043 Z" id="Shape" fill="#F4D5BA"></path>
                                    <path d="M42.776825,9.76048828 L43.9536205,9.76048828 L43.9536205,10.9384961 C43.9536205,11.7933281 44.6458409,12.4862617 45.4997932,12.4862617 C46.3537455,12.4862617 47.0459659,11.7933281 47.0459659,10.9384961 L47.0459659,9.76048828 L48.2227614,9.76048828 C49.0767136,9.76048828 49.7689341,9.06755469 49.7689341,8.21272266 C49.7689341,7.35789063 49.0767136,6.66495703 48.2227614,6.66495703 L47.0459659,6.66495703 L47.0459659,5.48674219 C47.0459659,4.63191016 46.3537455,3.93897656 45.4997932,3.93897656 C44.6458409,3.93897656 43.9536205,4.63191016 43.9536205,5.48674219 L43.9536205,6.66495703 L42.776825,6.66495703 C41.9228727,6.66495703 41.2306523,7.35789063 41.2306523,8.21272266 C41.2306523,9.06755469 41.9228727,9.76048828 42.776825,9.76048828 Z" id="Shape" fill="#000000"></path>
                                    <path d="M90.7826341,100.705797 L86.2638636,74.2231875 C85.7737045,71.3508359 83.7379932,69.0436797 80.9511182,68.2020977 L60.6661841,62.0754219 C59.7714886,61.8052461 58.8430818,61.9228398 58.0720636,62.3441484 C57.3510955,61.7015234 56.8253636,60.6026016 56.8253636,59.585043 L56.8253636,54.5160898 C56.8776886,54.470957 56.9302205,54.4258242 56.9823386,54.3808984 C57.0603091,54.3136133 57.1432432,54.2409453 57.2284523,54.1653789 L59.2153545,54.1653789 C61.973275,54.1653789 64.5316159,53.0569336 66.4190386,51.0441758 C68.3064614,49.031418 69.2501727,46.4056406 69.075825,43.6504687 L68.525275,34.9425273 L68.525275,34.8120977 C68.525275,34.5744258 68.5072818,34.3411016 68.4727432,34.1127461 L67.8560114,24.360332 C67.8020318,23.5071562 67.0653455,22.8597695 66.2153227,22.9131836 C65.363025,22.9672187 64.7158909,23.7025937 64.7698705,24.5557695 L65.1346977,30.3259375 C64.7314023,30.2116562 64.3063909,30.1489258 63.8669023,30.1489258 L63.7806591,30.1489258 C63.3262795,29.4586836 62.5724273,28.9823047 61.6857977,28.9023906 C45.6354659,27.4564844 41.0145273,22.6583281 37.6400818,19.1545312 C36.9387614,18.4264023 35.7884386,18.3707109 34.2213773,18.9891133 C31.497375,20.0638125 26.8603045,23.5369687 26.7589636,29.7385898 C26.7589636,29.7470781 26.7587568,29.7555664 26.7587568,29.7640547 L26.7587568,30.163832 C26.451425,30.1884687 26.1527795,30.2439531 25.8648886,30.3255234 L26.3418114,22.7837891 C26.5955773,18.7717305 28.6132955,15.1952656 31.8320068,12.9206133 L31.9490659,13.2268125 C32.7252545,15.257168 34.7059523,16.6212969 36.87775,16.6212969 L54.5255455,16.6212969 C56.6971364,16.6212969 58.6778341,15.257168 59.4542295,13.2268125 L59.4813227,13.1560078 C61.152,14.416207 62.4934227,16.0507188 63.4067318,17.9609961 C63.6724932,18.5164609 64.2257318,18.8408789 64.8025477,18.8408789 C65.026325,18.8408789 65.2536182,18.7918125 65.4689159,18.6887109 C66.2393136,18.3197813 66.5648455,17.3953867 66.1960886,16.6244023 C64.9380136,13.9932422 63.0251523,11.7844258 60.6229591,10.1697891 L61.6876591,7.38459766 C62.0924023,6.32583984 62.0115364,5.14886719 61.4661568,4.15553125 C60.9207773,3.16240234 59.9716886,2.46325781 58.8621091,2.23780078 L49.9879545,0.433730469 C47.1435841,-0.144714844 44.2595045,-0.144714844 41.4151341,0.433730469 L32.5411864,2.23738672 C31.4316068,2.46284375 30.4823114,3.16178125 29.9369318,4.15532422 C29.3915523,5.14886719 29.3106864,6.32563281 29.7156364,7.38439063 L30.69885,9.95592578 C26.3393295,12.7322148 23.5861659,17.3601914 23.2556705,22.5879375 L22.5229136,34.1742344 C22.4941659,34.3831289 22.4743114,34.5947148 22.4743114,34.8114766 L22.4743114,34.9419062 L21.9237614,43.6498477 C21.7494136,46.4048125 22.693125,49.0307969 24.5805477,51.0435547 C26.4679705,53.0563125 29.0263114,54.1647578 31.7842318,54.1647578 L33.7711341,54.1647578 C33.8563432,54.2401172 33.9392773,54.3129922 34.0172477,54.3802773 C34.0693659,54.4252031 34.1218977,54.4703359 34.1742227,54.5154687 L34.1742227,59.5844219 C34.1742227,60.6019805 33.6484909,61.7011094 32.9275227,62.3435273 C32.1565045,61.9222187 31.2278909,61.8042109 30.3336091,62.0745937 L10.0484682,68.2014766 C7.2618,69.0430586 5.22608864,71.3504219 4.73572273,74.2225664 L3.03836591,84.170625 C2.89462727,85.0132422 3.46048182,85.8130039 4.30223182,85.9568906 C5.14315455,86.1020195 5.94292045,85.5345469 6.08665909,84.6917227 L7.78401591,74.7436641 C8.07542273,73.0366914 9.28530909,71.6653164 10.9415091,71.1651289 L31.2268568,65.0380391 C31.3596341,64.998082 31.5008909,65.0589492 31.5635568,65.1823398 C31.5635568,65.1825469 31.5639705,65.1829609 31.5639705,65.183168 L41.2490591,84.3372852 C41.5038591,84.8414062 41.8382841,85.2859023 42.2324795,85.6585586 C43.099875,86.4788164 44.2576432,86.9522969 45.4993795,86.9522969 C46.2896318,86.9522969 47.0457591,86.7605859 47.7148159,86.409668 C48.5749727,85.9585469 49.2909773,85.2444961 49.7499068,84.3370781 L59.4354091,65.1823398 C59.4978682,65.0585352 59.6393318,64.9970469 59.7723159,65.0380391 L80.0574568,71.1649219 C81.7138636,71.6651094 82.92375,73.0364844 83.21495,74.743457 L87.7337205,101.225859 C87.8315455,101.798301 87.5767455,102.203254 87.4160477,102.393723 C87.25535,102.584191 86.8996227,102.903848 86.3194977,102.903848 L76.7409205,102.903848 L74.2138091,88.0944883 C74.0700705,87.2518711 73.2717523,86.6848125 72.4293818,86.8293203 C71.5876318,86.973207 71.0217773,87.7729688 71.1655159,88.6155859 L73.6036955,102.903641 L17.3956841,102.903641 L19.8338636,88.6155859 C19.9776023,87.7729688 19.4117477,86.973207 18.5699977,86.8293203 C17.7286614,86.6852266 16.9293091,87.2516641 16.7855705,88.0944883 L14.2584591,102.903848 L4.679675,102.903848 C4.09955,102.903848 3.74361591,102.584191 3.583125,102.393723 C3.42263409,102.203254 3.16783409,101.798094 3.26545227,101.225859 L4.83851136,92.0069648 C4.98225,91.1643477 4.41639545,90.3645859 3.57464545,90.2206992 C2.73330909,90.0761914 1.93395682,90.64325 1.79021818,91.4858672 L0.217159091,100.704762 C-0.00785909091,102.023965 0.357381818,103.367391 1.2194,104.390125 C2.08141818,105.412859 3.34259545,105.999586 4.679675,105.999586 C4.68132955,105.999586 4.679675,105.999586 4.68132955,105.999586 C4.68277727,105.999586 4.67822727,105.999586 4.679675,105.999586 L86.320325,105.999586 C86.3217727,105.999586 86.320325,105.999586 86.3217727,105.999586 C86.3234273,105.999586 86.3186705,105.999586 86.320325,105.999586 C87.6571977,105.999586 88.918375,105.412859 89.7806,104.390125 C90.6424114,103.368219 91.0078591,102.024793 90.7826341,100.705797 Z M32.6474909,5.64698438 C32.7101568,5.53291016 32.8596864,5.33229688 33.1568841,5.27184375 L42.0308318,3.46798047 C43.2489909,3.22057813 44.4752159,3.09677344 45.7018545,3.09677344 C46.9280795,3.09677344 48.154925,3.22057813 49.3726705,3.46798047 L58.246825,5.27184375 C58.246825,5.27184375 58.246825,5.27184375 58.2470318,5.27205078 C58.5440227,5.33229688 58.6935523,5.53291016 58.7562182,5.64698438 C58.8188841,5.76126563 58.9080227,5.99500391 58.79965,6.27863672 L56.5662205,12.1206445 C56.244825,12.9611914 55.4247909,13.5259727 54.5257523,13.5259727 L36.8779568,13.5259727 C35.9789182,13.5259727 35.1588841,12.9611914 34.8374886,12.1206445 L32.6040591,6.27863672 C32.4956864,5.99521094 32.584825,5.76126563 32.6474909,5.64698438 Z M65.9896841,43.8461133 C66.109225,45.739 65.4610568,47.5426563 64.1643068,48.925418 C63.1113955,50.0483555 61.7544614,50.7615781 60.267025,50.9899336 C61.9670705,48.8831836 63.6363,46.0994414 64.1074318,42.9213047 C64.7485682,42.8885938 65.3543386,42.7227617 65.9017864,42.4552773 L65.9896841,43.8461133 Z M26.8354864,48.925418 C25.5387364,47.5426563 24.8905682,45.738793 25.0101091,43.8461133 L25.0980068,42.4554844 C25.6454545,42.7229687 26.251225,42.8885937 26.8923614,42.9215117 C27.3632864,46.0994414 29.0327227,48.8831836 30.7327682,50.9901406 C29.2453318,50.7615781 27.8883977,50.0483555 26.8354864,48.925418 Z M47.1851545,82.5564023 L46.9911591,82.9400313 C46.9636523,82.9944805 46.9313886,83.0449961 46.8993318,83.0950977 C46.8889909,83.1110391 46.8807182,83.1288438 46.8701705,83.1443711 C46.8507295,83.1727344 46.8277727,83.1971641 46.8068841,83.2240781 C46.7326364,83.3191055 46.6519773,83.4077148 46.5611841,83.4828672 C46.5421568,83.4986016 46.5206477,83.5112305 46.501,83.5261367 C46.2199341,83.7377227 45.8755818,83.8575938 45.4997932,83.8575938 C44.8565886,83.8575938 44.2990068,83.514543 44.0084273,82.9402383 L37.5871364,70.2403203 L53.4128636,70.2403203 L47.1851545,82.5564023 Z M54.9780636,67.144375 L36.0217295,67.144375 L34.8273545,64.7821484 C36.2843886,63.5621133 37.2669818,61.5702656 37.2669818,59.5848359 L37.2669818,56.9141328 C39.2911114,58.2171875 41.8240136,59.2279141 45.4828341,59.2689063 C45.488625,59.2689063 45.4942091,59.2689063 45.5,59.2689063 C45.5057909,59.2689063 45.511375,59.2689063 45.5171659,59.2689063 C49.1759864,59.2279141 51.7088886,58.2171875 53.7330182,56.9143398 L53.7330182,59.585043 C53.7330182,61.5706797 54.7154045,63.5623203 56.1726455,64.7823555 L54.9780636,67.144375 Z M54.9646205,52.0350273 C52.1053591,54.4999414 49.9008841,56.1199609 45.5,56.173168 C41.0993227,56.1199609 38.8948477,54.4997344 36.0353795,52.0350273 C32.2394386,48.7633125 29.9292795,44.7676094 29.8558591,41.346418 C29.8378659,40.5048359 29.1510227,39.8317773 28.3101,39.8317773 L27.1330977,39.8317773 C26.2696318,39.8317773 25.5672773,39.1286992 25.5672773,38.2643438 L25.5672773,34.8120977 C25.5672773,34.7398437 25.5738955,34.6694531 25.5834091,34.5996836 C25.5877523,34.576082 25.5910614,34.5522734 25.5943705,34.5284648 C25.7281818,33.7993008 26.3666295,33.2446641 27.1333045,33.2446641 L28.30555,33.2446641 C29.1595023,33.2446641 29.8517227,32.5517305 29.8517227,31.6968984 L29.8517227,29.7775117 C29.9443773,24.5385859 34.3988273,22.0904414 35.8095341,21.7105391 C40.3440227,26.341 45.9169455,30.5518086 61.1716477,31.9641758 C61.2980136,32.6914766 61.9319114,33.2446641 62.6948636,33.2446641 L63.8671091,33.2446641 C64.6335773,33.2446641 65.272025,33.7993008 65.4060432,34.5284648 C65.4093523,34.5524805 65.4126614,34.5762891 65.4170045,34.5996836 C65.4265182,34.6692461 65.4331364,34.7398437 65.4331364,34.8120977 L65.4331364,38.2643438 C65.4331364,39.1284922 64.7307818,39.8317773 63.8673159,39.8317773 L62.6903136,39.8317773 C61.8491841,39.8317773 61.1625477,40.5046289 61.1445545,41.346418 C61.0707205,44.7674023 58.7605614,48.7631055 54.9646205,52.0350273 Z" id="Shape" fill="#000000"></path>
                                </g>
                            </g>
                        </g>
                    </g>
                </g>
            </g>
        </g>
    </g>
</svg>