<?xml version="1.0" encoding="UTF-8"?>
<svg width="181px" height="191px" viewBox="0 0 181 191" version="1.1" xmlns="http://www.w3.org/2000/svg" xmlns:xlink="http://www.w3.org/1999/xlink">
    <!-- Generator: Sketch 51.1 (57501) - http://www.bohemiancoding.com/sketch -->
    <title>trigger_alerts</title>
    <desc>Created with Sketch.</desc>
    <defs></defs>
    <g id="Page-1" stroke="none" stroke-width="1" fill="none" fill-rule="evenodd">
        <g id="healthcare_industry" transform="translate(-489.000000, -1595.000000)" fill-rule="nonzero">
            <g id="Group-80" transform="translate(240.000000, 861.000000)">
                <g id="Group-31" transform="translate(65.000000, 661.000000)">
                    <g id="Group-76" transform="translate(32.000000, 73.000000)">
                        <g id="trigger_alerts" transform="translate(152.000000, 0.000000)">
                            <polygon id="Shape" fill="#EDF2FA" points="106.473232 51.1072949 1.61328125 51.1072949 1.61328125 189.857295 11.9111328 189.857295 61.59375 189.857295 179.386719 189.857295 179.386719 51.1072949 159.875 51.1072949"></polygon>
                            <g id="Group" transform="translate(2.890625, 52.208984)" fill="#24D9DE">
                                <polygon id="Shape" points="0.355533909 51.7378516 69.9454883 120.888382 58.4648438 134.959229 2.27373675e-13 134.350438"></polygon>
                                <polygon id="Shape" points="82.9757031 135.832083 110.857588 109.760645 138.919053 136"></polygon>
                                <polygon id="Shape" points="105.93377 0.304960937 81.2644531 24.9742773 124.702236 68.4120605 176.344697 16.7699609 172.896973 2.40136719"></polygon>
                            </g>
                            <g id="Group" transform="translate(2.697266, 52.570312)" fill="#1C7C96">
                                <polygon id="Shape" points="159.375695 135 122.202979 97.3039884 174.837892 43.9284668 175 135"></polygon>
                                <polygon id="Shape" points="0.302070312 26.9785645 26.7603223 53.4368164 58.4534961 21.7067871 36.7933203 0.0466113281 0.302070312 0.0466113281"></polygon>
                                <rect id="Rectangle-path" transform="translate(77.273313, 72.233381) rotate(135.000000) translate(-77.273313, -72.233381) " x="54.8496853" y="41.5193398" width="44.8472555" height="61.4280828"></rect>
                            </g>
                            <path d="M88.8155127,133.631025 C89.5559925,133.631025 90.2823948,133.329766 90.8060802,132.80608 C91.3297655,132.282395 91.6310254,131.555993 91.6310254,130.815513 C91.6310254,130.075033 91.3297655,129.348631 90.8060802,128.824945 C90.2823948,128.301541 89.5559925,128 88.8155127,128 C88.0750329,128 87.3486306,128.30126 86.8249452,128.824945 C86.3012599,129.348631 86,130.075033 86,130.815513 C86,131.555993 86.3012599,132.282395 86.8249452,132.80608 C87.3486306,133.329766 88.0750329,133.631025 88.8155127,133.631025 Z" id="Shape" fill="#000000"></path>
                            <path d="M175.413391,50.2028198 L5.67822266,50.2028198 C3.68260742,50.2028198 1.06494141,52.8204858 1.06494141,54.8161011 L0.870449219,185.802429 C0.870449219,187.797683 3.48811523,190.41571 5.48373047,190.41571 L175.218899,190.41571 C177.214514,190.41571 179.83218,187.797683 179.83218,185.802429 L180.026672,54.8161011 C180.026672,52.8204858 177.409006,50.2028198 175.413391,50.2028198 Z M175.773437,57.72482 L175.773437,71.0097656 L127.5925,119.55127 L85.185791,76.9935645 L108.198242,54.8161011 L172.769197,54.724823 C174.426049,54.7224809 175.771092,56.0637266 175.773435,57.7205792 C175.773437,57.7219928 175.773437,57.7234064 175.773437,57.72482 Z M80.1499023,54.7205762 L71.0963135,63.7277832 L62.0427246,54.7205762 L80.1499023,54.7205762 Z M41.7053223,54.8161011 C41.7528652,54.8823271 48.2443203,61.3650134 61.1796875,74.2641602 L29.4575879,105.333008 C13.3789681,88.9661589 5.30195964,80.7531055 5.2265625,80.6938477 L5.2265625,57.7284424 C5.2265625,56.0715881 6.56970825,54.7284424 8.2265625,54.7284424 C8.22918114,54.7284424 8.23179978,54.7284458 8.23441841,54.7284527 L41.7053223,54.8161011 Z M5.2265625,183.244014 L5.2265625,109.620771 L70.1875,174.69043 L61.1796875,186.244014 L8.2265625,186.244014 C6.56970825,186.244014 5.2265625,184.900868 5.2265625,183.244014 Z M93.9018555,186.244014 L113.968262,166.511719 L133.104004,186.244014 L93.9018555,186.244014 Z M161.447754,185.802429 L126.155273,150.510254 L145.867188,131.337891 C147.278174,129.926904 148.460303,128.238984 147.049316,126.827637 C145.63833,125.417012 144.556494,126.051807 143.145508,127.462432 L122.345654,148.262285 C120.934668,149.673271 120.934668,151.961201 122.345654,153.372549 L155.217119,186.244014 L139.406738,186.244014 L116.365674,162.594238 C114.954687,161.183613 112.666758,161.183613 111.25541,162.594238 L88.3193359,186.244014 L66.7770996,186.244014 L73.7546094,177.575439 C76.2504297,175.189697 74.828125,173.214111 72.6445312,171.168457 L5.2265625,102.927246 C5.2068099,105.185156 5.2068099,99.8381966 5.2265625,86.8863672 L26.9026367,108.562441 C27.580127,109.239932 28.4993457,109.620771 29.4575879,109.620771 C30.4172754,109.62041 31.3364941,109.239209 32.0139844,108.560996 L63.7071582,76.8309668 C65.1166992,75.4196191 65.1159766,73.1331348 63.7057129,71.7225098 L46.7041406,54.7209375 L56.5821289,54.7209375 L68.644707,66.7835156 C69.3221973,67.4610059 70.241416,67.8418457 71.1996582,67.8418457 C72.1579004,67.8418457 73.0771191,67.4610059 73.7546094,66.7835156 L85.8168262,54.7212988 L101.507139,54.7212988 L81.5997656,74.6286719 C80.188418,76.0396582 80.188418,78.3275879 81.5997656,79.7385742 L125.037549,123.176719 C125.743223,123.882031 126.667861,124.235049 127.5925,124.235049 C128.517139,124.235049 129.442139,123.882031 130.147451,123.176719 L175.773437,77.5503711 L175.773437,94.834502 L162.389844,108.218457 C160.978857,109.629443 160.925537,111.362183 162.046265,112.437988 C163.166992,113.513794 165.028574,112.776846 165.733887,112.071533 L175.773437,102.227051 L175.773437,183.150115 C175.773437,184.806969 174.430292,186.150115 172.773437,186.150115 C172.742622,186.150115 172.711808,186.14964 172.681007,186.148691 L161.447754,185.802429 Z" id="Shape" fill="#000000"></path>
                            <path d="M154.833237,117 C154.088096,117 153.357121,117.303156 152.830139,117.830139 C152.303156,118.357121 152,119.088096 152,119.833237 C152,120.578379 152.303156,121.309354 152.830139,121.836053 C153.357121,122.363035 154.088096,122.666475 154.833237,122.666475 C155.578379,122.666475 156.309354,122.363318 156.836336,121.836053 C157.363318,121.309354 157.666475,120.578379 157.666475,119.833237 C157.666475,119.088096 157.363318,118.357121 156.836336,117.830139 C156.309354,117.303156 155.578379,117 154.833237,117 Z" id="Shape" fill="#000000"></path>
                            <path d="M76.6611328,84.677207 C75.2501465,83.2662207 72.9622168,83.2662207 71.5508691,84.677207 L39.8392676,116.388809 C39.1617773,117.066299 38.7809375,117.985518 38.7809375,118.94376 C38.7809375,119.902002 39.1617773,120.821221 39.8392676,121.498711 L83.2770508,164.936855 C83.9827246,165.642168 84.9073633,165.995186 85.832002,165.995186 C86.7566406,165.995186 87.6816406,165.642168 88.3869531,164.936855 L120.098555,133.225254 C120.776045,132.547402 121.156885,131.628545 121.156885,130.670303 C121.156885,129.712061 120.776045,128.793203 120.098555,128.115352 L76.6611328,84.677207 Z M85.832002,162.058105 L43.2768555,118.94376 L58.8811035,103.473633 L77.7592773,122.047119 C79.343099,123.233363 80.5613607,123.438522 81.4140625,122.662598 C82.2667643,121.886673 82.1024577,120.768916 80.9211426,119.309326 L61.9621582,100.484375 L73.9851074,88.2768555 L117.084961,130.670303 L85.832002,162.058105 Z" id="Shape" fill="#000000"></path>
                            <g id="location" transform="translate(100.000000, 0.000000)">
                                <g id="Group" transform="translate(1.590643, 1.600000)">
                                    <path d="M64.6471228,32.6414 C64.6471228,37.1128 62.628,42.779 59.6079649,48.7524 C56.3338246,54.9888 52.6318012,60.988 48.528538,66.7066 C44.4904912,72.424 40.469345,77.578 37.4491111,81.2986 C36.5329006,82.442 35.7015906,83.432 35.005883,84.2852 C34.3706199,85.0472 33.4357193,85.4916 32.4471345,85.5014 C31.4585497,85.5112 30.5150994,85.0856 29.864924,84.3364 L29.8140234,84.2852 C29.1183158,83.4318 28.2870058,82.442 27.3707953,81.2986 C24.3507602,77.578 20.3125146,72.424 16.2913684,66.7066 C12.1821404,60.992 8.4797193,54.9924 5.21194152,48.7524 C2.19190643,42.779 0.172783626,37.113 0.172783626,32.6414 C0.152105263,19.594 7.90748538,7.8052 19.8544094,2.7236 C23.0364912,1.3632 26.4176023,0.5332 29.864924,0.266 C30.6962339,0.1978 31.5615439,0.1636 32.4099532,0.1636 C40.9638363,0.1636 49.1671813,3.5834 55.2134152,9.6698 C61.2697895,15.7604 64.6644211,24.027 64.6471228,32.6414 Z" id="Shape" fill="#C52828"></path>
                                    <path d="M59.5570643,32.6414 C59.5570643,37.1128 57.5379415,42.779 54.5179064,48.7524 C51.2437661,54.9888 47.5417427,60.988 43.4384795,66.7066 C39.4004327,72.424 35.3792865,77.578 32.3590526,81.2986 C31.4428421,82.442 30.6115322,83.432 29.9158246,84.2852 L29.864924,84.3364 L29.8140234,84.2852 C29.1183158,83.4318 28.2870058,82.442 27.3707953,81.2986 C24.3507602,77.578 20.3125146,72.424 16.2913684,66.7066 C12.1821404,60.992 8.4797193,54.9924 5.21194152,48.7524 C2.19190643,42.779 0.172783626,37.113 0.172783626,32.6414 C0.152105263,19.594 7.90748538,7.8052 19.8544094,2.7236 C23.0364912,1.3632 26.4176023,0.5332 29.864924,0.266 C33.3122456,0.5332 36.6933567,1.3632 39.8754386,2.7236 C51.8249474,7.8018 59.5817193,19.5928 59.5570643,32.6414 Z" id="Shape" fill="#F44335"></path>
                                    <path d="M47.6801287,30.8836 C47.6670058,39.3612 40.8379766,46.2304 32.4099532,46.2436 C31.5575673,46.2446 30.7063743,46.1762 29.864924,46.0388 C22.5241053,44.7756 17.1568772,38.3748 17.1568772,30.8836 C17.1568772,23.3924 22.5241053,16.9916 29.864924,15.7284 C30.7063743,15.591 31.5575673,15.5226 32.4099532,15.5236 C40.8381754,15.5366 47.6672047,22.4058 47.6801287,30.8836 Z" id="Shape" fill="#CFD8DC"></path>
                                    <path d="M42.5900702,30.8836 C42.5725731,38.3744 37.2039532,44.7682 29.864924,46.0388 C22.5241053,44.7756 17.1568772,38.3748 17.1568772,30.8836 C17.1568772,23.3924 22.5241053,16.9916 29.864924,15.7284 C37.204152,16.9988 42.5727719,23.3928 42.5900702,30.8836 Z" id="Shape" fill="#F5F5F5"></path>
                                </g>
                                <g id="Group" fill="#000000">
                                    <path d="M16.4977544,69.2946 C20.6902924,75.2406 24.8760702,80.5586 27.650152,83.9838 C28.0539766,84.4822 28.4323509,84.9446 28.7987953,85.39 L20.4274386,85.39 C19.4903509,85.39 18.7308187,86.154 18.7308187,87.0966 C18.7308187,88.0392 19.4903509,88.8032 20.4274386,88.8032 L47.574152,88.8032 C48.5112398,88.8032 49.2707719,88.0392 49.2707719,87.0966 C49.2707719,86.154 48.5110409,85.39 47.574152,85.39 L39.2027953,85.39 C39.5692398,84.9446 39.947614,84.482 40.3532281,83.9838 C43.1255205,80.5704 47.3097076,75.2406 51.5038363,69.2946 C55.6651579,63.5136 59.4107251,57.4412 62.7121053,51.1238 C66.1767251,44.28 67.9345848,38.5986 67.9345848,34.2364 C67.946117,25.1722 64.3703509,16.4762 57.9970409,10.0682 C57.571345,9.6242 56.940655,9.4458 56.347345,9.6016 C55.7540351,9.7574 55.2903626,10.223 55.1346784,10.8196 C54.9789942,11.4162 55.1553567,12.0508 55.5961637,12.4796 C61.3328187,18.2484 64.5512865,26.0766 64.5411462,34.2362 C64.5411462,38.0558 62.9089474,43.2166 59.6886901,49.574 C56.4618713,55.745 52.8012047,61.6764 48.734924,67.3234 C44.5984561,73.1926 40.4635789,78.4508 37.7234971,81.83 C36.8124561,82.953 35.9928772,83.9462 35.2937895,84.786 C34.9675088,85.1608 34.4962807,85.3756 34.0009942,85.3756 C33.5057076,85.3756 33.0344795,85.1606 32.7081988,84.786 C32.0091111,83.9464 31.189731,82.953 30.2784912,81.83 C27.5384094,78.4526 23.4035322,73.1942 19.2670643,67.3234 C15.2007836,61.6766 11.540117,55.745 8.31329825,49.574 C5.08966082,43.2166 3.46084211,38.0558 3.46084211,34.2362 C3.45984795,21.8744 10.8094152,10.7108 22.1244561,5.8868 C29.7273333,2.68 38.292152,2.68 45.8950292,5.8868 C46.453345,6.125 47.0955673,6.0454 47.5795205,5.678 C48.0636725,5.3108 48.3161871,4.7116 48.2420234,4.1062 C48.1678596,3.5008 47.7783509,2.9812 47.2200351,2.7432 C29.9420702,-4.5872 10.027614,3.5556 2.73471345,20.9328 C0.966116959,25.142 0.0590526316,29.6666 0.0676023392,34.2362 C0.0676023392,38.5984 1.82546199,44.28 5.29008187,51.1322 C8.59106433,57.4468 12.3368304,63.5164 16.4977544,69.2946 Z" id="Shape"></path>
                                    <path d="M34.0005965,18.8302 C34.9376842,18.8302 35.6972164,18.066 35.6972164,17.1236 C35.6972164,16.181 34.9374854,15.417 34.0005965,15.417 C25.9062105,15.4168 18.9387953,21.1684 17.3594854,29.154 C15.7801754,37.1396 20.0289825,45.1352 27.507193,48.2512 C34.9854035,51.3672 43.6104678,48.7354 48.107614,41.9656 C52.6047602,35.1958 51.7213567,26.1732 45.9978246,20.4158 C45.5719298,19.9722 44.9410409,19.7942 44.347731,19.9504 C43.7546199,20.1066 43.291345,20.5726 43.1360585,21.1692 C42.9807719,21.766 43.157731,22.4004 43.5987368,22.829 C48.1778012,27.4348 48.8846433,34.6526 45.2872047,40.0686 C41.6897661,45.4846 34.7897544,47.5902 28.8071462,45.0978 C22.824538,42.6054 19.4251345,36.209 20.6883041,29.8204 C21.9514737,23.4318 27.5250877,18.8304 34.0005965,18.8302 Z" id="Shape"></path>
                                </g>
                            </g>
                        </g>
                    </g>
                </g>
            </g>
        </g>
    </g>
</svg>