<?xml version="1.0" encoding="UTF-8"?>
<svg width="139px" height="102px" viewBox="0 0 139 102" version="1.1" xmlns="http://www.w3.org/2000/svg" xmlns:xlink="http://www.w3.org/1999/xlink">
    <!-- Generator: Sketch 51.1 (57501) - http://www.bohemiancoding.com/sketch -->
    <title>team</title>
    <desc>Created with Sketch.</desc>
    <defs></defs>
    <g id="Page-1" stroke="none" stroke-width="1" fill="none" fill-rule="evenodd">
        <g id="healthcare_industry" transform="translate(-1383.000000, -1107.000000)" fill-rule="nonzero">
            <g id="Group-80" transform="translate(240.000000, 861.000000)">
                <g id="Group-31" transform="translate(3.000000, 0.000000)">
                    <g id="Group-30" transform="translate(852.000000, 68.000000)">
                        <g id="Group-7" transform="translate(69.000000, 0.000000)">
                            <g id="Group-26" transform="translate(219.000000, 178.000000)">
                                <g id="team">
                                    <path d="M36.8561758,49.9121809 C36.2597246,41.5262074 30.0356738,34.6900372 21.622373,34.6900372 C13.2090723,34.6900372 6.98502148,41.5262074 6.38857031,49.9121809 C6.03319727,54.9118085 6.38857031,62.9597713 4.21235156,67.3088777 C4.21235156,67.3088777 6.38857031,71.657984 14.4144629,73.8385053 L28.8742637,73.8325372 C36.8561758,71.657984 39.0323945,67.3088777 39.0323945,67.3088777 C36.8561758,62.9597713 37.2115488,54.9118085 36.8561758,49.9121809 Z" id="Shape" fill="#694B4B"></path>
                                    <path d="M19.4461543,49.9121809 C11.059459,45.7220426 12.7855566,37.5123989 18.7606562,34.9716223 C11.8291172,36.3231223 6.91497852,42.5098564 6.38857031,49.9121809 C6.03319727,54.9118085 6.38857031,62.9597713 4.21235156,67.3088777 C4.21235156,67.3088777 6.38857031,71.657984 14.4144629,73.8385053 L21.2879043,73.8357926 L19.4461543,49.9121809 Z" id="Shape" fill="#5A4146"></path>
                                    <path d="M37.5995,79.0670904 L30.5569238,75.548633 C29.0822207,74.8118457 28.1507578,73.3057181 28.1507578,71.6582553 L28.1510293,65.1340532 L15.0937168,65.1340532 L15.0937168,71.6582553 C15.0937168,73.3054468 14.1622539,74.8113032 12.6878223,75.5480904 L5.64497461,79.0668191 C3.43319141,80.172 2.03613281,82.4306489 2.03613281,84.9017074 L2.03613281,99.9274468 L41.2086133,99.9274468 L41.2086133,84.9019787 C41.2086133,82.4311915 39.8115547,80.1722713 37.5995,79.0670904 Z" id="Shape" fill="#E6AF78"></path>
                                    <path d="M41.2086133,84.90225 C41.2086133,82.4311915 39.8112832,80.1722713 37.5995,79.0670904 L30.5569238,75.548633 C30.1515977,75.3462606 29.798668,75.0763404 29.4837461,74.770883 L26.9860898,77.5487553 C24.0361406,80.8295745 19.208877,80.8293032 16.2589277,77.5487553 L13.761,74.7706117 C13.4458066,75.0760691 13.092877,75.3459894 12.6880937,75.5483617 L5.64497461,79.0670904 C3.43346289,80.172 2.0364043,82.4309202 2.0364043,84.9017074 L2.0364043,99.9277181 L41.2088848,99.9277181 L41.2086133,84.90225 Z" id="Shape" fill="#1B7992"></path>
                                    <path d="M21.622373,69.4834309 C16.6349336,69.4834309 12.3004141,66.6892819 10.1013906,62.5821543 C8.60659766,59.7901755 9.58122656,56.2877234 12.172002,54.4644734 C12.6690898,54.1145266 13.1827383,53.7154787 13.6879707,53.2648883 C15.2441191,51.8773085 16.1554922,50.4140426 16.6691406,49.3416862 C17.1092168,48.4231436 18.1232109,47.9044628 19.1108711,48.1559362 C26.7946934,50.112383 32.0202246,54.1112713 33.9032402,55.7310638 C34.4035859,56.1615798 34.6916309,56.7952819 34.6408633,57.4531277 C34.1215137,64.1837713 28.4914707,69.4834309 21.622373,69.4834309 Z" id="Shape" fill="#F0C087"></path>
                                    <path d="M33.9007969,55.7288936 C32.0164238,54.108016 26.7949648,50.1142819 19.1192871,48.1578351 C18.1267402,47.904734 17.1084023,48.4266702 16.6656113,49.3495532 C16.2760312,50.1609415 15.6323418,51.1950479 14.6769883,52.2503138 C14.6767168,52.2527553 14.6761738,52.2551968 14.6759023,52.2576383 C14.3794414,52.5934787 14.0637051,52.9298617 13.6882422,53.2648883 C13.2036426,53.6967606 12.7160566,54.0876702 12.2339004,54.4207979 C9.16259766,56.5438085 8.7013457,60.437984 10.5835469,63.395984 C12.5637539,66.5077979 15.8345977,68.7184309 19.642709,69.3003191 C17.0372734,67.5291543 15.0937168,65.1278138 15.0937168,60.7854894 L15.0937168,59.1052021 C15.5880898,58.7406064 16.0857207,58.3768245 16.5860664,57.9308457 C17.7955293,56.85225 18.8516035,55.6049202 19.6983633,54.2618298 C25.5602539,56.0896915 29.5342422,59.1339574 31.040709,60.4284894 C31.4530938,60.7898298 32.0313555,61.3003723 33.228873,62.4229149 C33.9969023,61.2119362 34.533084,58.8542713 34.6408633,57.4504149 C34.6916309,56.7931117 34.4003281,56.1585957 33.9007969,55.7288936 Z" id="Shape" fill="#E6AF78"></path>
                                    <g id="Group" transform="translate(1.900391, 80.840426)">
                                        <path d="M1.46248633,0.141606383 C0.624142578,1.2530266 0.135742188,2.6172766 0.135742188,4.06155319 L0.135742188,19.0870213 L8.84088867,19.0870213 L8.84088867,8.1298883 C8.84088867,6.80877128 8.23982227,5.559 7.20736719,4.7337766 L1.46248633,0.141606383 Z" id="Shape" fill="#00617B"></path>
                                        <path d="M37.98175,0.141606383 C38.8200937,1.2530266 39.3084941,2.6172766 39.3084941,4.06155319 L39.3084941,19.0870213 L30.6033477,19.0870213 L30.6033477,8.1298883 C30.6033477,6.80877128 31.2044141,5.559 32.2368691,4.7337766 L37.98175,0.141606383 Z" id="Shape" fill="#C7CFE2"></path>
                                    </g>
                                    <path d="M99.9676055,43.3885213 L99.9676055,44.9147234 C99.9676055,46.784633 100.269225,48.6420638 100.861061,50.4159415 L104.320043,60.7852181 L110.848699,60.7852181 L110.848699,36.8648617 L106.496262,36.8648617 C102.890678,36.8645904 99.9676055,39.7854255 99.9676055,43.3885213 Z" id="Shape" fill="#5A4146"></path>
                                    <path d="M129.932693,47.320133 L126.082502,60.7852181 L108.67248,45.5630745 C106.268758,45.5630745 104.320043,43.6158511 104.320043,41.2139681 C104.320043,37.6108723 107.243115,34.6903085 110.848699,34.6903085 L130.43494,34.6903085 L130.434939,43.7357553 C130.435211,44.9478191 130.266076,46.1544574 129.932693,47.320133 Z" id="Shape" fill="#694B4B"></path>
                                    <rect id="Rectangle-path" fill="#E6AF78" x="108.67248" y="67.3086064" width="13.0583984" height="13.0484043"></rect>
                                    <path d="M132.228637,75.5814574 L121.729521,72.5841223 L115.201408,80.3561968 L108.672752,72.5841223 L98.1741797,75.5814574 C95.371375,76.3817234 93.4389492,78.9414894 93.4389492,81.8541862 L93.4389492,99.9274468 L136.963867,99.9274468 L136.963867,81.8544574 C136.963867,78.9414894 135.031441,76.3817234 132.228637,75.5814574 Z" id="Shape" fill="#1B7992"></path>
                                    <path d="M115.201408,69.4834309 C107.989969,69.4834309 102.143824,63.6417606 102.143824,56.4358404 C102.143824,53.6511862 103.250937,50.9804681 105.221371,49.0112713 L107.36474,46.8695426 C108.200369,46.0345532 109.343047,45.5543936 110.524004,45.5915585 C117.480791,45.81075 123.6386,47.3000585 127.004734,50.5849468 C127.828689,51.3890106 128.258721,52.5139947 128.258721,53.66475 L128.258721,56.4355691 C128.258992,63.6417606 122.412848,69.4834309 115.201408,69.4834309 Z" id="Shape" fill="#F0C087"></path>
                                    <path d="M108.67248,56.4358404 C108.67248,53.9273457 110.780828,51.9334628 113.286086,52.0929734 C117.679518,52.3729309 124.198672,53.106734 128.19818,55.0292713 C128.067596,54.1118138 127.673129,51.2376383 127.004463,50.5849468 C123.6386,47.3000585 117.480791,45.81075 110.524004,45.5915585 L110.523732,45.5915585 C109.342775,45.5543936 108.200098,46.0348245 107.364469,46.8695426 L105.2211,49.0112713 C103.250395,50.9804681 102.143553,53.6509149 102.143553,56.4358404 C102.143553,62.3860213 106.133559,67.3959574 111.583064,68.96475 C109.769277,66.7283457 108.672209,63.8899787 108.672209,60.7849468 L108.672209,56.4358404 L108.67248,56.4358404 Z" id="Shape" fill="#E6AF78"></path>
                                    <path d="M128.258721,88.3338989 C128.258721,86.6036968 128.946662,84.9442979 130.171057,83.7208404 L135.773137,78.1230479 C136.521891,79.1924202 136.963867,80.4798989 136.963867,81.8541862 L136.963867,99.9274468 L128.258721,99.9274468 L128.258721,88.3338989 Z" id="Shape" fill="#00617B"></path>
                                    <path d="M100.766041,76.0995957 L82.557584,69.4834309 L69.5,73.8325372 L56.442416,69.4834309 L38.233959,76.0995957 C34.793709,77.3496383 32.5037383,80.6166223 32.5037383,84.2742447 L32.5037383,99.9274468 L106.496262,99.9274468 L106.496262,84.2742447 C106.496262,80.6166223 104.206291,77.3496383 100.766041,76.0995957 Z" id="Shape" fill="#24D9DE"></path>
                                    <path d="M104.153895,78.3479362 C105.623439,79.9240532 106.496262,82.0229202 106.496262,84.274516 L106.496262,99.9279894 L93.4386777,99.9279894 L93.4386777,92.6580479 C93.4386777,90.3511117 94.355752,88.1385798 95.9881875,86.5073936 L104.153895,78.3479362 Z" id="Shape" fill="#16B5B9"></path>
                                    <path d="M93.4386777,24.6373404 L93.4386777,6.42030319 C93.4386777,4.01842021 91.4899629,2.07119681 89.0862402,2.07119681 L62.9710723,2.07119681 C53.3559102,2.07119681 45.5610508,9.86009043 45.5610508,19.4678936 L45.5610508,24.6373404 C45.5610508,26.9746596 45.9381426,29.296516 46.6779375,31.5139309 L47.4022578,33.6855 C47.6240605,34.3506702 47.7372695,35.0473085 47.7372695,35.7485585 L47.7372695,36.8645904 L91.262459,36.8645904 L91.262459,35.7485585 C91.262459,35.0473085 91.375668,34.3506702 91.5974707,33.6855 L92.321791,31.5139309 C93.0615859,29.2967872 93.4386777,26.9746596 93.4386777,24.6373404 Z" id="Shape" fill="#FF901D"></path>
                                    <path d="M56.442416,10.9055904 C56.442416,15.7845 60.4006582,19.739984 65.2835762,19.739984 L66.5076992,19.739984 L67.0987207,36.8648617 L91.2627305,36.8648617 L91.2627305,35.7488298 C91.2627305,35.0475798 91.3759395,34.3512128 91.5977422,33.6857713 L92.3220625,31.5142021 C93.0618574,29.2967872 93.4389492,26.9749309 93.4389492,24.6376117 L93.4389492,6.42030319 C93.4389492,4.01814894 91.4902344,2.07119681 89.0865117,2.07119681 L65.2838477,2.07119681 C60.4006582,2.07119681 56.442416,6.02640957 56.442416,10.9055904 Z" id="Shape" fill="#FFB125"></path>
                                    <rect id="Rectangle-path" fill="#FFE7CF" x="56.4416016" y="54.2602021" width="26.114082" height="19.5698936"></rect>
                                    <path d="M56.442416,64.1029309 C60.351248,66.1404894 64.7862168,67.3088777 69.5,67.3088777 C74.2137832,67.3088777 78.648752,66.1404894 82.557584,64.1029309 L82.557584,54.2612872 L56.442416,54.2612872 L56.442416,64.1029309 Z" id="Shape" fill="#F4D5BA"></path>
                                    <g id="Group" transform="translate(51.853516, 65.648936)" fill="#1F87A3">
                                        <path d="M17.6464844,8.18360106 L10.7057148,15.1190585 C9.77289453,16.0511649 8.23086328,15.9461809 7.43324219,14.8960691 L0.236462891,5.42064894 L2.11893555,1.45675532 C2.67439258,0.287010638 4.12330469,-0.141606383 5.22661719,0.537670213 L17.6464844,8.18360106 Z" id="Shape"></path>
                                        <path d="M17.6464844,8.18360106 L24.5872539,15.1190585 C25.5200742,16.0511649 27.0621055,15.9461809 27.8597266,14.8960691 L35.0565059,5.42064894 L33.1740332,1.45675532 C32.6185762,0.287010638 31.1696641,-0.141606383 30.0663516,0.537670213 L17.6464844,8.18360106 Z" id="Shape"></path>
                                    </g>
                                    <path d="M69.5,60.7852181 C57.4808437,60.7852181 47.737541,51.0493723 47.737541,39.0394149 L47.737541,36.8648617 L51.3591426,34.4523989 C53.175373,33.2425053 54.2664687,31.2054894 54.2664687,29.0241543 L54.2664687,21.6427181 C54.2664687,21.6427181 71.6767617,15.1187872 84.7340742,25.9920957 C84.7340742,25.9920957 84.7340742,27.4727234 84.7340742,29.0230691 C84.7340742,31.2044043 85.8248984,33.242234 87.6414004,34.4523989 L91.2627305,36.8648617 L91.2627305,39.0394149 C91.262459,51.0491011 81.5191562,60.7852181 69.5,60.7852181 Z" id="Shape" fill="#FFE7CF"></path>
                                    <path d="M34.8461055,78.3479362 C33.3765605,79.9240532 32.5037383,82.0229202 32.5037383,84.274516 L32.5037383,99.9279894 L45.5613223,99.9279894 L45.5613223,92.6580479 C45.5613223,90.3511117 44.644248,88.1385798 43.0118125,86.5073936 L34.8461055,78.3479362 Z" id="Shape" fill="#16B5B9"></path>
                                    <path d="M64.6230547,26.8694043 C69.3552988,26.2763936 77.6388301,25.9359415 84.7338027,29.0227979 C84.7338027,28.1509149 84.7338027,25.9918245 84.7338027,25.9918245 C71.6762188,15.118516 54.2661973,21.6424468 54.2661973,21.6424468 L54.2661973,29.023883 C54.2661973,31.2052181 53.175373,33.2419628 51.3588711,34.4521277 L47.737541,36.8645904 L47.737541,39.0391436 C47.737541,50.1576862 56.0935586,59.3111011 66.8701309,60.6110585 L66.8706738,60.6110585 C63.1152305,56.7035904 60.795125,51.4082713 60.795125,45.5630745 L60.795125,31.1892128 C60.7948535,28.9853617 62.4348906,27.1436649 64.6230547,26.8694043 Z" id="Shape" fill="#F4D5BA"></path>
                                    <path d="M120.813805,49.5559947 C121.106193,49.7022128 121.416771,49.771117 121.722734,49.771117 C122.469588,49.771117 123.18875,49.3587766 123.54548,48.646133 C124.048541,47.6410532 123.640771,46.4189521 122.634922,45.9162766 C117.905121,43.5534574 109.037084,43.5260585 108.661893,43.5260585 C107.537404,43.5260585 106.62576,44.4370053 106.62576,45.560633 C106.62576,46.6842606 107.537404,47.5952074 108.661893,47.5952074 C110.950234,47.5954787 117.594271,47.9475957 120.813805,49.5559947 Z" id="Shape" fill="#000000"></path>
                                    <path d="M132.786266,74.8834628 L124.377037,72.4826649 C124.014063,72.3790372 123.760496,72.0431968 123.760496,71.6658511 L123.760496,68.8611223 C124.444637,68.3874734 125.097285,67.8573989 125.707311,67.2657447 C128.663775,64.3988936 130.291867,60.5535479 130.291867,56.4377394 L130.291867,52.5674362 L131.104963,50.9427606 C131.997332,49.159117 132.4689,47.16225 132.4689,45.168367 L132.4689,34.6835266 C132.4689,33.5598989 131.557256,32.6489521 130.432768,32.6489521 L110.838926,32.6489521 C103.71409,32.6489521 97.9173555,38.44125 97.9173555,45.560633 L97.9173555,45.6818936 C97.9173555,47.3399362 98.3096504,49.0004202 99.0516172,50.4832181 L100.094389,52.5671649 L100.094389,55.8903032 C100.094389,61.156867 102.69168,65.882234 106.62576,68.7257553 L106.626303,71.6653085 C106.626303,72.1186117 106.626303,72.3063351 104.945,72.7864947 L100.841785,73.957867 L88.9722168,69.6451117 C89.0148398,69.0854681 88.8258867,68.5163298 88.4173027,68.0874415 L84.6243945,64.1056436 L84.6243945,57.4213883 C85.025377,57.0912447 85.4206582,56.7521489 85.8037227,56.3935213 C90.5886348,51.9120319 93.3327988,45.5847766 93.3327988,39.0342606 L93.3327988,33.6960798 C94.7776387,30.5544255 95.509832,27.2299309 95.509832,23.8061489 L95.509832,2.05247872 C95.509832,0.928851064 94.5981875,0.0179042553 93.4736992,0.0179042553 L62.9944199,0.0179042553 C52.2680723,0.0179042553 43.54175,8.73781915 43.54175,19.4556862 L43.54175,23.8066915 C43.54175,27.2304734 44.2739434,30.5549681 45.7187832,33.6966223 L45.7187832,38.2896064 C45.7187832,45.895117 49.1031074,52.7470213 54.4271875,57.2643191 L54.4271875,64.1059149 L50.6342793,68.0877128 C50.2256953,68.5166011 50.0367422,69.0857394 50.0793652,69.645383 L37.5517187,74.197133 C36.643875,74.5270053 35.800373,74.9737979 35.0345156,75.5149947 L33.0673398,74.5321596 C38.9232578,71.9851436 40.7783105,68.4029362 40.8673574,68.2249787 C41.1540449,67.6523138 41.1540449,66.9779202 40.8673574,66.4052553 C39.3994414,63.4716702 39.2216191,58.0946968 39.0788184,53.7743457 C39.0313086,52.3360372 38.9862422,50.9772128 38.9001816,49.7673191 C38.2059961,40.0084149 30.7814414,32.6489521 21.6297031,32.6489521 C12.4779648,32.6489521 5.05313867,40.0081436 4.35922461,49.7673191 C4.27316406,50.977484 4.22809766,52.3363085 4.18058789,53.7748883 C4.03778711,58.0949681 3.85969336,63.4713989 2.39204883,66.404984 C2.10536133,66.9776489 2.10536133,67.6520426 2.39204883,68.2247074 C2.4810957,68.4026649 4.33234766,71.9775479 10.1999395,74.5275479 L4.73577344,77.2574043 C1.81460156,78.7176862 0,81.6515426 0,84.915 L0,99.9461649 C0,101.069793 0.911644531,101.980739 2.03613281,101.980739 C3.16062109,101.980739 4.07226562,101.069793 4.07226562,99.9461649 L4.07226562,84.915 C4.07226562,83.2027021 5.02436133,81.6632074 6.55689063,80.8973936 L13.3611035,77.4980266 L15.7279043,79.7455532 C17.382873,81.3170585 19.5058809,82.1024043 21.6297031,82.1024043 C23.7529824,82.1024043 25.8770762,81.316516 27.531502,79.7455532 L29.8980313,77.4982979 L32.1166016,78.606734 C31.0719297,80.276984 30.4790078,82.2356011 30.4790078,84.287266 L30.4790078,99.9467074 C30.4790078,101.070335 31.3906523,101.981282 32.5151406,101.981282 C33.6396289,101.981282 34.5512734,101.070335 34.5512734,99.9467074 L34.5512734,84.287266 C34.5512734,81.4942021 36.3161934,78.9762128 38.9433477,78.0215904 L52.1516055,73.2224362 L57.6499785,81.4640904 C58.3528516,82.5177287 59.4792402,83.1934787 60.7402852,83.318266 C60.8809141,83.3321011 61.0207285,83.338883 61.1602715,83.338883 C62.2728145,83.338883 63.3383906,82.9013138 64.1349258,82.1056596 L67.4893867,78.753766 L67.4893867,99.9469787 C67.4893867,101.070606 68.4010313,101.981553 69.5255195,101.981553 C70.6500078,101.981553 71.5616523,101.070606 71.5616523,99.9469787 L71.5616523,78.753766 L74.9161133,82.1056596 C75.712377,82.9015851 76.7779531,83.3391543 77.8907676,83.3391543 C78.0300391,83.3391543 78.170125,83.3323723 78.3104824,83.3185372 C79.5717988,83.19375 80.6981875,82.518 81.4010605,81.4643617 L86.8997051,73.2229787 L100.107691,78.022133 C102.734574,78.9767553 104.499766,81.4947447 104.499766,84.2878085 L104.499766,99.94725 C104.499766,101.070878 105.41141,101.981824 106.535898,101.981824 C107.660387,101.981824 108.572031,101.070878 108.572031,99.94725 L108.572031,84.2878085 C108.572031,81.4589362 107.447271,78.8058511 105.560455,76.8437074 L106.063516,76.7002021 C106.57092,76.5553404 107.263205,76.3570372 107.958205,76.0165851 L113.156859,81.2112606 L113.156859,99.94725 C113.156859,101.070878 114.068504,101.981824 115.192992,101.981824 C116.31748,101.981824 117.229125,101.070878 117.229125,99.94725 L117.229125,81.2112606 L122.391672,76.0526649 C122.666143,76.1921011 122.954459,76.3098351 123.257979,76.3963723 L131.667479,78.7971702 C133.586873,79.3451489 134.927734,81.1211968 134.927734,83.1161649 L134.927734,99.94725 C134.927734,101.070878 135.839379,101.981824 136.963867,101.981824 C138.088355,101.981824 139,101.070878 139,99.94725 L139,83.1161649 C139,79.3131383 136.444789,75.9281489 132.786266,74.8834628 Z M30.1969355,71.2966436 L30.197207,68.8700745 C32.5659082,67.240516 34.4491953,64.9482287 35.5728691,62.237633 C35.8169336,63.9895372 36.1771934,65.6492074 36.7321074,67.098367 C35.9211836,68.0855426 34.0017891,69.9277819 30.1969355,71.2966436 Z M8.42144531,50.0559574 C8.68152734,46.400234 10.1434707,43.0315213 12.5379629,40.5699574 C14.9539023,38.0861489 18.1829375,36.7183723 21.6302461,36.7183723 C25.0775547,36.7183723 28.3063184,38.0861489 30.7225293,40.5699574 C33.1170215,43.0315213 34.5789648,46.400234 34.8390469,50.0559574 C34.9194062,51.1890798 34.9633867,52.5101968 35.0095391,53.9088989 C35.0136113,54.0290745 35.0176836,54.1508777 35.0217559,54.271867 C32.8064434,50.8613777 29.3851973,48.348 24.9646172,46.9286809 C20.8806777,45.6176011 17.3682129,45.6987128 17.2199824,45.7025106 C16.6867871,45.7174309 16.1807402,45.9404202 15.810707,46.3240053 L12.1369805,50.1311011 C11.3564629,50.9400479 11.3798105,52.2280691 12.189377,53.0079894 C12.9989434,53.7879096 14.2879512,53.7643085 15.0684687,52.955633 L18.1253828,49.7879362 C20.7579668,49.9165213 29.2274648,50.9007128 32.5213848,58.1484096 C31.692543,63.4895745 27.0984844,67.4559096 21.6307891,67.4559096 C15.550625,67.4559096 10.6044512,62.51325 10.6044512,56.4380106 C10.6044512,55.314383 9.69280664,54.4034362 8.56831836,54.4034362 C8.45429492,54.4034362 8.34298633,54.4151011 8.23412109,54.4332766 C8.24009375,54.2583032 8.24579492,54.0830585 8.25176758,53.9097128 C8.29710547,52.5107394 8.34081445,51.1893511 8.42144531,50.0559574 Z M6.5278418,67.0978245 C7.0838418,65.6454096 7.44437305,63.9819415 7.6884375,62.2259681 C8.81129688,64.9162181 10.6918691,67.2128457 13.0624707,68.8513564 L13.0624707,71.2898617 C9.25381641,69.9204574 7.34338086,68.094766 6.5278418,67.0978245 Z M18.5334238,76.7959628 L16.6398203,74.9979415 C16.9593574,74.3997766 17.1350078,73.7215851 17.1350078,73.0111117 L17.1350078,70.8425266 C18.5554141,71.2860638 20.0654102,71.5253298 21.6302461,71.5253298 C23.1931816,71.5253298 24.7023633,71.2849787 26.1252129,70.843883 L26.1249414,73.0108404 C26.1249414,73.7215851 26.3003203,74.4000479 26.6201289,74.998484 L24.7267969,76.796234 C22.9901113,78.4450532 20.2695664,78.4447819 18.5334238,76.7959628 Z M49.7910488,38.2893351 L49.7910488,33.2414202 C49.7910488,32.9351489 49.7218203,32.6326755 49.5885215,32.3567872 C48.2783379,29.6456489 47.6140156,26.7690319 47.6140156,23.8066915 L47.6140156,19.4556862 C47.6140156,10.9812766 54.513791,4.08705319 62.9944199,4.08705319 L91.4375664,4.08705319 L91.4375664,23.8066915 C91.4375664,26.7690319 90.7732441,29.6456489 89.4630605,32.3567872 C89.3297617,32.6326755 89.2605332,32.9351489 89.2605332,33.2414202 L89.2605332,39.0345319 C89.2605332,44.5444309 87.0438633,49.6550106 83.0188359,53.4249415 C82.5163184,53.8953351 81.9947969,54.3364309 81.4556289,54.7474149 C81.4436836,54.7555532 81.4322813,54.7645053 81.4206074,54.7729149 C77.6499609,57.6335266 73.0314688,59.0238191 68.2082773,58.7115798 C57.8807402,58.0434255 49.7910488,49.0728511 49.7910488,38.2893351 Z M67.944666,62.7720479 C68.4813906,62.8067713 69.0148574,62.8238617 69.5466953,62.8238617 C73.4400527,62.8238617 77.1870801,61.8939255 80.5521289,60.1287287 L80.5521289,63.8452181 L69.525791,71.3763989 L58.4994531,63.8452181 L58.4994531,60.0473457 C61.3524824,61.5884681 64.5470391,62.5523138 67.944666,62.7720479 Z M61.2555625,79.2279574 C61.2414453,79.2420638 61.2085957,79.2754309 61.142082,79.2683777 C61.0758398,79.261867 61.0497773,79.2230745 61.0386465,79.2062553 L54.7062734,69.7148298 L56.7440352,67.5752713 L66.3505098,74.1366383 L61.2555625,79.2279574 Z M78.0129355,79.2065266 C78.0018047,79.2233457 77.9757422,79.2621383 77.9095,79.2686489 C77.8429863,79.2770585 77.8104082,79.2420638 77.7960195,79.2282287 L72.7010723,74.1371809 L82.3075469,67.5755426 L84.3455801,69.7151011 L78.0129355,79.2065266 Z M104.166654,55.8908457 L104.166654,52.0872766 C104.166654,51.7712394 104.093082,51.4598138 103.951639,51.1774149 L102.693852,48.663766 C102.233143,47.7427819 101.989621,46.7119309 101.989621,45.6821649 L101.989621,45.5609043 C101.989621,40.6849787 105.959537,36.7183723 110.838926,36.7183723 L128.396635,36.7183723 L128.396635,45.1686383 C128.396635,46.5342447 128.073568,47.90175 127.462457,49.1233085 L126.434617,51.1774149 C126.293174,51.4600851 126.219602,51.7712394 126.219602,52.0872766 L126.219602,56.4380106 C126.219602,59.4437553 125.0305,62.2520106 122.871385,64.3457234 C120.713355,66.4383511 117.862498,67.5435319 114.852551,67.4507553 C108.960254,67.2741543 104.166654,62.0881596 104.166654,55.8908457 Z M114.730111,71.5180053 C114.887029,71.5228883 115.04259,71.5250585 115.198965,71.5250585 C116.744254,71.5250585 118.252621,71.2917606 119.68823,70.8465957 L119.68823,71.6658511 C119.68823,72.0716809 119.73927,72.4693723 119.835375,72.8516011 L115.192992,77.4901596 L110.572328,72.8733032 C110.652959,72.5073511 110.698568,72.1066755 110.698297,71.664766 L110.698025,70.8061755 C111.980246,71.2266543 113.331695,71.4762287 114.730111,71.5180053 Z" id="Shape" fill="#000000"></path>
                                    <path d="M128.255463,84.859117 C127.130975,84.859117 126.21933,85.7700638 126.21933,86.8936915 L126.21933,99.9461649 C126.21933,101.069793 127.130975,101.980739 128.255463,101.980739 C129.379951,101.980739 130.291596,101.069793 130.291596,99.9461649 L130.291596,86.8936915 C130.291596,85.7700638 129.379951,84.859117 128.255463,84.859117 Z" id="Shape" fill="#000000"></path>
                                    <path d="M10.7445371,87.5485532 C9.62004883,87.5485532 8.7084043,88.4595 8.7084043,89.5831277 L8.7084043,99.9461649 C8.7084043,101.069793 9.62004883,101.980739 10.7445371,101.980739 C11.8690254,101.980739 12.7806699,101.069793 12.7806699,99.9461649 L12.7806699,89.5831277 C12.7806699,88.4595 11.8690254,87.5485532 10.7445371,87.5485532 Z" id="Shape" fill="#000000"></path>
                                    <path d="M56.3221484,23.4703085 C56.3221484,23.401133 56.3677578,23.3419947 56.4285703,23.3327713 C59.0530098,22.9375213 64.2608945,22.3276915 69.6566465,22.687133 C76.006123,23.1095106 80.6050684,24.7021755 83.3256133,27.4209096 C84.120791,28.2154787 85.4100703,28.2154787 86.2049766,27.4209096 C87.0001543,26.6263404 87.0001543,25.3380479 86.2049766,24.54375 C78.5040508,16.8487181 62.3917246,18.3198511 55.8212598,19.3094681 C53.7517344,19.6211649 52.2498828,21.3711702 52.2498828,23.4705798 L52.2498828,28.1576968 C52.2498828,29.2813245 53.1615273,30.1922713 54.2860156,30.1922713 C55.4105039,30.1922713 56.3221484,29.2813245 56.3221484,28.1576968 L56.3221484,23.4703085 Z" id="Shape" fill="#000000"></path>
                                    <path d="M45.5778828,89.2101223 C44.4533945,89.2101223 43.54175,90.1210691 43.54175,91.2446968 L43.54175,99.9464362 C43.54175,101.070064 44.4533945,101.981011 45.5778828,101.981011 C46.7023711,101.981011 47.6140156,101.070064 47.6140156,99.9464362 L47.6140156,91.2446968 C47.6140156,90.1210691 46.7023711,89.2101223 45.5778828,89.2101223 Z" id="Shape" fill="#000000"></path>
                                    <path d="M93.4736992,89.2101223 C92.3492109,89.2101223 91.4375664,90.1210691 91.4375664,91.2446968 L91.4375664,99.9464362 C91.4375664,101.070064 92.3492109,101.981011 93.4736992,101.981011 C94.5981875,101.981011 95.509832,101.070064 95.509832,99.9464362 L95.509832,91.2446968 C95.509832,90.1210691 94.5981875,89.2101223 93.4736992,89.2101223 Z" id="Shape" fill="#000000"></path>
                                </g>
                            </g>
                        </g>
                    </g>
                </g>
            </g>
        </g>
    </g>
</svg>