<?xml version="1.0" encoding="UTF-8"?>
<svg width="346px" height="220px" viewBox="0 0 346 220" version="1.1" xmlns="http://www.w3.org/2000/svg" xmlns:xlink="http://www.w3.org/1999/xlink">
    <!-- Generator: Sketch 51.1 (57501) - http://www.bohemiancoding.com/sketch -->
    <title>wayfinding</title>
    <desc>Created with Sketch.</desc>
    <defs></defs>
    <g id="Page-1" stroke="none" stroke-width="1" fill="none" fill-rule="evenodd">
        <g id="healthcare_industry" transform="translate(-1265.000000, -3388.000000)" fill-rule="nonzero">
            <g id="Group-80" transform="translate(240.000000, 861.000000)">
                <g id="Group-31" transform="translate(7.000000, 2344.000000)">
                    <g id="wayfinding" transform="translate(1018.000000, 183.000000)">
                        <path d="M78.7617188,206.382813 C255.042969,226.627604 343.183594,218.264323 343.183594,181.292969 C343.183594,125.835937 170.292969,199.164062 170.292969,145.777344 C170.292969,92.390625 312,155.785156 312,108.035156 C312,60.2851562 204.09375,107.972656 204.09375,68.2304687 C204.09375,41.7356771 243.078125,37.8554687 321.046875,56.5898438" id="Path-8" stroke="#589EA0" stroke-width="4" stroke-dasharray="15"></path>
                        <g id="location" transform="translate(298.000000, 0.000000)">
                            <g id="Group" transform="translate(1.122807, 1.114607)">
                                <path d="M45.6332632,22.7389528 C45.6332632,25.8538607 44.208,29.8011011 42.0762105,33.9623461 C39.7650526,38.3068045 37.1518596,42.4860225 34.2554386,46.4697663 C31.4050526,50.4526742 28.5665965,54.0431011 26.4346667,56.6349798 C25.7879298,57.4315056 25.2011228,58.1211685 24.7100351,58.7155326 C24.261614,59.246364 23.6016842,59.5559461 22.9038596,59.562773 C22.2060351,59.5696 21.5400702,59.2731146 21.0811228,58.7512 L21.045193,58.7155326 C20.5541053,58.1210292 19.9672982,57.4315056 19.3205614,56.6349798 C17.1887719,54.0431011 14.3382456,50.4526742 11.4997895,46.4697663 C8.59915789,42.488809 5.98568421,38.3093124 3.67901754,33.9623461 C1.54722807,29.8011011 0.121964912,25.854 0.121964912,22.7389528 C0.107368421,13.6497528 5.58175439,5.43733034 14.0148772,1.89733933 C16.2610526,0.949644944 18.6477193,0.371442697 21.0811228,0.185303371 C21.6679298,0.137793258 22.2787368,0.113968539 22.877614,0.113968539 C28.9156491,0.113968539 34.7062456,2.49630112 38.9741754,6.73626517 C43.2492632,10.9791551 45.6454737,16.7379101 45.6332632,22.7389528 Z" id="Shape" fill="#C52828"></path>
                                <path d="M42.0402807,22.7389528 C42.0402807,25.8538607 40.6150175,29.8011011 38.4832281,33.9623461 C36.1720702,38.3068045 33.5588772,42.4860225 30.6624561,46.4697663 C27.8120702,50.4526742 24.973614,54.0431011 22.8416842,56.6349798 C22.1949474,57.4315056 21.6081404,58.1211685 21.1170526,58.7155326 L21.0811228,58.7512 L21.045193,58.7155326 C20.5541053,58.1210292 19.9672982,57.4315056 19.3205614,56.6349798 C17.1887719,54.0431011 14.3382456,50.4526742 11.4997895,46.4697663 C8.59915789,42.488809 5.98568421,38.3093124 3.67901754,33.9623461 C1.54722807,29.8011011 0.121964912,25.854 0.121964912,22.7389528 C0.107368421,13.6497528 5.58175439,5.43733034 14.0148772,1.89733933 C16.2610526,0.949644944 18.6477193,0.371442697 21.0811228,0.185303371 C23.5145263,0.371442697 25.901193,0.949644944 28.1473684,1.89733933 C36.5823158,5.4349618 42.0576842,13.6489169 42.0402807,22.7389528 Z" id="Shape" fill="#F44335"></path>
                                <path d="M33.6565614,21.514418 C33.6472982,27.4201618 28.826807,32.2054472 22.877614,32.2146427 C22.2759298,32.2153393 21.6750877,32.1676899 21.0811228,32.071973 C15.8993684,31.191991 12.1107368,26.7330067 12.1107368,21.514418 C12.1107368,16.2958292 15.8993684,11.8368449 21.0811228,10.9568629 C21.6750877,10.8611461 22.2759298,10.8134966 22.877614,10.8141933 C28.8269474,10.8232494 33.6474386,15.6085348 33.6565614,21.514418 Z" id="Shape" fill="#CFD8DC"></path>
                                <path d="M30.0635789,21.514418 C30.0512281,26.7327281 26.261614,31.186836 21.0811228,32.071973 C15.8993684,31.191991 12.1107368,26.7330067 12.1107368,21.514418 C12.1107368,16.2958292 15.8993684,11.8368449 21.0811228,10.9568629 C26.2617544,11.8418607 30.0513684,16.2961079 30.0635789,21.514418 Z" id="Shape" fill="#F5F5F5"></path>
                            </g>
                            <g id="Group" fill="#000000">
                                <path d="M11.6454737,48.2726427 C14.6049123,52.4148 17.5595789,56.1194742 19.5177544,58.5055685 C19.802807,58.8527685 20.0698947,59.1748899 20.3285614,59.4851685 L14.4193684,59.4851685 C13.7578947,59.4851685 13.2217544,60.0173933 13.2217544,60.674036 C13.2217544,61.3306787 13.7578947,61.8629034 14.4193684,61.8629034 L33.5817544,61.8629034 C34.2432281,61.8629034 34.7793684,61.3306787 34.7793684,60.674036 C34.7793684,60.0173933 34.2430877,59.4851685 33.5817544,59.4851685 L27.6725614,59.4851685 C27.9312281,59.1748899 28.1983158,58.8526292 28.4846316,58.5055685 C30.4415439,56.1276944 33.3950877,52.4148 36.3556491,48.2726427 C39.2930526,44.2454292 41.9369825,40.015218 44.2673684,35.6143326 C46.7129825,30.8467416 47.9538246,26.8889124 47.9538246,23.8500764 C47.9619649,17.5356899 45.4378947,11.4778022 40.9390877,7.01380225 C40.6385965,6.70449888 40.1934035,6.58022022 39.7745965,6.68875506 C39.3557895,6.79728989 39.0284912,7.12164045 38.9185965,7.53724944 C38.8087018,7.95285843 38.933193,8.39493933 39.2443509,8.69365393 C43.2937544,12.7123685 45.565614,18.1657213 45.5584561,23.8499371 C45.5584561,26.510782 44.4063158,30.1059461 42.133193,34.5346966 C39.8554386,38.8335955 37.2714386,42.965582 34.4011228,46.8994472 C31.4812632,50.9881034 28.5625263,54.6511191 26.6283509,57.0051685 C25.9852632,57.7874831 25.4067368,58.4793753 24.9132632,59.0644045 C24.6829474,59.3255011 24.3503158,59.4751371 24.0007018,59.4751371 C23.6510877,59.4751371 23.3184561,59.3253618 23.0881404,59.0644045 C22.5946667,58.4795146 22.0162807,57.7874831 21.3730526,57.0051685 C19.4388772,54.652373 16.5201404,50.989218 13.6002807,46.8994472 C10.7299649,42.9657213 8.14596491,38.8335955 5.86821053,34.5346966 C3.59270175,30.1059461 2.44294737,26.510782 2.44294737,23.8499371 C2.44224561,15.2383461 7.63017544,7.46145618 15.6172632,4.10091685 C20.984,1.86696629 27.0297544,1.86696629 32.3964912,4.10091685 C32.7905965,4.26685393 33.2439298,4.21140225 33.5855439,3.95546067 C33.9272982,3.69965843 34.1055439,3.2822382 34.053193,2.86049888 C34.0008421,2.43875955 33.7258947,2.07679101 33.3317895,1.91099326 C21.1355789,-3.19557753 7.07831579,2.47693483 1.93038596,14.5824 C0.681964912,17.5146517 0.0416842105,20.6666202 0.0477192982,23.8499371 C0.0477192982,26.888773 1.2885614,30.8467416 3.73417544,35.6201843 C6.0642807,40.0191191 8.70835088,44.2473798 11.6454737,48.2726427 Z" id="Shape"></path>
                                <path d="M24.0004211,13.1176674 C24.6618947,13.1176674 25.1980351,12.5853034 25.1980351,11.9288 C25.1980351,11.2721573 24.6617544,10.7399326 24.0004211,10.7399326 C18.2867368,10.7397933 13.3685614,14.7465258 12.2537544,20.3095281 C11.1389474,25.8725303 14.1381053,31.4424989 19.4168421,33.6131955 C24.6955789,35.7838921 30.7838596,33.9505034 33.9583158,29.2344629 C37.1327719,24.5184225 36.509193,18.2330157 32.4690526,14.2222427 C32.1684211,13.913218 31.7230877,13.789218 31.3042807,13.8980315 C30.885614,14.0068449 30.5585965,14.3314742 30.4489825,14.7470831 C30.3393684,15.1628315 30.4642807,15.604773 30.7755789,15.9033483 C34.0078596,19.1118831 34.506807,24.1400135 31.9674386,27.9129573 C29.4280702,31.6859011 24.5574737,33.1527236 20.3344561,31.4164449 C16.1114386,29.6801663 13.7118596,25.2242472 14.6035088,20.7737618 C15.4951579,16.3232764 19.4294737,13.1178067 24.0004211,13.1176674 Z" id="Shape"></path>
                            </g>
                        </g>
                        <g id="assistant" transform="translate(0.000000, 26.000000)">
                            <g id="Group" transform="translate(2.883117, 2.869396)">
                                <path d="M12.6377825,0.191173489 L92.5963442,0.191173489 C99.3900487,0.191173489 104.897523,5.67243665 104.897523,12.433809 L104.897523,165.468366 C104.897523,172.229739 99.3900487,177.711002 92.5963442,177.711002 L12.6377825,177.711002 C5.84407792,177.711002 0.336603896,172.229739 0.336603896,165.468366 L0.336603896,12.4341676 C0.336243506,5.67243665 5.84371753,0.191173489 12.6377825,0.191173489 Z" id="Shape" stroke="#979797" fill="#7FAD97"></path>
                                <path d="M12.6377825,0.191173489 L83.3703701,0.191173489 C90.1640747,0.191173489 95.6715487,5.67243665 95.6715487,12.433809 L95.6715487,165.468366 C95.6715487,172.229739 90.1640747,177.711002 83.3703701,177.711002 L12.6377825,177.711002 C5.84407792,177.711002 0.336603896,172.229739 0.336603896,165.468366 L0.336603896,12.4341676 C0.336243506,5.67243665 5.84371753,0.191173489 12.6377825,0.191173489 Z" id="Shape" fill="#DCFAEC"></path>
                                <g id="compass" transform="translate(11.116883, 47.130604)">
                                    <g id="Group">
                                        <circle id="Oval" fill="#FFFFFF" cx="41.3917109" cy="41.3917109" r="40.4190547"></circle>
                                        <path d="M41.3910625,0.97265625 C63.7154687,0.97265625 81.8107656,19.0686016 81.8107656,41.3917109 C81.8107656,63.7141719 63.7154687,81.8114141 41.3910625,81.8114141" id="Shape" fill="#DCEEF5"></path>
                                        <path d="M41.3917109,82.7840703 C18.5680078,82.7840703 0,64.2154141 0,41.3917109 C0,18.5680078 18.5680078,0 41.3917109,0 C64.2154141,0 82.7840703,18.5680078 82.7840703,41.3917109 C82.7840703,64.2154141 64.2154141,82.7840703 41.3917109,82.7840703 Z M41.3917109,1.9453125 C19.6411719,1.9453125 1.9453125,19.6411719 1.9453125,41.3917109 C1.9453125,63.1428984 19.6405234,80.8387578 41.3910625,80.8387578 C63.14225,80.8387578 80.8381094,63.1428984 80.8381094,41.3917109 C80.8387578,19.6411719 63.14225,1.9453125 41.3917109,1.9453125 Z" id="Shape" stroke="#000000" stroke-width="0.650000036" fill="#000000"></path>
                                    </g>
                                    <path d="M38.2818047,72.2677109 C38.2487344,72.2677109 38.2150156,72.2664141 38.1812969,72.2625234 C36.0252422,72.0407578 33.8899375,71.5913906 31.8337422,70.9267422 C31.322125,70.7613906 31.042,70.2128125 31.2073516,69.7018438 C31.3727031,69.1902266 31.9232266,68.91075 32.43225,69.0754531 C34.3587578,69.6979531 36.3598359,70.1194375 38.3797187,70.3269375 C38.9140312,70.3820547 39.3024453,70.8593047 39.2479766,71.3942656 C39.1961016,71.8955078 38.7739687,72.2677109 38.2818047,72.2677109 Z M44.5599766,72.261875 C44.0684609,72.261875 43.6463281,71.8903203 43.5938047,71.390375 C43.5380391,70.8560625 43.9251562,70.3775156 44.4594687,70.32175 C46.4793516,70.1097109 48.4791328,69.6849844 50.4036953,69.0585938 C50.9159609,68.8932422 51.4638906,69.1720703 51.6298906,69.6823906 C51.7958906,70.1933594 51.5170625,70.7419375 51.0060937,70.9085859 C48.9524922,71.577125 46.8178359,72.0303828 44.6624297,72.2566875 C44.6280625,72.2605781 44.5936953,72.261875 44.5599766,72.261875 Z M26.3907578,68.4237734 C26.2260547,68.4237734 26.0587578,68.381625 25.9057266,68.2934375 C24.0343359,67.2137891 22.2679922,65.9324766 20.656625,64.4845156 C20.2571875,64.1259297 20.2241172,63.5105625 20.5833516,63.111125 C20.9425859,62.7116875 21.5573047,62.6792656 21.9567422,63.0378516 C23.4676016,64.3950313 25.1230625,65.5959375 26.8777344,66.6081484 C27.3433125,66.8766016 27.5028281,67.4712188 27.234375,67.9367969 C27.0541094,68.2486953 26.7266484,68.4237734 26.3907578,68.4237734 Z M56.4419453,68.3952422 C56.1060547,68.3952422 55.7798906,68.2208125 55.599625,67.9095625 C55.329875,67.4446328 55.4887422,66.8493672 55.9536719,66.5802656 C57.70575,65.5654609 59.3586172,64.3613125 60.8668828,63.0015391 C61.2663203,62.6416563 61.8810391,62.6740781 62.2402734,63.0722187 C62.6001562,63.4710078 62.5683828,64.0857266 62.1695938,64.4456094 C60.5608203,65.8961641 58.7977187,67.1807188 56.9289219,68.2629609 C56.7752422,68.3524453 56.6072969,68.3952422 56.4419453,68.3952422 Z M17.0960547,60.0725469 C16.7964766,60.0725469 16.5001406,59.9344297 16.3101484,59.6737578 C15.0320781,57.923625 13.9368672,56.0373203 13.0543437,54.0660703 C12.8351719,53.5758516 13.0543437,53.0006875 13.5445625,52.7808672 C14.0347812,52.5623438 14.6105937,52.7808672 14.8297656,53.2710859 C15.6565234,55.1178359 16.683,56.886125 17.8806641,58.5260234 C18.19775,58.9598281 18.1024297,59.5687109 17.668625,59.8851484 C17.4954922,60.0115938 17.295125,60.0725469 17.0960547,60.0725469 Z M65.7204375,60.0271563 C65.5220156,60.0271563 65.3222969,59.9668516 65.1491641,59.8410547 C64.7147109,59.5252656 64.6187422,58.9170313 64.9345313,58.4825781 C66.1289531,56.8407344 67.1521875,55.0698516 67.977,53.2198594 C68.1955234,52.7289922 68.7706875,52.5091719 69.2615547,52.7276953 C69.7517734,52.9462188 69.9728906,53.5213828 69.7537187,54.01225 C68.8737891,55.9860938 67.7818203,57.8756406 66.5076406,59.6270703 C66.3176484,59.8883906 66.0213125,60.0271563 65.7204375,60.0271563 Z M11.9902578,48.6704219 C11.5408906,48.6704219 11.1375625,48.3572266 11.0402969,47.9000781 C10.5902812,45.7933047 10.3607344,43.6242813 10.3568437,41.4526641 C10.3561953,40.9157578 10.7906484,40.4793594 11.3282031,40.4787109 C11.3282031,40.4787109 11.3288516,40.4787109 11.3295,40.4787109 C11.8657578,40.4787109 12.3015078,40.9131641 12.3021562,41.4500703 C12.3053984,43.4861641 12.5213281,45.5196641 12.9428125,47.4948047 C13.0549922,48.0200391 12.71975,48.5368438 12.1945156,48.6490234 C12.1257812,48.6632891 12.0570469,48.6704219 11.9902578,48.6704219 Z M70.8061328,48.6133594 C70.7393438,48.6133594 70.6719063,48.6062266 70.6038203,48.5919609 C70.0779375,48.4810781 69.7420469,47.9649219 69.8529297,47.4390391 C70.2705234,45.4638984 70.4819141,43.42975 70.4819141,41.3930078 L70.4819141,41.2769375 C70.4780234,40.7393828 70.9098828,40.3010391 71.4467891,40.2965 C72.0012031,40.2679688 72.4226875,40.7251172 72.4272266,41.261375 L72.4272266,41.4001406 C72.4272266,43.564625 72.2015703,45.7342969 71.7560938,47.8410703 C71.660125,48.2988672 71.2561484,48.6133594 70.8061328,48.6133594 Z M11.9675625,36.1763281 C11.9014219,36.1763281 11.8346328,36.1691953 11.7671953,36.1555781 C11.2413125,36.0453438 10.904125,35.5298359 11.0143594,35.0046016 C11.4578906,32.8861563 12.1270781,30.8085625 13.0037656,28.8301797 C13.2216406,28.3399609 13.7955078,28.1175469 14.2870234,28.3347734 C14.7778906,28.5526484 14.9996562,29.1271641 14.7824297,29.6180313 C13.9608594,31.4719141 13.3338203,33.417875 12.9181719,35.4027422 C12.8228516,35.8611875 12.4182266,36.1763281 11.9675625,36.1763281 Z M70.77825,35.9973594 C70.3301797,35.9973594 69.9268516,35.6854609 69.8282891,35.2296094 C69.4009688,33.2473359 68.7616094,31.3052656 67.9290156,29.4572188 C67.7085469,28.9676484 67.9264219,28.3911875 68.4159922,28.1707188 C68.9055625,27.95025 69.4820234,28.168125 69.7024922,28.6576953 C70.5915,30.6302422 71.2730078,32.7032969 71.7295078,34.8185 C71.8429844,35.3437344 71.5090391,35.8611875 70.9838047,35.9746641 C70.9150703,35.9902266 70.8463359,35.9973594 70.77825,35.9973594 Z M17.025375,24.7508594 C16.8276016,24.7508594 16.6285312,24.6905547 16.4560469,24.5660547 C16.0209453,24.2509141 15.9236797,23.6426797 16.2388203,23.2075781 C17.5071641,21.4561484 18.9635547,19.8318125 20.5671406,18.3793125 C20.9652812,18.0181328 21.5806484,18.0492578 21.9411797,18.4473984 C22.3017109,18.8455391 22.2712344,19.4609063 21.8730938,19.8214375 C20.3693672,21.1831563 19.0037578,22.7063359 17.8145234,24.3488281 C17.6238828,24.6114453 17.3268984,24.7508594 17.025375,24.7508594 Z M65.6523516,24.6056094 C65.3534219,24.6056094 65.0577344,24.4681406 64.8677422,24.2081172 C63.6687812,22.5734063 62.2940937,21.0580078 60.7819375,19.7053672 C60.3818516,19.3474297 60.3474844,18.7327109 60.7060703,18.3319766 C61.0646562,17.9318906 61.6787266,17.8975234 62.0794609,18.2561094 C63.6914766,19.6988828 65.1575937,21.3141406 66.4363125,23.0577891 C66.7540469,23.4909453 66.6606719,24.0998281 66.2275156,24.4175625 C66.0537344,24.5446563 65.8520703,24.6056094 65.6523516,24.6056094 Z M26.29025,16.3639688 C25.9550078,16.3639688 25.6294922,16.1908359 25.4485781,15.8808828 C25.1781797,15.4166016 25.33575,14.8213359 25.8000312,14.5509375 C27.6727187,13.4609141 29.6634219,12.5667188 31.7170234,11.8936406 C32.2260469,11.7269922 32.7765703,12.003875 32.9445156,12.5148438 C33.1118125,13.0251641 32.8336328,13.5743906 32.3233125,13.7423359 C30.39875,14.3732656 28.5338437,15.2110469 26.7791719,16.2323359 C26.6248437,16.3218203 26.45625,16.3639688 26.29025,16.3639688 Z M56.3375469,16.2744844 C56.1734922,16.2744844 56.0068438,16.2329844 55.8538125,16.1447969 C54.0926563,15.1338828 52.2225625,14.307125 50.2947578,13.6878672 C49.7831406,13.5238125 49.5017188,12.9758828 49.6657734,12.4642656 C49.8298281,11.9526484 50.3803516,11.6725234 50.889375,11.8352813 C52.9468672,12.4960391 54.9434063,13.3779141 56.8225781,14.4569141 C57.2881563,14.7247188 57.4489688,15.3186875 57.1818125,15.7849141 C57.0021953,16.0987578 56.6740859,16.2744844 56.3375469,16.2744844 Z M38.1598984,12.4720469 C37.6690312,12.4720469 37.2475469,12.1017891 37.1937266,11.6024922 C37.1366641,11.0681797 37.5237812,10.5889844 38.0580937,10.5319219 C40.1966406,10.3036719 42.3974375,10.2978359 44.5392266,10.5124688 C45.0735391,10.5662891 45.46325,11.0435391 45.4094297,11.5778516 C45.3556094,12.1121641 44.8809531,12.4973359 44.3440469,12.4480547 C42.3351875,12.2450938 40.2699141,12.2515781 38.2642969,12.4662109 C38.2292812,12.4701016 38.1942656,12.4720469 38.1598984,12.4720469 Z" id="Shape" stroke="#000000" stroke-width="0.650000036" fill="#000000"></path>
                                    <path d="M38.3239531,63.8775781 C38.2785625,63.8775781 38.2325234,63.8743359 38.1864844,63.8678516 C36.0408047,63.5643828 33.9541328,62.9555 31.9848281,62.0574141 C31.4965547,61.8343516 31.280625,61.2578906 31.5036875,60.7689687 C31.72675,60.2806953 32.3032109,60.0641172 32.7921328,60.2878281 C34.5915469,61.1081016 36.4979531,61.6651094 38.4588281,61.9419922 C38.9905469,62.0172109 39.3608047,62.509375 39.2855859,63.0410938 C39.2168516,63.5267734 38.8005547,63.8775781 38.3239531,63.8775781 Z M44.5029141,63.8710938 C44.0269609,63.8710938 43.6113125,63.5215859 43.5412813,63.0365547 C43.4647656,62.5048359 43.834375,62.0120234 44.3660938,61.9355078 C46.3256719,61.6540859 48.2307813,61.0938359 50.0288984,60.2703203 C50.5165234,60.0466094 51.0942813,60.2612422 51.3179922,60.7495156 C51.5417031,61.2377891 51.3270703,61.8148984 50.8387969,62.0386094 C48.8714375,62.9399375 46.7860625,63.5527109 44.6416797,63.8607188 C44.5949922,63.8685 44.5489531,63.8710938 44.5029141,63.8710938 Z M27.1857422,58.8061484 C26.9600859,58.8061484 26.7337812,58.7283359 26.5502734,58.5694688 C24.9116719,57.1526328 23.4857578,55.5133828 22.3120859,53.6971094 C22.0202891,53.2457969 22.1499766,52.6440469 22.6012891,52.35225 C23.0513047,52.0604531 23.6537031,52.1894922 23.9461484,52.6414531 C25.0193125,54.30275 26.3239688,55.8019375 27.8225078,57.0981641 C28.2290781,57.4496172 28.2731719,58.0636875 27.9223672,58.4702578 C27.7297813,58.6920234 27.4587344,58.8061484 27.1857422,58.8061484 Z M55.6301016,58.7782656 C55.3584063,58.7782656 55.0873594,58.6647891 54.8954219,58.4430234 C54.5433203,58.0371016 54.5867656,57.4230313 54.9920391,57.0709297 C56.4886328,55.7721094 57.7893984,54.2703281 58.8599688,52.6070859 C59.1504688,52.155125 59.7522188,52.0254375 60.2041797,52.3152891 C60.6561406,52.6057891 60.7864766,53.2075391 60.4959766,53.6595 C59.3255469,55.4783672 57.902875,57.1202109 56.2675156,58.5402891 C56.0833594,58.7004531 55.8564063,58.7782656 55.6301016,58.7782656 Z M20.5483359,48.5245234 C20.1281484,48.5245234 19.7403828,48.2502344 19.6158828,47.8268047 C19.0057031,45.7595859 18.6944531,43.6100156 18.6905625,41.4364531 C18.6899141,40.8995469 19.1243672,40.4631484 19.6619219,40.4625 C19.6619219,40.4625 19.6625703,40.4625 19.6632188,40.4625 C20.1994766,40.4625 20.6352266,40.8969531 20.635875,41.4338594 C20.6391172,43.4219688 20.9237813,45.3880313 21.4814375,47.2775781 C21.6338203,47.7924375 21.3394297,48.3332344 20.8239219,48.4856172 C20.7324922,48.5115547 20.6397656,48.5245234 20.5483359,48.5245234 Z M62.2474063,48.4836719 C62.156625,48.4836719 62.0651953,48.4707031 61.9737656,48.4441172 C61.4582578,48.2930312 61.1625703,47.7528828 61.3136563,47.237375 C61.8674219,45.3471797 62.1475469,43.3811172 62.1475469,41.3923594 L62.1475469,41.3041719 C62.1475469,40.7666172 62.5826484,40.3315156 63.1202031,40.3315156 C63.6577578,40.3315156 64.0928594,40.7666172 64.0928594,41.3041719 L64.0928594,41.3819844 C64.0928594,43.5665703 63.7855,45.7167891 63.1805078,47.7840078 C63.0566563,48.2080859 62.6682422,48.4836719 62.2474063,48.4836719 Z M20.5256406,36.2865625 C20.4355078,36.2865625 20.3447266,36.2735938 20.2539453,36.2476562 C19.7377891,36.0978672 19.4414531,35.5583672 19.5912422,35.0422109 C20.1949375,32.9659141 21.0936719,30.9875312 22.2641016,29.1608828 C22.5539531,28.707625 23.1550547,28.5766406 23.6076641,28.8664922 C24.0602734,29.1563437 24.1919063,29.7580937 23.9020547,30.2100547 C22.8327813,31.8797813 22.0105625,33.687625 21.4593906,35.5849531 C21.3355391,36.0103281 20.947125,36.2865625 20.5256406,36.2865625 Z M62.2221172,36.1620625 C61.8025781,36.1620625 61.4154609,35.8890703 61.2896641,35.4662891 C60.7268203,33.5728516 59.8942266,31.7695469 58.8145781,30.1063047 C58.5221328,29.6556406 58.6505234,29.0532422 59.1011875,28.7607969 C59.5512031,28.469 60.15425,28.5967422 60.4466953,29.0474063 C61.6275,30.8669219 62.5385547,32.8394687 63.1545703,34.911875 C63.3076016,35.4267344 63.0145078,35.9681797 62.499,36.1212109 C62.4069219,36.1490937 62.3141953,36.1620625 62.2221172,36.1620625 Z M27.1215469,25.9783516 C26.8505,25.9783516 26.58075,25.8655234 26.3881641,25.6450547 C26.0354141,25.2397813 26.0775625,24.6257109 26.4821875,24.2723125 C28.1168984,22.8470469 29.9409531,21.6662422 31.903125,20.7623203 C32.3901016,20.5373125 32.9685078,20.7506484 33.1935156,21.2389219 C33.4185234,21.7265469 33.2051875,22.3043047 32.7169141,22.5293125 C30.9226875,23.3554219 29.2555547,24.4357188 27.7602578,25.7390781 C27.5761016,25.8992422 27.3485,25.9783516 27.1215469,25.9783516 Z M55.5639609,25.8927578 C55.3389531,25.8927578 55.1132969,25.8149453 54.9291406,25.6567266 C53.4273594,24.3624453 51.7530937,23.2925234 49.9530312,22.4767891 C49.4641094,22.2550234 49.2475312,21.6785625 49.4686484,21.1889922 C49.6904141,20.7000703 50.2662266,20.4834922 50.7564453,20.7046094 C52.7251016,21.5975078 54.5556406,22.7672891 56.1987812,24.1828281 C56.6053516,24.5336328 56.6513906,25.1477031 56.3005859,25.5542734 C56.1086484,25.7779844 55.8369531,25.8927578 55.5639609,25.8927578 Z M38.2351172,20.8621797 C37.7598125,20.8621797 37.3441641,20.5133203 37.2741328,20.0295859 C37.1969688,19.4978672 37.5652813,19.0044063 38.097,18.9272422 C40.2193359,18.6179375 42.4279141,18.6121016 44.5521953,18.9077891 C45.0839141,18.9817109 45.4554688,19.4732266 45.3815469,20.0055938 C45.307625,20.5373125 44.8187031,20.9069219 44.2837422,20.8349453 C42.340375,20.5638984 40.3185469,20.5703828 38.377125,20.8524531 C38.3291406,20.8589375 38.2818047,20.8621797 38.2351172,20.8621797 Z" id="Shape" stroke="#000000" stroke-width="0.650000036" fill="#000000"></path>
                                    <path d="M47.5855859,34.3879375 L19.6320937,16.9222734 C18.8552656,16.4372422 17.8475937,16.5526641 17.1991562,17.1998047 C16.5526641,17.8462969 16.4365938,18.8552656 16.9229219,19.6320938 L34.3879375,47.5855859 C34.7478203,48.16075 35.3781016,48.5096094 36.0570156,48.5096094 L46.5435469,48.5083125 C47.0856406,48.5083125 47.5784531,48.2891406 47.9344453,47.9331484 C48.2904375,47.5771563 48.5096094,47.0843438 48.5096094,46.5428984 L48.5109062,36.0563672 C48.5089609,35.3774531 48.16075,34.7478203 47.5855859,34.3879375 Z" id="Shape" fill="#D60909"></path>
                                    <path d="M16.9229219,19.6314453 L34.3879375,47.5849375 C34.7478203,48.1601016 35.3781016,48.5089609 36.0570156,48.5089609 L46.5435469,48.5076641 C47.0856406,48.5076641 47.5784531,48.2884922 47.9344453,47.9325 L17.1991562,17.1991563 C16.5526641,17.8456484 16.4365937,18.8546172 16.9229219,19.6314453 Z" id="Shape" fill="#FF1A1A"></path>
                                    <path d="M34.8223906,48.0861797 C34.9339219,48.2028984 35.0590703,48.3066484 35.1984844,48.3954844 L63.1519766,65.8611484 C63.9294531,66.3468281 64.9364766,66.2307578 65.5849141,65.5836172 C66.2320547,64.9364766 66.3474766,63.9281563 65.8611484,63.1513281 L48.3948359,35.1978359 C48.3072969,35.0577734 48.2035469,34.932625 48.0855312,34.8210938 L34.8223906,48.0861797 Z" id="Shape" fill="#AAC8D1"></path>
                                    <path d="M41.4533125,41.4539609 L65.5849141,65.5842656 C66.2320547,64.937125 66.3474766,63.9288047 65.8611484,63.1519766 L48.3948359,35.1978359 C48.3072969,35.0577734 48.2035469,34.932625 48.0855312,34.8210938 L41.4533125,41.4539609 Z" id="Shape" fill="#D8E5EA"></path>
                                    <path d="M66.6859609,62.6364688 L49.2196484,34.6823281 C49.2151094,34.6751953 49.208625,34.6700078 49.2040859,34.662875 C49.2462344,34.3697813 49.1716641,34.0637187 48.9460078,33.8380625 C48.7203516,33.6124062 48.4142891,33.5378359 48.1218438,33.5799844 C48.1147109,33.5747969 48.108875,33.5683125 48.1017422,33.5637734 L20.1469531,16.0968125 C18.9797656,15.3686172 17.4857656,15.5385078 16.5111641,16.5118125 C15.5378594,17.4851172 15.3679688,18.9804141 16.0981094,20.1469531 L33.563125,48.1010938 C33.5676641,48.108875 33.5747969,48.1147109 33.5799844,48.1218438 C33.5384844,48.4142891 33.6137031,48.7197031 33.8387109,48.9453594 C34.0287031,49.1353516 34.2777031,49.2300234 34.5267031,49.2300234 C34.5727422,49.2300234 34.6168359,49.2099219 34.662875,49.2034375 C34.6706563,49.208625 34.6758438,49.2151094 34.683625,49.2202969 L62.6377656,66.6866094 C63.1208516,66.9881328 63.661,67.1359766 64.1966094,67.1359766 C64.9533359,67.1359766 65.7029297,66.8415859 66.2735547,66.2716094 C67.2462109,65.2983047 67.4161016,63.8030078 66.6859609,62.6364688 Z M17.7477344,19.1152891 C17.5006797,18.7210391 17.5583906,18.2159062 17.8865,17.8871484 C18.2165547,17.5583906 18.7229844,17.5000312 19.1165859,17.7464375 L46.531875,34.8762109 L34.8762109,46.531875 L17.7477344,19.1152891 Z M64.8975703,64.895625 C64.5675156,65.2243828 64.0623828,65.2827422 63.6674844,65.0363359 L36.2515469,47.9065625 L47.9065625,36.2521953 L65.0363359,63.6674844 C65.2833906,64.0617344 65.2263281,64.5675156 64.8975703,64.895625 Z" id="Shape" fill="#000000"></path>
                                    <circle id="Oval" fill="#FFFFFF" cx="41.3910625" cy="41.3910625" r="5.72570312"></circle>
                                    <path d="M35.6666563,41.3917109 C35.6666563,38.2305781 38.2299297,35.6653594 41.3910625,35.6653594 C44.5521953,35.6653594 47.1154688,38.2305781 47.1154688,41.3917109" id="Shape" fill="#D8E5EA"></path>
                                    <path d="M41.3917109,48.0887734 C37.6988594,48.0887734 34.6946484,45.0845625 34.6946484,41.3917109 C34.6946484,37.6975625 37.6988594,34.6927031 41.3917109,34.6927031 C45.0845625,34.6927031 48.0887734,37.6975625 48.0887734,41.3917109 C48.0887734,45.0845625 45.0839141,48.0887734 41.3917109,48.0887734 Z M41.3917109,36.6380156 C38.771375,36.6380156 36.6399609,38.7707266 36.6399609,41.3917109 C36.6399609,44.0120469 38.7720234,46.1434609 41.3917109,46.1434609 C44.0113984,46.1434609 46.1434609,44.0113984 46.1434609,41.3917109 C46.1434609,38.7707266 44.0113984,36.6380156 41.3917109,36.6380156 Z" id="Shape" fill="#000000"></path>
                                </g>
                                <path d="M67.2674416,10 L37.9663247,10 C35.6367662,10 33.5068636,8.95056032 32.4649773,7.28904328 L28.0141656,0.191532164 L77.2192403,0.191532164 L72.7684286,7.28904328 C71.7269026,8.95027296 69.5973604,10 67.2674416,10 Z" id="Shape" fill="#0A8084"></path>
                            </g>
                            <g id="Group" fill="#000000">
                                <path d="M95.4791006,0 L15.5208994,0 C7.03264286,0.010042885 0.154246753,6.8557037 0.144155844,15.3035634 L0.144155844,168.338121 C0.154246753,176.785981 7.03264286,183.631641 15.5208994,183.641684 L95.479461,183.641684 C103.967718,183.631641 110.846114,176.785981 110.856205,168.338121 L110.856205,15.3035634 C110.845753,6.8557037 103.967357,0.010042885 95.4791006,0 Z M75.1260974,4.12149708 L72.9006916,7.55112671 C72.3828117,8.59020663 71.3167792,9.2465809 70.1512792,9.24299415 L40.8487208,9.24299415 C39.6832208,9.2465809 38.6171883,8.5905653 38.0993084,7.55112671 L35.8739026,4.12149708 L75.1260974,4.12149708 Z M95.4791006,179.519828 L15.5208994,179.519828 C10.4278734,179.514448 4.30033117,173.40655 4.29492532,168.337762 L4.29492532,15.3035634 C4.30033117,10.2347758 10.4278734,4.12687719 15.5208994,4.12149708 L29.9965877,4.12149708 L32.5976006,8.28888889 C34.1516006,11.4072047 37.3515,13.3756101 40.8490812,13.3641326 L70.1516396,13.3641326 C73.6492208,13.3756101 76.8491201,11.4072047 78.4031201,8.28888889 L81.0041331,4.12149708 L95.4798214,4.12149708 C100.572847,4.12687719 106.70039,10.2347758 106.705795,15.3035634 L106.705795,168.337762 C106.699669,173.40655 100.572127,179.514448 95.4791006,179.519828 Z" id="Shape"></path>
                                <path d="M73.9519481,167.277193 L37.0480519,167.277193 C35.3495357,167.277193 33.8032227,167.646545 33.8032227,169.336619 C33.8032227,171.027051 35.3498961,171.398331 37.0480519,171.398331 L73.9519481,171.398331 C75.6504643,171.398331 76.8575279,171.026693 76.8575279,169.336619 C76.8575279,167.646545 75.6504643,167.277193 73.9519481,167.277193 Z" id="Shape"></path>
                            </g>
                        </g>
                    </g>
                </g>
            </g>
        </g>
    </g>
</svg>